<svg xmlns="http://www.w3.org/2000/svg" width="110.545" height="104" viewBox="0 0 110.545 104">
  <g id="SourceNXT_1" transform="translate(-0.332)">
    <rect id="Rectangle_6923" data-name="Rectangle 6923" width="106" height="104" transform="translate(0.332)" fill="#fff" opacity="0"/>
    <g id="Group_975" data-name="Group 975" transform="translate(2.063 15.363)">
      <path id="Union_13" data-name="Union 13" d="M50.677,66.386a.641.641,0,0,1-.34-.262.732.732,0,0,1-.117-.4V65.7h.39v.019a.365.365,0,0,0,.174.346.946.946,0,0,0,.465.1.631.631,0,0,0,.426-.149.487.487,0,0,0,.172-.39.4.4,0,0,0-.147-.321,1.764,1.764,0,0,0-.451-.245L51.094,65a2.015,2.015,0,0,1-.474-.258.852.852,0,0,1-.233-.283.785.785,0,0,1-.078-.348.767.767,0,0,1,.239-.57,1.04,1.04,0,0,1,.748-.233.981.981,0,0,1,.658.172.527.527,0,0,1,.191.4V63.9h-.388v-.021a.226.226,0,0,0-.059-.145.325.325,0,0,0-.176-.1.989.989,0,0,0-.258-.031.567.567,0,0,0-.423.143.453.453,0,0,0-.139.325.432.432,0,0,0,.065.231.547.547,0,0,0,.18.18,3.235,3.235,0,0,0,.386.191l.182.08a1.369,1.369,0,0,1,.585.4.78.78,0,0,1,.147.451.871.871,0,0,1-.12.436.783.783,0,0,1-.331.319,1.226,1.226,0,0,1-.564.109A1.7,1.7,0,0,1,50.677,66.386Zm27.917-.333a2.109,2.109,0,0,1,0-2.34,1.22,1.22,0,0,1,1.826,0,2.108,2.108,0,0,1,0,2.34,1.22,1.22,0,0,1-1.826,0Zm.277-2.1a2.01,2.01,0,0,0,0,1.862.749.749,0,0,0,1.27,0,2.009,2.009,0,0,0,0-1.862.749.749,0,0,0-1.27,0Zm-16.921,2.1a2.109,2.109,0,0,1,0-2.34,1.22,1.22,0,0,1,1.826,0,2.108,2.108,0,0,1,0,2.34,1.22,1.22,0,0,1-1.826,0Zm.277-2.1a2.01,2.01,0,0,0,0,1.862.749.749,0,0,0,1.27,0,2.01,2.01,0,0,0,0-1.862.749.749,0,0,0-1.27,0ZM34.662,66.286a1.263,1.263,0,0,1-.442-.512,1.917,1.917,0,0,1-.166-.857A2.147,2.147,0,0,1,34.211,64a1.251,1.251,0,0,1,.44-.512,1.207,1.207,0,0,1,.675-.187,1.339,1.339,0,0,1,.486.084.762.762,0,0,1,.348.256.572.572,0,0,1,.13.34V64h-.359v-.021a.29.29,0,0,0-.08-.193.52.52,0,0,0-.21-.141.8.8,0,0,0-.294-.05.745.745,0,0,0-.663.342,2.024,2.024,0,0,0,.007,1.88.752.752,0,0,0,.66.346,1.734,1.734,0,0,0,.581-.12V65.2h-.671v-.3h1.029v1.335h0a2.089,2.089,0,0,1-.9.226,1.315,1.315,0,0,1-.726-.178Zm-11.749,0a1.265,1.265,0,0,1-.442-.512,1.917,1.917,0,0,1-.166-.857A2.143,2.143,0,0,1,22.462,64a1.249,1.249,0,0,1,.44-.512,1.207,1.207,0,0,1,.675-.187,1.338,1.338,0,0,1,.486.084.762.762,0,0,1,.348.256.572.572,0,0,1,.13.34V64h-.359v-.021a.291.291,0,0,0-.08-.193.52.52,0,0,0-.21-.141.8.8,0,0,0-.294-.05.745.745,0,0,0-.663.342,2.024,2.024,0,0,0,.006,1.88.752.752,0,0,0,.66.346,1.734,1.734,0,0,0,.581-.12V65.2h-.671v-.3h1.029v1.335h0a2.09,2.09,0,0,1-.9.226,1.315,1.315,0,0,1-.725-.178Zm45.3.09-1.363-2.128-.126-.239.008.239v2.126h-.359V63.392h.386l1.361,2.12.124.235-.008-.233v-2.12H68.6v2.981Zm-36.787,0-1.363-2.128-.126-.239.008.239v2.126h-.359V63.392h.386l1.361,2.12.124.235-.008-.233v-2.12h.359v2.981Zm-11.749,0-1.363-2.128-.126-.239.008.239v2.126h-.359V63.392h.386l1.361,2.12.124.235-.008-.233v-2.12h.359v2.981Zm-13.034,0V63.394h.79a2.2,2.2,0,0,1,.727.078.568.568,0,0,1,.279.231.622.622,0,0,1,.094.335.791.791,0,0,1-.119.407,1.018,1.018,0,0,1-.432.361A.883.883,0,0,1,8.5,65.1a.727.727,0,0,1,.159.463.8.8,0,0,1-.419.7,1.536,1.536,0,0,1-.7.113Zm.388-.3h.547a.747.747,0,0,0,.53-.145.467.467,0,0,0,.142-.342.519.519,0,0,0-.092-.3.662.662,0,0,0-.273-.22,1.412,1.412,0,0,0-.566-.086h-.29Zm0-1.386h.373a.918.918,0,0,0,.43-.078.562.562,0,0,0,.229-.22.572.572,0,0,0,.086-.294.37.37,0,0,0-.134-.287.729.729,0,0,0-.48-.12h-.5Zm89.861-1.3h1.685v.327h-1.3v.941h1.132v.3H97.28v1.088h1.4v.327h-1.79V63.392Zm-3.96,0h1.686v.327h-1.3v1.027h1.132v.3H93.321v1.325h-.388V63.392Zm-2.738,2.981V63.392h.388v2.981Zm-4.082,0V63.392H86.5v2.654h1.564v.327Zm-11.279,0V63.692H73.818v-.3h2.4v.3h-1v2.681Zm-15.871,0V63.392h.388v2.981Zm-2.74,0V65.017H54.853v1.356h-.388V63.392h.388v1.327h1.369V63.392h.388v2.981Zm-8.47,0-.308-.82H46.13l-.342.82H45.43l1.222-2.981h.392l1.128,2.981Zm-1.509-1.118h1.084l-.522-1.384Zm-4.554-1.864h1.686v.327h-1.3v1.027h1.132v.3H42.077v1.325h-.388V63.392ZM26.85,66.374V63.392h.388v2.981Zm-11.749,0V63.392h.388v2.981Zm-2.585,0L12.1,65.59a1.7,1.7,0,0,0-.39-.5h-.392v1.281h-.388V63.392h.922a1.062,1.062,0,0,1,.512.1.692.692,0,0,1,.27.283.856.856,0,0,1,.1.4.872.872,0,0,1-.067.335.939.939,0,0,1-.191.289,1.052,1.052,0,0,1-.377.231.58.58,0,0,1,.144.1,1.1,1.1,0,0,1,.117.155c.046.071.086.139.122.2l.474.883Zm-1.191-1.579H11.7a.726.726,0,0,0,.363-.073.519.519,0,0,0,.2-.216.659.659,0,0,0,.073-.3.549.549,0,0,0-.057-.252.487.487,0,0,0-.168-.185.724.724,0,0,0-.377-.075h-.407Zm0,0h0ZM97.5,57.925,82.118,34.5H88.2l9.3,14.177V34.5h.558V57.925Zm-91.765-6.8V43.664h.558s7.3,13.256,20.552,13.256c8.132,0,14.537-5.958,14.537-12.141,0-4.885-3.048-7.944-7.367-10.281h7.9a12.319,12.319,0,0,1,2.7,8c0,7.742-8.019,15.428-20.885,15.428C16.372,57.923,9.856,54.191,5.734,51.128Zm50.828,5.684v-.558c4.791,0,5.124-3.954,5.124-14.927V34.5h.564c.18,15.5,4.658,21.753,9.35,21.753v.558ZM51.637,31.19a3.082,3.082,0,0,1-1.052-.675,3.12,3.12,0,0,1-.694-1.027,3.49,3.49,0,0,1,0-2.592,3.08,3.08,0,0,1,.7-1.027,3.128,3.128,0,0,1,1.057-.675,3.8,3.8,0,0,1,2.755.044,2.828,2.828,0,0,1,1.084.826l-.916.857a2.059,2.059,0,0,0-.694-.554,1.91,1.91,0,0,0-.843-.189,2.044,2.044,0,0,0-.786.147,1.855,1.855,0,0,0-.621.415,1.889,1.889,0,0,0-.407.635,2.358,2.358,0,0,0,0,1.627,1.877,1.877,0,0,0,.407.635,1.834,1.834,0,0,0,.621.415,2.044,2.044,0,0,0,.786.147,1.883,1.883,0,0,0,.843-.193,2.128,2.128,0,0,0,.694-.558l.916.857a2.823,2.823,0,0,1-1.084.83,3.506,3.506,0,0,1-1.449.29A3.6,3.6,0,0,1,51.637,31.19Zm-22.093-.505a2.9,2.9,0,0,1-.734-2.128V25.062h1.424v3.459a1.892,1.892,0,0,0,.359,1.283,1.455,1.455,0,0,0,2,0,1.884,1.884,0,0,0,.359-1.283V25.062h1.388v3.495a2.9,2.9,0,0,1-.734,2.128,3.148,3.148,0,0,1-4.061,0Zm-10.346.5a3.238,3.238,0,0,1-1.065-.679,3.082,3.082,0,0,1-.7-1.027,3.457,3.457,0,0,1,0-2.579,3.087,3.087,0,0,1,.7-1.023,3.242,3.242,0,0,1,1.061-.679,3.566,3.566,0,0,1,1.331-.241,3.649,3.649,0,0,1,1.331.237,3.166,3.166,0,0,1,1.061.675,3.082,3.082,0,0,1,.7,1.027,3.479,3.479,0,0,1,0,2.587,3.055,3.055,0,0,1-.7,1.031,3.159,3.159,0,0,1-1.061.675,3.814,3.814,0,0,1-2.658,0Zm.568-4.858a1.807,1.807,0,0,0-.608.419,2,2,0,0,0-.4.635,2.335,2.335,0,0,0,0,1.619,2,2,0,0,0,.4.635,1.758,1.758,0,0,0,.608.419,1.958,1.958,0,0,0,.759.147,1.894,1.894,0,0,0,.755-.147,1.839,1.839,0,0,0,.606-.419A1.978,1.978,0,0,0,22.292,29a2.338,2.338,0,0,0,0-1.619,1.941,1.941,0,0,0-.407-.635,1.83,1.83,0,0,0-.606-.419,1.9,1.9,0,0,0-.755-.147,1.921,1.921,0,0,0-.759.147Zm-11.1,4.9A3.285,3.285,0,0,1,7.581,30.7l.48-1.09a3.278,3.278,0,0,0,.927.47,3.4,3.4,0,0,0,1.092.182,2.082,2.082,0,0,0,.677-.09.826.826,0,0,0,.379-.237.523.523,0,0,0,.122-.344.477.477,0,0,0-.193-.4,1.55,1.55,0,0,0-.512-.241c-.212-.063-.444-.122-.694-.178s-.5-.126-.755-.205a2.948,2.948,0,0,1-.7-.323A1.509,1.509,0,0,1,7.9,27.72a1.614,1.614,0,0,1-.189-.818,1.793,1.793,0,0,1,.279-.979,1.919,1.919,0,0,1,.851-.707,3.426,3.426,0,0,1,1.436-.264,4.67,4.67,0,0,1,1.141.143,3.4,3.4,0,0,1,.983.411l-.444,1.09a3.564,3.564,0,0,0-.847-.363,3.182,3.182,0,0,0-.839-.122,1.981,1.981,0,0,0-.673.094.762.762,0,0,0-.371.256.6.6,0,0,0-.117.359.487.487,0,0,0,.193.4,1.411,1.411,0,0,0,.507.237q.314.085.7.17a7.413,7.413,0,0,1,.759.21,3.4,3.4,0,0,1,.69.317,1.53,1.53,0,0,1,.512.518,1.551,1.551,0,0,1,.2.809,1.737,1.737,0,0,1-.283.964,1.987,1.987,0,0,1-.86.707,3.366,3.366,0,0,1-1.443.273,4.925,4.925,0,0,1-1.411-.2Zm31.007.1v-6.26h2.646a3.361,3.361,0,0,1,1.415.273,2.076,2.076,0,0,1,.916.782,2.428,2.428,0,0,1,0,2.419,2.047,2.047,0,0,1-.916.769l-.006,0,1.361,2.01h-1.52l-1.184-1.749H41.1v1.753Zm1.424-2.91h1.145a1.468,1.468,0,0,0,.979-.285,1.009,1.009,0,0,0,.331-.805,1,1,0,0,0-.331-.8,1.474,1.474,0,0,0-.979-.281H41.1Zm19.257,2.9V25.062h4.621v1.161H61.763v1.35H64.6v1.134H61.763v1.449h3.327v1.161Zm37.163-.008V25.615H95.6v-.553h4.514v.554h-1.92v5.694Zm-19.728,0-3.983-5.18v5.18h-.673V25.062h.633l3.944,5.16v-5.16h.673v6.248Zm11.187,0L87.267,28.6l-1.721,2.707h-.795l2.113-3.229-1.981-3.017h.795l1.589,2.495,1.579-2.495h.795L87.66,28.079l2.113,3.229ZM106.1,29.58v-.453h2.441v.453ZM0,29.58v-.453H2.44v.453Zm95.6-4.518h0Zm-33.911-4.2V16.6c0-10.973-.333-14.927-5.124-14.927V1.115h9.747l12.95,19.747h-6.1L62.243,4.233V20.865Zm35.735,0C96.8,7.233,92.567,1.671,88.142,1.671V1.113H103.18v.558c-4.79,0-5.124,3.954-5.124,14.927v4.264Zm-90.033,0a11.144,11.144,0,0,1-1.874-6.382C5.514,6.74,12.587,0,25.454,0A46.7,46.7,0,0,1,41.327,2.562v7.464h-.558S37.37.669,25.452.669c-10.359,0-16.04,6.294-16.04,12.476,0,3.457,1.811,5.851,4.606,7.717Z" transform="translate(0.27 11.091)"/>
      <text id="Co-located" transform="translate(54.269 6.638)" font-size="8.5" font-family="Arial-BoldMT, Arial" font-weight="700" letter-spacing="0.565em"><tspan x="-49.626" y="0">CO-LOCATED</tspan></text>
    </g>
  </g>
</svg>
