<svg xmlns="http://www.w3.org/2000/svg" xmlns:xlink="http://www.w3.org/1999/xlink" width="350" height="105" viewBox="0 0 350 105">
  <defs>
    <clipPath id="clip-path">
      <rect id="Rectangle_6939" data-name="Rectangle 6939" width="345.135" height="93.209" fill="none"/>
    </clipPath>
    <clipPath id="clip-newmiddle">
      <rect width="350" height="105"/>
    </clipPath>
  </defs>
  <g id="newmiddle" clip-path="url(#clip-newmiddle)">
    <g id="Group_998" data-name="Group 998" transform="translate(2 7.008)">
      <path id="Path_105" data-name="Path 105" d="M19.3,61.314,14.177,73.862l-.885-12.548H9.661L4.144,73.931,3.492,61.314H0L1.513,77.586l3.818-.023,5.214-11.569,1,11.569h3.841l7.425-16.248Z" transform="translate(0 -20.556)" fill="#161615"/>
      <g id="Group_997" data-name="Group 997">
        <g id="Group_996" data-name="Group 996" clip-path="url(#clip-path)">
          <path id="Path_106" data-name="Path 106" d="M38.346,76.735a6.134,6.134,0,0,1-2.432-2.42,7.174,7.174,0,0,1-.861-3.55A10.152,10.152,0,0,1,36.3,65.736a9.061,9.061,0,0,1,3.445-3.5,9.717,9.717,0,0,1,4.947-1.268,7.464,7.464,0,0,1,3.643.86,6.07,6.07,0,0,1,2.432,2.41,7.131,7.131,0,0,1,.861,3.526,10.323,10.323,0,0,1-1.233,5.075,8.952,8.952,0,0,1-3.445,3.5,9.824,9.824,0,0,1-4.982,1.269,7.326,7.326,0,0,1-3.62-.873m7.17-3.014a5.9,5.9,0,0,0,2.071-2.386,7.346,7.346,0,0,0,.734-3.271,4.106,4.106,0,0,0-1.072-3,4.008,4.008,0,0,0-3-1.095,5.427,5.427,0,0,0-3.061.885,5.926,5.926,0,0,0-2.071,2.374,7.285,7.285,0,0,0-.733,3.259A4.176,4.176,0,0,0,39.44,73.5,3.946,3.946,0,0,0,42.432,74.6a5.468,5.468,0,0,0,3.084-.884" transform="translate(-11.752 -20.439)" fill="#161615"/>
          <path id="Path_107" data-name="Path 107" d="M75.087,62.443a3.742,3.742,0,0,1,1.28,2.945,6.2,6.2,0,0,1-.069.908,5.771,5.771,0,0,1-1.433,2.875,6.1,6.1,0,0,1-3.084,1.8l2.723,6.588H70.711L68.29,71.231H66.73l-1.117,6.332H62.331l2.886-16.248h6.1a5.547,5.547,0,0,1,3.77,1.129m-2.095,3.364a1.727,1.727,0,0,0-.559-1.373,2.52,2.52,0,0,0-1.7-.489H68.011l-.862,4.865h2.724a3.142,3.142,0,0,0,2.083-.652,2.933,2.933,0,0,0,.99-1.792q.047-.419.047-.558" transform="translate(-20.896 -20.556)" fill="#161615"/>
          <path id="Path_108" data-name="Path 108" d="M89.341,75.072H94.7l-.442,2.491H85.617L88.5,61.315h3.259Z" transform="translate(-28.703 -20.556)" fill="#161615"/>
          <path id="Path_109" data-name="Path 109" d="M115,62.095a5.725,5.725,0,0,1,2.514,2.223,6.489,6.489,0,0,1,.873,3.422,9.023,9.023,0,0,1-.163,1.722,9.655,9.655,0,0,1-1.8,4.271,9.324,9.324,0,0,1-3.5,2.829,10.867,10.867,0,0,1-4.7,1h-5.68l2.887-16.248h5.68a9.005,9.005,0,0,1,3.9.78m-2.211,11.371a6.741,6.741,0,0,0,2.107-4,9.1,9.1,0,0,0,.116-1.327,3.924,3.924,0,0,0-1.153-3.026,4.768,4.768,0,0,0-3.363-1.071H108.21L106.3,74.909h2.281a6.13,6.13,0,0,0,4.2-1.443" transform="translate(-34.373 -20.556)" fill="#161615"/>
          <path id="Path_110" data-name="Path 110" d="M133.129,61.314h3.421l-3.538,5.866h-2.257Z" transform="translate(-43.836 -20.556)" fill="#161615"/>
          <path id="Path_111" data-name="Path 111" d="M141.4,76.5a3.582,3.582,0,0,1-1.571-3.108,5.839,5.839,0,0,1,.047-.628H143.2a1.914,1.914,0,0,0,.523,1.606,2.418,2.418,0,0,0,1.8.628,3.125,3.125,0,0,0,1.874-.5,1.666,1.666,0,0,0,.686-1.431,1.609,1.609,0,0,0-.709-1.373,11.635,11.635,0,0,0-2.224-1.141,22.412,22.412,0,0,1-2.269-1.071,4.51,4.51,0,0,1-1.489-1.361,3.725,3.725,0,0,1-.617-2.2,4.481,4.481,0,0,1,.779-2.63A5.052,5.052,0,0,1,143.7,61.57a7.6,7.6,0,0,1,3.108-.6,7.254,7.254,0,0,1,2.991.57,4.156,4.156,0,0,1,1.909,1.618,4.062,4.062,0,0,1,.546,2.444h-3.469l.023-.256a1.578,1.578,0,0,0-.57-1.257,2.375,2.375,0,0,0-1.595-.489,2.85,2.85,0,0,0-1.768.512,1.656,1.656,0,0,0-.675,1.4,1.471,1.471,0,0,0,.384,1.013,3.629,3.629,0,0,0,.943.745q.558.314,1.606.8a20.132,20.132,0,0,1,2.257,1.14,5.042,5.042,0,0,1,1.514,1.421,3.634,3.634,0,0,1,.629,2.164,4.268,4.268,0,0,1-.757,2.491,4.987,4.987,0,0,1-2.141,1.711,7.863,7.863,0,0,1-3.224.617A6.822,6.822,0,0,1,141.4,76.5" transform="translate(-46.876 -20.439)" fill="#161615"/>
          <path id="Path_112" data-name="Path 112" d="M208.545,74.371h5.1l-.421,2.372H205l2.749-15.471h3.1Z" transform="translate(-68.726 -20.541)" fill="#161615"/>
          <path id="Path_113" data-name="Path 113" d="M230.643,73.784h-6.185l-1.53,2.948h-3.258l8.312-15.493H231.6l2.815,15.493h-3.281Zm-.4-2.416-1.108-6.561-3.413,6.561Z" transform="translate(-73.645 -20.53)" fill="#161615"/>
          <path id="Path_114" data-name="Path 114" d="M257.927,62.347a3.56,3.56,0,0,1,1.219,2.8,5.791,5.791,0,0,1-.066.865,5.5,5.5,0,0,1-1.363,2.737,5.824,5.824,0,0,1-2.938,1.718l2.594,6.273h-3.614l-2.3-6.029h-1.486l-1.064,6.029H245.78l2.748-15.472h5.808a5.28,5.28,0,0,1,3.591,1.076m-2,3.2a1.644,1.644,0,0,0-.532-1.308,2.4,2.4,0,0,0-1.617-.465h-2.593l-.82,4.633h2.593a2.992,2.992,0,0,0,1.984-.621,2.79,2.79,0,0,0,.943-1.706c.03-.267.044-.443.044-.532" transform="translate(-82.398 -20.541)" fill="#161615"/>
          <path id="Path_115" data-name="Path 115" d="M270.6,64.794a9.506,9.506,0,0,1,3.325-2.815,9.072,9.072,0,0,1,4.189-1.009,6.981,6.981,0,0,1,4.312,1.275,5.282,5.282,0,0,1,2.05,3.58h-3.568a2.8,2.8,0,0,0-1.2-1.486,3.97,3.97,0,0,0-2.084-.509,5.378,5.378,0,0,0-2.549.62,5.513,5.513,0,0,0-1.972,1.774,6.635,6.635,0,0,0-1.064,2.66,5.987,5.987,0,0,0-.111,1.219,3.757,3.757,0,0,0,1.075,2.848,4.1,4.1,0,0,0,2.959,1.031,5.105,5.105,0,0,0,3.07-.953A5.64,5.64,0,0,0,281,70.391h-5.32l.4-2.349h8.379l-.488,2.7a9.037,9.037,0,0,1-1.862,2.993,9.681,9.681,0,0,1-3.015,2.2,8.62,8.62,0,0,1-3.746.832,7.265,7.265,0,0,1-3.469-.8,5.789,5.789,0,0,1-2.327-2.228,6.479,6.479,0,0,1-.831-3.314,9.48,9.48,0,0,1,1.884-5.641" transform="translate(-90.089 -20.44)" fill="#161615"/>
          <path id="Path_116" data-name="Path 116" d="M299.792,63.676l-.709,4.012h5.209l-.421,2.394h-5.209l-.732,4.189H303.8l-.443,2.461h-9l2.749-15.494h8.977l-.421,2.438Z" transform="translate(-98.685 -20.53)" fill="#161615"/>
          <path id="Path_117" data-name="Path 117" d="M315.231,75.733a3.409,3.409,0,0,1-1.5-2.959q0-.2.044-.6h3.17a1.826,1.826,0,0,0,.5,1.53,2.3,2.3,0,0,0,1.718.6,2.977,2.977,0,0,0,1.784-.477,1.588,1.588,0,0,0,.654-1.363,1.535,1.535,0,0,0-.677-1.308,11.108,11.108,0,0,0-2.117-1.086,21.267,21.267,0,0,1-2.161-1.02,4.3,4.3,0,0,1-1.419-1.3,3.538,3.538,0,0,1-.588-2.095,4.264,4.264,0,0,1,.743-2.5,4.8,4.8,0,0,1,2.039-1.641,7.218,7.218,0,0,1,2.959-.576,6.9,6.9,0,0,1,2.848.544,3.952,3.952,0,0,1,1.817,1.54,3.862,3.862,0,0,1,.522,2.327h-3.3l.022-.243a1.5,1.5,0,0,0-.542-1.2,2.264,2.264,0,0,0-1.518-.465,2.715,2.715,0,0,0-1.685.487,1.579,1.579,0,0,0-.643,1.33,1.4,1.4,0,0,0,.366.964,3.483,3.483,0,0,0,.9.71q.531.3,1.53.764a19.15,19.15,0,0,1,2.15,1.086,4.825,4.825,0,0,1,1.441,1.351,3.467,3.467,0,0,1,.6,2.062,4.072,4.072,0,0,1-.72,2.372,4.764,4.764,0,0,1-2.039,1.629,7.476,7.476,0,0,1-3.07.588,6.487,6.487,0,0,1-3.824-1.053" transform="translate(-105.18 -20.429)" fill="#161615"/>
          <path id="Path_118" data-name="Path 118" d="M348.068,61.271l-.443,2.438h-4.1l-2.305,13.033h-3.126L340.4,63.71h-4.123l.443-2.438Z" transform="translate(-112.737 -20.541)" fill="#161615"/>
          <path id="Path_119" data-name="Path 119" d="M213.108,92.867l-.274,1.508H210.3l-1.426,8.061h-1.932l1.425-8.061h-2.55l.274-1.508Z" transform="translate(-68.999 -31.134)" fill="#d9000d"/>
          <path id="Path_120" data-name="Path 120" d="M224.34,93.532a2.2,2.2,0,0,1,.755,1.734,3.624,3.624,0,0,1-.041.535,3.393,3.393,0,0,1-.844,1.692,3.594,3.594,0,0,1-1.817,1.063l1.6,3.88h-2.234l-1.427-3.729h-.919l-.657,3.729h-1.933l1.7-9.569h3.592a3.263,3.263,0,0,1,2.22.665m-1.233,1.981a1.018,1.018,0,0,0-.329-.809,1.486,1.486,0,0,0-1-.288h-1.6l-.507,2.865h1.6A1.852,1.852,0,0,0,222.5,96.9a1.729,1.729,0,0,0,.582-1.056c.018-.164.028-.274.028-.328" transform="translate(-72.692 -31.134)" fill="#d9000d"/>
          <path id="Path_121" data-name="Path 121" d="M236.442,100.605h-3.826l-.946,1.823h-2.015l5.141-9.584h2.235l1.741,9.584h-2.029Zm-.247-1.494-.685-4.058L233.4,99.111Z" transform="translate(-76.992 -31.126)" fill="#d9000d"/>
          <path id="Path_122" data-name="Path 122" d="M253.147,93.326a3.372,3.372,0,0,1,1.48,1.31,3.823,3.823,0,0,1,.514,2.016,5.306,5.306,0,0,1-.1,1.014,5.7,5.7,0,0,1-1.062,2.516,5.5,5.5,0,0,1-2.064,1.666,6.4,6.4,0,0,1-2.769.59H245.8l1.7-9.57h3.345a5.3,5.3,0,0,1,2.3.459m-1.3,6.7a3.968,3.968,0,0,0,1.241-2.359,5.3,5.3,0,0,0,.068-.781,2.312,2.312,0,0,0-.679-1.782,2.812,2.812,0,0,0-1.981-.631H249.15l-1.123,6.4h1.343a3.607,3.607,0,0,0,2.475-.85" transform="translate(-82.406 -31.134)" fill="#d9000d"/>
          <path id="Path_123" data-name="Path 123" d="M264.446,94.354l-.439,2.481h3.222l-.261,1.481h-3.222l-.452,2.591h3.633l-.274,1.522h-5.567l1.7-9.584h5.552l-.26,1.509Z" transform="translate(-87.529 -31.126)" fill="#d9000d"/>
          <path id="Path_124" data-name="Path 124" d="M280.017,101.812a2.109,2.109,0,0,1-.926-1.831c0-.082.009-.205.027-.37h1.961a1.126,1.126,0,0,0,.309.946,1.421,1.421,0,0,0,1.062.37,1.841,1.841,0,0,0,1.1-.294.977.977,0,0,0,.4-.843.949.949,0,0,0-.418-.81,6.886,6.886,0,0,0-1.31-.671,13.133,13.133,0,0,1-1.337-.631,2.653,2.653,0,0,1-.877-.8,2.188,2.188,0,0,1-.364-1.3,2.642,2.642,0,0,1,.459-1.55,2.967,2.967,0,0,1,1.261-1.014,4.473,4.473,0,0,1,1.831-.357,4.267,4.267,0,0,1,1.762.336,2.453,2.453,0,0,1,1.125.953,2.387,2.387,0,0,1,.322,1.439H284.37l.013-.151a.931.931,0,0,0-.336-.741,1.4,1.4,0,0,0-.939-.288,1.679,1.679,0,0,0-1.042.3.977.977,0,0,0-.4.823.868.868,0,0,0,.227.6,2.142,2.142,0,0,0,.555.439q.329.184.947.473a11.887,11.887,0,0,1,1.329.672,2.994,2.994,0,0,1,.891.836,2.145,2.145,0,0,1,.37,1.275,2.521,2.521,0,0,1-.445,1.467,2.959,2.959,0,0,1-1.262,1.008,4.633,4.633,0,0,1-1.9.363,4.014,4.014,0,0,1-2.365-.651" transform="translate(-93.565 -31.064)" fill="#d9000d"/>
          <path id="Path_125" data-name="Path 125" d="M301.291,92.867l-1.686,9.57h-1.932l.726-4.1h-4.086l-.727,4.1h-1.933l1.7-9.57h1.919l-.7,3.962h4.1l.7-3.962Z" transform="translate(-97.777 -31.134)" fill="#d9000d"/>
          <path id="Path_126" data-name="Path 126" d="M309.493,101.949a3.62,3.62,0,0,1-1.433-1.427,4.223,4.223,0,0,1-.507-2.09,5.975,5.975,0,0,1,.734-2.961,5.334,5.334,0,0,1,2.029-2.064,5.73,5.73,0,0,1,2.914-.747,4.39,4.39,0,0,1,2.145.508,3.56,3.56,0,0,1,1.433,1.419,4.2,4.2,0,0,1,.508,2.077,6.072,6.072,0,0,1-.727,2.989,5.272,5.272,0,0,1-2.028,2.063,5.8,5.8,0,0,1-2.935.747,4.315,4.315,0,0,1-2.132-.514m4.223-1.776a3.48,3.48,0,0,0,1.22-1.405,4.323,4.323,0,0,0,.432-1.926,2.421,2.421,0,0,0-.631-1.769,2.364,2.364,0,0,0-1.768-.644,3.191,3.191,0,0,0-1.8.521,3.487,3.487,0,0,0-1.22,1.4,4.286,4.286,0,0,0-.431,1.919,2.458,2.458,0,0,0,.624,1.776,2.324,2.324,0,0,0,1.762.651,3.222,3.222,0,0,0,1.816-.521" transform="translate(-103.107 -31.064)" fill="#d9000d"/>
          <path id="Path_127" data-name="Path 127" d="M338.644,92.867l-4.373,9.57h-2.261l-.59-6.814-3.07,6.814-2.249.013-.891-9.583h2.057l.384,7.431,3.249-7.431h2.138l.522,7.389,3.016-7.389Z" transform="translate(-109.026 -31.134)" fill="#d9000d"/>
          <path id="Path_128" data-name="Path 128" d="M175.12.131A21.866,21.866,0,0,1,182.089.4a8.638,8.638,0,0,1,4.074,2.619,10.4,10.4,0,0,1,2.9,7.043,14.386,14.386,0,0,1-.906,4.605q-.907,2.618-1.991,5.145a88.335,88.335,0,0,1-8.146,10.568q-5.43,6.228-12.581,13.272T149.956,57.831q-8.328,7.137-16.654,13.456A23.28,23.28,0,0,0,131.129,73a7.771,7.771,0,0,1-1.629,1.171,3.564,3.564,0,0,1-1.267.9l.18.543,5.431-.905q2.716-.365,7.423-.543t9.775-.181q4.163,0,8.509.09a59.313,59.313,0,0,1,6.88.453,83.375,83.375,0,0,1,11.948,2.353q5.065,1.447,5.612,2.535a.959.959,0,0,1-.271,1.267,1.879,1.879,0,0,1-1.177.542q-1.087-.907-5.884-1.629a73.954,73.954,0,0,0-10.952-.725q-2.537,0-5.069.091t-5.069.271q-7.061.543-14.664,1.811t-14.573,3.077q-6.97,1.807-12.943,3.892a55.688,55.688,0,0,0-9.957,4.435,4.7,4.7,0,0,1-3.077.724,8.094,8.094,0,0,1-2.715-.724,7.038,7.038,0,0,1-1.629-2.534,2.652,2.652,0,0,1,0-2.353,6.28,6.28,0,0,1,.543-1.63,3.607,3.607,0,0,1,1.358-1.357,27.731,27.731,0,0,1,2.9-1.539q1.9-.907,4.978-2.353a77.652,77.652,0,0,0,11.5-7.06q7.149-5.065,15.569-11.948t17.379-15.025q8.961-8.147,16.927-16.112Q182.9,14.8,184.715,9q.721-2.172-.362-2.9T179.1,5.019A35.88,35.88,0,0,0,169.236,6.2a70.76,70.76,0,0,0-11.5,3.98A92.158,92.158,0,0,0,145.612,16.7a108.986,108.986,0,0,0-11.767,8.6q-3.258,2.9-4.887,4.526t.181.9q.36-.361,3.168-.543t6.065-.543q8.324-.722,9.051,0,.543.542,0,1.448h.181q-3.623,1.086-6.154,1.9t-5.522,1.72q-2.986.907-5.7,1.629a10.991,10.991,0,0,1-5.431.362q-1.811-.543-2.535-3.258a4.568,4.568,0,0,1,1.448-4.707,29.276,29.276,0,0,1,3.259-3.077q2.534-2.173,5.069-4.345a141.974,141.974,0,0,1,11.585-8.418,113.486,113.486,0,0,1,11.586-6.667,72.768,72.768,0,0,1,10.681-4.347A36.826,36.826,0,0,1,175.12.131" transform="translate(-32.096 0)" fill="#161615"/>
          <path id="Path_129" data-name="Path 129" d="M248.915,20.589q.407-.344.546-.328c.1.011.1.078.016.2-.021.021-.12.14-.3.36s-.4.49-.656.812-.552.672-.875,1.048-.636.734-.937,1.078-.584.646-.844.906a2.817,2.817,0,0,1-.578.485q-.782.375-1.782-.813a1.964,1.964,0,0,1-.125-1.563,8.689,8.689,0,0,1,1-2.563q-.408.344-1.094,1T241.9,22.605q-.7.735-1.312,1.391a6.557,6.557,0,0,0-.828,1.032l-.251.437a.567.567,0,0,1-.328-.124,2,2,0,0,1-.313-.282,2.738,2.738,0,0,1-.235-.3.58.58,0,0,1-.093-.172,2.166,2.166,0,0,1,.187-.578c.124-.3.287-.656.484-1.063s.422-.849.672-1.328.495-.927.735-1.344.457-.786.656-1.11a3.978,3.978,0,0,1,.484-.671.286.286,0,0,1,.329-.047.952.952,0,0,1,.375.281,2.338,2.338,0,0,1,.3.453,1.013,1.013,0,0,1,.126.437,1.09,1.09,0,0,1-.157.328q-.157.266-.375.578l-1.094,1.751.626-.563a9.679,9.679,0,0,0,.891-.751q.578-.53,1.157-1.109t1.094-1.047a2.479,2.479,0,0,1,.735-.531q.157-.031.532.249a1.215,1.215,0,0,1,.469.594,1.087,1.087,0,0,1-.031.453,2.934,2.934,0,0,1-.5.735,10.663,10.663,0,0,0-.547.937q-.3.563-.563,1.125t-.469,1.016a3.218,3.218,0,0,0-.235.641q-.031.439.548.063a10.68,10.68,0,0,0,1.343-1.079q.766-.7,1.516-1.438a11.848,11.848,0,0,1,1.094-.984" transform="translate(-79.97 -6.126)" fill="#161615"/>
          <path id="Path_130" data-name="Path 130" d="M265.126,6.569a.487.487,0,0,1,.328.172,1.946,1.946,0,0,1,.312.422,1.623,1.623,0,0,1,.187.5.57.57,0,0,1-.047.406q-.5.75-1.235,1.719t-1.516,2.063q-.782,1.094-1.548,2.235a22.056,22.056,0,0,0-1.3,2.172q-.25.469-.562,1.125t-.594,1.266q-.282.609-.453,1.047c-.115.292-.162.449-.141.469s.135-.032.344-.156a8.652,8.652,0,0,0,.781-.548l1.063-.812q.594-.453,1.157-.922.813-.687,1.173-.953t.422-.2a.21.21,0,0,1,0,.156,1.078,1.078,0,0,1-.187.281q-.158.188-.485.532t-.86.875q-.531.5-1.063,1t-1,.906c-.312.272-.589.5-.829.689a3.674,3.674,0,0,1-.546.374.47.47,0,0,1-.234.126,1.3,1.3,0,0,1-.36-.126,1.355,1.355,0,0,1-.641-1.234,7.827,7.827,0,0,1,.422-2.3L258,17.2q-.813.751-1.594,1.438T255,19.869q-.626.547-1.047.907a4.1,4.1,0,0,1-.548.422c-.124.083-.276.047-.453-.11a2.35,2.35,0,0,1-.485-.626,4.408,4.408,0,0,1-.36-.844,1.421,1.421,0,0,1-.047-.8,3.22,3.22,0,0,1,.547-1.235,10.218,10.218,0,0,1,1.094-1.344,11.91,11.91,0,0,1,1.421-1.266,10.943,10.943,0,0,1,1.563-1,10.01,10.01,0,0,1,.937-.39,1.527,1.527,0,0,1,.594-.047.587.587,0,0,1,.438.2,3.358,3.358,0,0,0,.344.391,2.067,2.067,0,0,1,.25.3c.063.094.094.13.094.11a3.428,3.428,0,0,1,.219-.376c.063-.1.13-.208.2-.312s.14-.208.2-.312q.53-.844,1.313-2.031t1.562-2.3q.782-1.11,1.407-1.876t.875-.766m-6.064,8.752q.156-.281-.062-.344a1.393,1.393,0,0,0-.375-.062,1.24,1.24,0,0,0-.376.125q-.281.126-.61.312t-.671.406q-.344.219-.626.438a7.276,7.276,0,0,0-1.109.938,10.846,10.846,0,0,0-.891,1.031,6.574,6.574,0,0,0-.578.891,1.669,1.669,0,0,0-.2.485c0,.041.135-.005.406-.141a9.809,9.809,0,0,0,.937-.548q.281-.186.8-.578t1.063-.828q.546-.438,1-.8t.61-.516a1.852,1.852,0,0,1,.328-.391,2.477,2.477,0,0,0,.359-.422" transform="translate(-84.491 -2.202)" fill="#161615"/>
          <rect id="Rectangle_6937" data-name="Rectangle 6937" width="0.635" height="55.844" transform="translate(242.336 19.333)" fill="#040506"/>
          <rect id="Rectangle_6938" data-name="Rectangle 6938" width="1.753" height="7.525" transform="translate(250.243 26.432)" fill="#171716"/>
          <path id="Path_131" data-name="Path 131" d="M382.14,47.287V39.762h1.441l4.441,5.418h-.7V39.762h1.72v7.525H387.6l-4.44-5.418h.7v5.418Z" transform="translate(-128.112 -13.33)" fill="#171716"/>
          <path id="Path_132" data-name="Path 132" d="M395.595,47.287V39.762h1.44l4.441,5.418h-.7V39.762h1.72v7.525h-1.441l-4.44-5.418h.7v5.418Z" transform="translate(-132.623 -13.33)" fill="#171716"/>
          <path id="Path_133" data-name="Path 133" d="M410.78,45.889h4.1v1.4h-5.827V39.762h5.687v1.4H410.78Zm-.129-3.106h3.623v1.365h-3.623Z" transform="translate(-137.134 -13.33)" fill="#171716"/>
          <path id="Path_134" data-name="Path 134" d="M420.288,47.287V39.762h3.257a4.244,4.244,0,0,1,1.742.328,2.561,2.561,0,0,1,1.129.941,2.858,2.858,0,0,1,0,2.908,2.508,2.508,0,0,1-1.129.925,4.361,4.361,0,0,1-1.742.317h-2.3l.8-.753v2.86Zm1.753-2.666-.8-.828h2.2a1.831,1.831,0,0,0,1.2-.344,1.2,1.2,0,0,0,.408-.968,1.181,1.181,0,0,0-.408-.962,1.85,1.85,0,0,0-1.2-.339h-2.2l.8-.828Zm3.042,2.666-1.892-2.73h1.871l1.892,2.73Z" transform="translate(-140.902 -13.33)" fill="#171716"/>
          <path id="Path_135" data-name="Path 135" d="M434.065,47.287l-2.473-7.525H433.4l2.14,6.665h-.9l2.236-6.665h1.612l2.15,6.665h-.871l2.193-6.665h1.667l-2.473,7.525H439.3l-1.914-5.848h.495l-1.956,5.848Z" transform="translate(-144.692 -13.33)" fill="#171716"/>
          <path id="Path_136" data-name="Path 136" d="M453.506,45.889h4.1v1.4h-5.827V39.762h5.688v1.4h-3.956Zm-.129-3.106H457v1.365h-3.623Z" transform="translate(-151.457 -13.33)" fill="#171716"/>
          <path id="Path_137" data-name="Path 137" d="M461.526,47.287l3.343-7.526h1.72l3.375,7.526h-1.827l-2.763-6.644h.7l-2.763,6.644Zm1.688-1.613.441-1.322h3.892L468,45.674Z" transform="translate(-154.727 -13.33)" fill="#171716"/>
          <path id="Path_138" data-name="Path 138" d="M475.789,47.287V39.762h3.257a4.245,4.245,0,0,1,1.742.328,2.561,2.561,0,0,1,1.129.941,2.858,2.858,0,0,1,0,2.908,2.509,2.509,0,0,1-1.129.925,4.362,4.362,0,0,1-1.742.317h-2.3l.8-.753v2.86Zm1.753-2.666-.8-.828h2.2a1.83,1.83,0,0,0,1.2-.344,1.2,1.2,0,0,0,.408-.968,1.181,1.181,0,0,0-.408-.962,1.849,1.849,0,0,0-1.2-.339h-2.2l.8-.828Zm3.042,2.666-1.892-2.73h1.871l1.892,2.73Z" transform="translate(-159.508 -13.33)" fill="#171716"/>
          <path id="Path_139" data-name="Path 139" d="M379.81,73.036a4.514,4.514,0,0,1-1.618-.285,3.749,3.749,0,0,1-2.15-2.048,4.117,4.117,0,0,1,0-3.117,3.73,3.73,0,0,1,.86-1.237,3.872,3.872,0,0,1,1.3-.811,4.774,4.774,0,0,1,3.392.054,3.444,3.444,0,0,1,1.332.994L381.8,67.618a2.548,2.548,0,0,0-.855-.667,2.392,2.392,0,0,0-1.037-.226,2.58,2.58,0,0,0-.968.177,2.234,2.234,0,0,0-1.263,1.264,2.785,2.785,0,0,0,0,1.956,2.234,2.234,0,0,0,1.263,1.264,2.58,2.58,0,0,0,.968.177,2.349,2.349,0,0,0,1.037-.231,2.626,2.626,0,0,0,.855-.672l1.128,1.032a3.482,3.482,0,0,1-1.332,1,4.454,4.454,0,0,1-1.785.344" transform="translate(-125.966 -21.876)" fill="#171716"/>
          <path id="Path_140" data-name="Path 140" d="M392.09,73.036a4.535,4.535,0,0,1-1.645-.29,3.979,3.979,0,0,1-1.312-.817,3.693,3.693,0,0,1-.865-1.236,4.078,4.078,0,0,1,0-3.1,3.7,3.7,0,0,1,.865-1.23,4,4,0,0,1,1.306-.818,4.49,4.49,0,0,1,1.639-.29,4.564,4.564,0,0,1,1.64.285,3.938,3.938,0,0,1,1.306.811,3.705,3.705,0,0,1,.865,1.237,4.1,4.1,0,0,1,0,3.112,3.678,3.678,0,0,1-.865,1.242,3.918,3.918,0,0,1-1.306.812,4.55,4.55,0,0,1-1.629.285m-.011-1.473a2.388,2.388,0,0,0,.93-.177,2.251,2.251,0,0,0,.747-.505,2.318,2.318,0,0,0,.5-.763,2.757,2.757,0,0,0,0-1.946,2.328,2.328,0,0,0-.5-.762,2.263,2.263,0,0,0-.747-.506,2.4,2.4,0,0,0-.93-.177,2.433,2.433,0,0,0-.935.177,2.178,2.178,0,0,0-.747.506,2.358,2.358,0,0,0-.495.762,2.757,2.757,0,0,0,0,1.946,2.347,2.347,0,0,0,.495.763,2.167,2.167,0,0,0,.747.505,2.42,2.42,0,0,0,.935.177" transform="translate(-130.064 -21.876)" fill="#171716"/>
          <path id="Path_141" data-name="Path 141" d="M402.71,72.971V65.446h1.44l3.2,5.311h-.762l3.139-5.311h1.451v7.525h-1.623l-.021-5.02h.322l-2.537,4.214h-.774l-2.569-4.214h.354v5.02Z" transform="translate(-135.009 -21.941)" fill="#171716"/>
          <path id="Path_142" data-name="Path 142" d="M420.279,72.971h-1.753V65.446h5.688v1.4h-3.935Zm-.14-4.139h3.613v1.4h-3.613Z" transform="translate(-140.311 -21.941)" fill="#171716"/>
          <path id="Path_143" data-name="Path 143" d="M432.665,73.036a4.537,4.537,0,0,1-1.645-.29,3.986,3.986,0,0,1-1.312-.817,3.7,3.7,0,0,1-.864-1.236,4.078,4.078,0,0,1,0-3.1,3.7,3.7,0,0,1,.864-1.23,4.009,4.009,0,0,1,1.306-.818,4.492,4.492,0,0,1,1.639-.29,4.567,4.567,0,0,1,1.641.285,3.938,3.938,0,0,1,1.306.811,3.715,3.715,0,0,1,.865,1.237,4.111,4.111,0,0,1,0,3.112,3.687,3.687,0,0,1-.865,1.242,3.918,3.918,0,0,1-1.306.812,4.553,4.553,0,0,1-1.629.285m-.011-1.473a2.388,2.388,0,0,0,.93-.177,2.247,2.247,0,0,0,.748-.505,2.325,2.325,0,0,0,.5-.763,2.757,2.757,0,0,0,0-1.946,2.336,2.336,0,0,0-.5-.762,2.259,2.259,0,0,0-.748-.506,2.4,2.4,0,0,0-.93-.177,2.435,2.435,0,0,0-.935.177,2.169,2.169,0,0,0-.747.506,2.358,2.358,0,0,0-.495.762,2.757,2.757,0,0,0,0,1.946,2.347,2.347,0,0,0,.495.763,2.158,2.158,0,0,0,.747.505,2.423,2.423,0,0,0,.935.177" transform="translate(-143.668 -21.876)" fill="#171716"/>
          <path id="Path_144" data-name="Path 144" d="M443.285,72.971V65.446h3.257a4.245,4.245,0,0,1,1.742.328,2.561,2.561,0,0,1,1.129.941,2.858,2.858,0,0,1,0,2.908,2.513,2.513,0,0,1-1.129.925,4.362,4.362,0,0,1-1.742.316h-2.3l.8-.752v2.86Zm1.753-2.666-.8-.828h2.2a1.83,1.83,0,0,0,1.2-.344,1.2,1.2,0,0,0,.408-.968,1.18,1.18,0,0,0-.408-.962,1.849,1.849,0,0,0-1.2-.339h-2.2l.8-.828Zm3.042,2.666-1.892-2.73h1.871l1.892,2.73Z" transform="translate(-148.612 -21.941)" fill="#171716"/>
          <path id="Path_145" data-name="Path 145" d="M456.706,72.971V66.865H454.3V65.446h6.558v1.419h-2.408v6.106Z" transform="translate(-152.304 -21.941)" fill="#171716"/>
          <path id="Path_146" data-name="Path 146" d="M467.443,72.971l-2.473-7.525h1.806l2.14,6.665h-.9l2.236-6.665h1.612l2.15,6.665h-.871l2.193-6.665H477l-2.473,7.525h-1.849l-1.914-5.848h.495L469.3,72.971Z" transform="translate(-155.882 -21.941)" fill="#171716"/>
          <path id="Path_147" data-name="Path 147" d="M486.885,71.574h4.1v1.4h-5.827V65.446h5.688v1.4h-3.956Zm-.13-3.107h3.623v1.366h-3.623Z" transform="translate(-162.648 -21.941)" fill="#171716"/>
          <path id="Path_148" data-name="Path 148" d="M494.905,72.972l3.343-7.526h1.72l3.375,7.526h-1.827l-2.763-6.644h.7l-2.763,6.644Zm1.688-1.613.441-1.322h3.892l.451,1.322Z" transform="translate(-165.917 -21.941)" fill="#171716"/>
          <path id="Path_149" data-name="Path 149" d="M509.168,72.971V65.446h3.257a4.245,4.245,0,0,1,1.742.328,2.561,2.561,0,0,1,1.129.941,2.858,2.858,0,0,1,0,2.908,2.513,2.513,0,0,1-1.129.925,4.362,4.362,0,0,1-1.742.316h-2.3l.8-.752v2.86Zm1.753-2.666-.8-.828h2.2a1.83,1.83,0,0,0,1.2-.344,1.2,1.2,0,0,0,.408-.968,1.18,1.18,0,0,0-.408-.962,1.849,1.849,0,0,0-1.2-.339h-2.2l.8-.828Zm3.042,2.666-1.892-2.73h1.871l1.892,2.73Z" transform="translate(-170.699 -21.941)" fill="#171716"/>
          <path id="Path_150" data-name="Path 150" d="M378.633,98.72a6.187,6.187,0,0,1-1.736-.242,4.025,4.025,0,0,1-1.338-.63l.591-1.311a4.1,4.1,0,0,0,1.14.564,4.23,4.23,0,0,0,1.343.221,2.63,2.63,0,0,0,.833-.108,1.03,1.03,0,0,0,.468-.285.622.622,0,0,0,.15-.413.568.568,0,0,0-.237-.479,1.95,1.95,0,0,0-.629-.29q-.393-.113-.854-.215t-.931-.247a3.75,3.75,0,0,1-.859-.387,1.819,1.819,0,0,1-.624-.634,1.913,1.913,0,0,1-.231-.984,2.124,2.124,0,0,1,.344-1.177,2.35,2.35,0,0,1,1.048-.849,4.3,4.3,0,0,1,1.768-.318,5.821,5.821,0,0,1,1.4.172,4.173,4.173,0,0,1,1.21.495l-.548,1.312a4.4,4.4,0,0,0-1.043-.435,3.97,3.97,0,0,0-1.032-.145,2.5,2.5,0,0,0-.828.112.964.964,0,0,0-.457.306.7.7,0,0,0-.145.43.579.579,0,0,0,.237.484,1.72,1.72,0,0,0,.623.285c.259.068.544.136.86.2a9.387,9.387,0,0,1,.935.253,4.168,4.168,0,0,1,.85.382,1.751,1.751,0,0,1,.871,1.6,2.058,2.058,0,0,1-.35,1.161,2.437,2.437,0,0,1-1.059.85,4.292,4.292,0,0,1-1.774.322" transform="translate(-125.906 -30.486)" fill="#171716"/>
          <path id="Path_151" data-name="Path 151" d="M387.136,98.656V91.13h3.258a4.233,4.233,0,0,1,1.742.328,2.553,2.553,0,0,1,1.129.941,2.611,2.611,0,0,1-1.129,3.849,4.178,4.178,0,0,1-1.742.333h-2.3l.8-.785v2.86Zm1.753-2.666-.8-.828h2.2a1.825,1.825,0,0,0,1.2-.344,1.2,1.2,0,0,0,.408-.967,1.18,1.18,0,0,0-.408-.962,1.848,1.848,0,0,0-1.2-.339h-2.2l.8-.828Z" transform="translate(-129.788 -30.551)" fill="#171716"/>
          <path id="Path_152" data-name="Path 152" d="M402.763,98.72a4.535,4.535,0,0,1-1.645-.29,3.979,3.979,0,0,1-1.312-.817,3.693,3.693,0,0,1-.865-1.236,4.078,4.078,0,0,1,0-3.1,3.7,3.7,0,0,1,.865-1.23,4,4,0,0,1,1.306-.818,4.49,4.49,0,0,1,1.639-.29,4.564,4.564,0,0,1,1.64.285,3.938,3.938,0,0,1,1.306.811,3.705,3.705,0,0,1,.865,1.237,4.1,4.1,0,0,1,0,3.112,3.678,3.678,0,0,1-.865,1.242,3.918,3.918,0,0,1-1.306.812,4.549,4.549,0,0,1-1.629.285m-.011-1.473a2.388,2.388,0,0,0,.93-.177,2.251,2.251,0,0,0,.747-.505,2.318,2.318,0,0,0,.5-.763,2.757,2.757,0,0,0,0-1.946,2.329,2.329,0,0,0-.5-.762,2.263,2.263,0,0,0-.747-.506,2.4,2.4,0,0,0-.93-.177,2.433,2.433,0,0,0-.935.177,2.178,2.178,0,0,0-.747.506,2.357,2.357,0,0,0-.495.762,2.757,2.757,0,0,0,0,1.946,2.346,2.346,0,0,0,.495.763,2.167,2.167,0,0,0,.747.505,2.421,2.421,0,0,0,.935.177" transform="translate(-133.643 -30.486)" fill="#171716"/>
          <path id="Path_153" data-name="Path 153" d="M413.383,98.656V91.131h3.257a4.244,4.244,0,0,1,1.742.328,2.561,2.561,0,0,1,1.129.941,2.858,2.858,0,0,1,0,2.908,2.513,2.513,0,0,1-1.129.925,4.362,4.362,0,0,1-1.742.316h-2.3l.8-.752v2.86Zm1.753-2.666-.8-.828h2.2a1.83,1.83,0,0,0,1.2-.344,1.2,1.2,0,0,0,.408-.968,1.18,1.18,0,0,0-.408-.962,1.849,1.849,0,0,0-1.2-.339h-2.2l.8-.828Zm3.042,2.666-1.892-2.73h1.871l1.892,2.73Z" transform="translate(-138.587 -30.552)" fill="#171716"/>
          <path id="Path_154" data-name="Path 154" d="M426.8,98.656V92.55H424.4V91.131h6.558V92.55h-2.408v6.106Z" transform="translate(-142.279 -30.552)" fill="#171716"/>
          <path id="Path_155" data-name="Path 155" d="M438.241,98.72a6.187,6.187,0,0,1-1.736-.242,4.025,4.025,0,0,1-1.338-.63l.591-1.311a4.1,4.1,0,0,0,1.14.564,4.23,4.23,0,0,0,1.343.221,2.63,2.63,0,0,0,.833-.108,1.029,1.029,0,0,0,.468-.285.622.622,0,0,0,.15-.413.568.568,0,0,0-.237-.479,1.951,1.951,0,0,0-.629-.29q-.393-.113-.854-.215t-.931-.247a3.75,3.75,0,0,1-.86-.387,1.819,1.819,0,0,1-.624-.634,1.913,1.913,0,0,1-.231-.984,2.124,2.124,0,0,1,.344-1.177,2.349,2.349,0,0,1,1.048-.849,4.3,4.3,0,0,1,1.768-.318,5.821,5.821,0,0,1,1.4.172,4.172,4.172,0,0,1,1.21.495l-.548,1.312a4.4,4.4,0,0,0-1.043-.435,3.969,3.969,0,0,0-1.032-.145,2.5,2.5,0,0,0-.828.112.964.964,0,0,0-.457.306.7.7,0,0,0-.145.43.579.579,0,0,0,.237.484,1.72,1.72,0,0,0,.623.285c.259.068.544.136.86.2a9.383,9.383,0,0,1,.935.253,4.166,4.166,0,0,1,.85.382,1.751,1.751,0,0,1,.871,1.6,2.058,2.058,0,0,1-.35,1.161,2.436,2.436,0,0,1-1.059.85,4.292,4.292,0,0,1-1.774.322" transform="translate(-145.89 -30.486)" fill="#171716"/>
          <path id="Path_156" data-name="Path 156" d="M448.231,98.656l-2.473-7.525h1.806L449.7,97.8h-.9l2.236-6.665h1.612L454.8,97.8h-.871l2.193-6.665h1.667l-2.473,7.525h-1.849l-1.914-5.848h.495l-1.956,5.848Z" transform="translate(-149.441 -30.552)" fill="#171716"/>
          <path id="Path_157" data-name="Path 157" d="M467.673,97.258h4.1v1.4h-5.827V91.131h5.688v1.4h-3.956Zm-.129-3.106h3.623v1.366h-3.623Z" transform="translate(-156.207 -30.552)" fill="#171716"/>
          <path id="Path_158" data-name="Path 158" d="M475.693,98.656l3.343-7.526h1.72l3.375,7.526H482.3l-2.763-6.644h.7l-2.763,6.644Zm1.688-1.613.441-1.322h3.892l.451,1.322Z" transform="translate(-159.476 -30.551)" fill="#171716"/>
          <path id="Path_159" data-name="Path 159" d="M489.956,98.656V91.131h3.257a4.244,4.244,0,0,1,1.742.328,2.561,2.561,0,0,1,1.129.941,2.858,2.858,0,0,1,0,2.908,2.513,2.513,0,0,1-1.129.925,4.362,4.362,0,0,1-1.742.316h-2.3l.8-.752v2.86Zm1.753-2.666-.8-.828h2.2a1.83,1.83,0,0,0,1.2-.344,1.2,1.2,0,0,0,.408-.968,1.18,1.18,0,0,0-.408-.962,1.849,1.849,0,0,0-1.2-.339h-2.2l.8-.828Zm3.042,2.666-1.892-2.73h1.871l1.892,2.73Z" transform="translate(-164.258 -30.552)" fill="#171716"/>
        </g>
      </g>
    </g>
  </g>
</svg>
