<svg xmlns="http://www.w3.org/2000/svg" xmlns:xlink="http://www.w3.org/1999/xlink" width="103" height="40" viewBox="0 0 103 40">
  <defs>
    <clipPath id="clip-Mlogo">
      <rect width="103" height="40"/>
    </clipPath>
  </defs>
  <g id="Mlogo" clip-path="url(#clip-Mlogo)">
    <g id="Group_999" data-name="Group 999" transform="translate(16709 23151.992)">
      <path id="Path_105" data-name="Path 105" d="M8.282,61.314,6.084,66.7,5.7,61.314H4.146L1.779,66.728,1.5,61.314H0L.65,68.3l1.639-.01,2.237-4.965.43,4.965H6.6L9.79,61.314Z" transform="translate(-16708 -23195.814)" fill="#161615"/>
      <path id="Path_106" data-name="Path 106" d="M36.466,67.733a2.632,2.632,0,0,1-1.044-1.039,3.079,3.079,0,0,1-.369-1.523,4.357,4.357,0,0,1,.534-2.158,3.888,3.888,0,0,1,1.478-1.5,4.17,4.17,0,0,1,2.123-.544,3.2,3.2,0,0,1,1.563.369A2.6,2.6,0,0,1,41.8,62.368a3.06,3.06,0,0,1,.369,1.513,4.43,4.43,0,0,1-.529,2.178,3.842,3.842,0,0,1-1.479,1.5,4.216,4.216,0,0,1-2.138.545,3.144,3.144,0,0,1-1.553-.375m3.077-1.293a2.533,2.533,0,0,0,.889-1.024,3.152,3.152,0,0,0,.315-1.4,1.762,1.762,0,0,0-.46-1.288A1.72,1.72,0,0,0,39,62.253a2.329,2.329,0,0,0-1.314.38,2.543,2.543,0,0,0-.889,1.019,3.127,3.127,0,0,0-.315,1.4,1.792,1.792,0,0,0,.454,1.294,1.693,1.693,0,0,0,1.284.474,2.347,2.347,0,0,0,1.324-.379" transform="translate(-16733.055 -23195.566)" fill="#161615"/>
      <path id="Path_107" data-name="Path 107" d="M67.805,61.8a1.606,1.606,0,0,1,.549,1.264,2.661,2.661,0,0,1-.03.39,2.476,2.476,0,0,1-.615,1.234,2.618,2.618,0,0,1-1.323.774l1.169,2.827H65.927L64.888,65.57h-.669l-.48,2.717H62.331l1.239-6.973h2.617a2.38,2.38,0,0,1,1.618.484m-.9,1.444a.741.741,0,0,0-.24-.589,1.081,1.081,0,0,0-.729-.21H64.768l-.37,2.088h1.169a1.349,1.349,0,0,0,.894-.28,1.259,1.259,0,0,0,.425-.769q.02-.18.02-.24" transform="translate(-16752.549 -23195.814)" fill="#161615"/>
      <path id="Path_108" data-name="Path 108" d="M87.215,67.218h2.3l-.19,1.069H85.617l1.239-6.973h1.4Z" transform="translate(-16769.193 -23195.814)" fill="#161615"/>
      <path id="Path_109" data-name="Path 109" d="M107.879,61.65a2.457,2.457,0,0,1,1.079.954,2.785,2.785,0,0,1,.375,1.469,3.872,3.872,0,0,1-.07.739,4.143,4.143,0,0,1-.774,1.833,4,4,0,0,1-1.5,1.214,4.663,4.663,0,0,1-2.018.43H102.53l1.239-6.973h2.437a3.864,3.864,0,0,1,1.673.335m-.949,4.88a2.893,2.893,0,0,0,.9-1.718,3.906,3.906,0,0,0,.05-.569,1.684,1.684,0,0,0-.495-1.3,2.046,2.046,0,0,0-1.443-.46h-.979l-.819,4.665h.979a2.631,2.631,0,0,0,1.8-.619" transform="translate(-16781.281 -23195.816)" fill="#161615"/>
      <path id="Path_110" data-name="Path 110" d="M131.774,61.314h1.468l-1.518,2.517h-.969Z" transform="translate(-16801.455 -23195.814)" fill="#161615"/>
      <path id="Path_111" data-name="Path 111" d="M140.5,67.633a1.537,1.537,0,0,1-.674-1.334,2.507,2.507,0,0,1,.02-.27h1.428a.822.822,0,0,0,.224.689,1.038,1.038,0,0,0,.775.27,1.341,1.341,0,0,0,.8-.215.715.715,0,0,0,.294-.614.691.691,0,0,0-.3-.589,4.993,4.993,0,0,0-.955-.49,9.618,9.618,0,0,1-.974-.46,1.936,1.936,0,0,1-.639-.584,1.6,1.6,0,0,1-.265-.944,1.923,1.923,0,0,1,.334-1.129,2.168,2.168,0,0,1,.919-.739,3.259,3.259,0,0,1,1.334-.26,3.113,3.113,0,0,1,1.284.244,1.784,1.784,0,0,1,.819.694,1.743,1.743,0,0,1,.234,1.049H143.67l.01-.11a.677.677,0,0,0-.245-.539,1.019,1.019,0,0,0-.684-.21,1.223,1.223,0,0,0-.759.22.711.711,0,0,0-.29.6.631.631,0,0,0,.165.435,1.557,1.557,0,0,0,.4.32q.24.135.689.345a8.641,8.641,0,0,1,.969.489,2.164,2.164,0,0,1,.65.61,1.559,1.559,0,0,1,.27.929,1.832,1.832,0,0,1-.325,1.069,2.14,2.14,0,0,1-.919.734,3.374,3.374,0,0,1-1.384.265,2.928,2.928,0,0,1-1.723-.474" transform="translate(-16807.938 -23195.566)" fill="#161615"/>
      <path id="Path_112" data-name="Path 112" d="M206.521,66.893h2.188l-.181,1.018H205l1.18-6.639h1.332Z" transform="translate(-16854.52 -23195.785)" fill="#161615"/>
      <path id="Path_113" data-name="Path 113" d="M224.38,66.622h-2.654l-.656,1.265h-1.4l3.567-6.649h1.55L226,67.887h-1.408Zm-.171-1.037-.476-2.816-1.465,2.816Z" transform="translate(-16865.004 -23195.76)" fill="#161615"/>
      <path id="Path_114" data-name="Path 114" d="M250.993,61.733a1.528,1.528,0,0,1,.523,1.2,2.488,2.488,0,0,1-.029.371,2.362,2.362,0,0,1-.585,1.175,2.5,2.5,0,0,1-1.261.737l1.113,2.692H249.2l-.989-2.587h-.638l-.456,2.587H245.78l1.179-6.64h2.492a2.266,2.266,0,0,1,1.541.462m-.856,1.374a.705.705,0,0,0-.229-.561,1.03,1.03,0,0,0-.694-.2H248.1l-.352,1.988h1.113a1.284,1.284,0,0,0,.852-.266,1.2,1.2,0,0,0,.4-.732c.013-.114.019-.19.019-.228" transform="translate(-16883.666 -23195.783)" fill="#161615"/>
      <path id="Path_115" data-name="Path 115" d="M269.529,62.611a4.08,4.08,0,0,1,1.427-1.208,3.893,3.893,0,0,1,1.8-.433,3,3,0,0,1,1.85.547,2.267,2.267,0,0,1,.88,1.536h-1.531a1.2,1.2,0,0,0-.514-.638,1.7,1.7,0,0,0-.894-.219,2.308,2.308,0,0,0-1.094.266,2.366,2.366,0,0,0-.846.761,2.847,2.847,0,0,0-.457,1.141,2.569,2.569,0,0,0-.048.523,1.612,1.612,0,0,0,.461,1.222,1.759,1.759,0,0,0,1.27.442,2.191,2.191,0,0,0,1.318-.409,2.42,2.42,0,0,0,.842-1.132h-2.283L271.879,64h3.6l-.209,1.16a3.878,3.878,0,0,1-.8,1.284,4.155,4.155,0,0,1-1.294.946,3.7,3.7,0,0,1-1.607.357,3.118,3.118,0,0,1-1.489-.342,2.484,2.484,0,0,1-1-.956,2.78,2.78,0,0,1-.357-1.422,4.069,4.069,0,0,1,.808-2.421" transform="translate(-16900.063 -23195.568)" fill="#161615"/>
      <path id="Path_116" data-name="Path 116" d="M296.692,62.284l-.3,1.722h2.235l-.181,1.027h-2.235l-.314,1.8h2.521l-.19,1.056h-3.862l1.18-6.649h3.853l-.181,1.046Z" transform="translate(-16918.389 -23195.76)" fill="#161615"/>
      <path id="Path_117" data-name="Path 117" d="M314.377,67.287a1.463,1.463,0,0,1-.642-1.27q0-.086.019-.257h1.361a.784.784,0,0,0,.214.656.989.989,0,0,0,.737.257,1.278,1.278,0,0,0,.766-.2.681.681,0,0,0,.281-.585.659.659,0,0,0-.29-.561,4.765,4.765,0,0,0-.908-.466,9.13,9.13,0,0,1-.927-.438,1.847,1.847,0,0,1-.609-.556,1.518,1.518,0,0,1-.252-.9,1.83,1.83,0,0,1,.319-1.075,2.06,2.06,0,0,1,.875-.7,3.1,3.1,0,0,1,1.27-.247,2.959,2.959,0,0,1,1.222.233,1.7,1.7,0,0,1,.78.661,1.658,1.658,0,0,1,.224,1H317.4l.009-.1a.646.646,0,0,0-.233-.514.971.971,0,0,0-.652-.2,1.165,1.165,0,0,0-.723.209.678.678,0,0,0-.276.571.6.6,0,0,0,.157.414,1.5,1.5,0,0,0,.385.3q.228.128.656.328a8.214,8.214,0,0,1,.923.466,2.071,2.071,0,0,1,.618.58,1.488,1.488,0,0,1,.257.885,1.748,1.748,0,0,1-.309,1.018,2.044,2.044,0,0,1-.875.7,3.208,3.208,0,0,1-1.317.252,2.784,2.784,0,0,1-1.641-.452" transform="translate(-16932.234 -23195.545)" fill="#161615"/>
      <path id="Path_118" data-name="Path 118" d="M341.336,61.271l-.19,1.046h-1.76l-.989,5.593h-1.341l.989-5.593h-1.769l.19-1.046Z" transform="translate(-16948.346 -23195.785)" fill="#161615"/>
      <path id="Path_119" data-name="Path 119" d="M208.944,92.867l-.118.647h-1.089l-.612,3.46H206.3l.612-3.46h-1.094l.118-.647Z" transform="translate(-16855.102 -23218.365)" fill="#d9000d"/>
      <path id="Path_120" data-name="Path 120" d="M220.052,93.152a.945.945,0,0,1,.324.744,1.556,1.556,0,0,1-.017.23,1.456,1.456,0,0,1-.362.726,1.542,1.542,0,0,1-.78.456l.688,1.665h-.959l-.612-1.6h-.394l-.282,1.6h-.83l.729-4.107H219.1a1.4,1.4,0,0,1,.953.285m-.529.85a.437.437,0,0,0-.141-.347.638.638,0,0,0-.43-.124h-.688l-.218,1.23h.688a.8.8,0,0,0,.527-.165.742.742,0,0,0,.25-.453c.008-.07.012-.118.012-.141" transform="translate(-16862.973 -23218.365)" fill="#d9000d"/>
      <path id="Path_121" data-name="Path 121" d="M232.568,96.175h-1.642l-.406.783h-.865l2.206-4.113h.959l.747,4.113H232.7Zm-.106-.641-.294-1.741-.906,1.741Z" transform="translate(-16872.141 -23218.352)" fill="#d9000d"/>
      <path id="Path_122" data-name="Path 122" d="M248.956,93.064a1.447,1.447,0,0,1,.635.562,1.641,1.641,0,0,1,.221.865,2.277,2.277,0,0,1-.041.435,2.444,2.444,0,0,1-.456,1.08,2.36,2.36,0,0,1-.886.715,2.747,2.747,0,0,1-1.188.253H245.8l.73-4.107h1.435a2.276,2.276,0,0,1,.986.2m-.559,2.874a1.7,1.7,0,0,0,.533-1.012,2.272,2.272,0,0,0,.029-.335.992.992,0,0,0-.291-.765,1.207,1.207,0,0,0-.85-.271h-.577l-.482,2.747h.576a1.548,1.548,0,0,0,1.062-.365" transform="translate(-16883.684 -23218.365)" fill="#d9000d"/>
      <path id="Path_123" data-name="Path 123" d="M262.528,93.493l-.188,1.065h1.383l-.112.636h-1.383l-.194,1.112h1.559l-.118.653h-2.389l.73-4.113H264.2l-.112.648Z" transform="translate(-16894.605 -23218.352)" fill="#d9000d"/>
      <path id="Path_124" data-name="Path 124" d="M279.488,96.588a.9.9,0,0,1-.4-.786c0-.035,0-.088.012-.159h.842a.483.483,0,0,0,.133.406.61.61,0,0,0,.456.159.79.79,0,0,0,.474-.126.42.42,0,0,0,.174-.362.407.407,0,0,0-.179-.347,2.955,2.955,0,0,0-.562-.288,5.638,5.638,0,0,1-.574-.271,1.139,1.139,0,0,1-.376-.344.939.939,0,0,1-.156-.556,1.134,1.134,0,0,1,.2-.665,1.273,1.273,0,0,1,.541-.435,1.92,1.92,0,0,1,.786-.153,1.831,1.831,0,0,1,.756.144,1.053,1.053,0,0,1,.483.409,1.024,1.024,0,0,1,.138.618h-.877l.006-.065a.4.4,0,0,0-.144-.318.6.6,0,0,0-.4-.124.721.721,0,0,0-.447.13.419.419,0,0,0-.171.353.372.372,0,0,0,.1.256.92.92,0,0,0,.238.189q.141.079.406.2a5.1,5.1,0,0,1,.571.288,1.285,1.285,0,0,1,.383.359.92.92,0,0,1,.159.547,1.082,1.082,0,0,1-.191.63,1.27,1.27,0,0,1-.541.432,1.988,1.988,0,0,1-.815.156,1.723,1.723,0,0,1-1.015-.279" transform="translate(-16907.475 -23218.219)" fill="#d9000d"/>
      <path id="Path_125" data-name="Path 125" d="M295.789,92.867l-.724,4.107h-.829l.311-1.759h-1.753l-.312,1.759h-.83l.73-4.107h.824l-.3,1.7h1.759l.3-1.7Z" transform="translate(-16916.453 -23218.365)" fill="#d9000d"/>
      <path id="Path_126" data-name="Path 126" d="M308.385,96.646a1.553,1.553,0,0,1-.615-.612,1.812,1.812,0,0,1-.218-.9,2.564,2.564,0,0,1,.315-1.271,2.289,2.289,0,0,1,.871-.886,2.459,2.459,0,0,1,1.25-.321,1.884,1.884,0,0,1,.921.218,1.528,1.528,0,0,1,.615.609,1.8,1.8,0,0,1,.218.891,2.606,2.606,0,0,1-.312,1.283,2.263,2.263,0,0,1-.87.885,2.488,2.488,0,0,1-1.26.321,1.852,1.852,0,0,1-.915-.221m1.812-.762a1.493,1.493,0,0,0,.523-.6,1.855,1.855,0,0,0,.185-.827,1.039,1.039,0,0,0-.271-.759,1.015,1.015,0,0,0-.759-.276,1.369,1.369,0,0,0-.774.224,1.5,1.5,0,0,0-.524.6,1.839,1.839,0,0,0-.185.824,1.055,1.055,0,0,0,.268.762,1,1,0,0,0,.756.279,1.383,1.383,0,0,0,.779-.223" transform="translate(-16927.816 -23218.219)" fill="#d9000d"/>
      <path id="Path_127" data-name="Path 127" d="M330.974,92.867,329.1,96.974h-.97l-.253-2.924-1.318,2.924-.965.006-.383-4.112h.883l.165,3.189,1.394-3.189h.917l.224,3.171,1.294-3.171Z" transform="translate(-16940.436 -23218.365)" fill="#d9000d"/>
      <path id="Path_128" data-name="Path 128" d="M129.8.056A9.384,9.384,0,0,1,132.8.173,3.707,3.707,0,0,1,134.543,1.3a4.465,4.465,0,0,1,1.243,3.022A6.174,6.174,0,0,1,135.4,6.3q-.389,1.124-.854,2.208a37.908,37.908,0,0,1-3.5,4.535q-2.33,2.673-5.4,5.7t-6.643,6.084q-3.574,3.063-7.147,5.774a9.991,9.991,0,0,0-.933.737,3.335,3.335,0,0,1-.7.5,1.529,1.529,0,0,1-.544.387l.077.233,2.331-.389q1.166-.157,3.185-.233t4.195-.078q1.787,0,3.651.039a25.453,25.453,0,0,1,2.952.194A35.78,35.78,0,0,1,131.2,33q2.174.621,2.408,1.088a.412.412,0,0,1-.116.544.806.806,0,0,1-.5.233,6.347,6.347,0,0,0-2.525-.7,31.736,31.736,0,0,0-4.7-.311q-1.089,0-2.175.039t-2.175.116q-3.03.233-6.293.777T108.867,36.1q-2.991.775-5.554,1.67a23.9,23.9,0,0,0-4.273,1.9,2.018,2.018,0,0,1-1.321.311,3.473,3.473,0,0,1-1.165-.311,3.02,3.02,0,0,1-.7-1.087,1.138,1.138,0,0,1,0-1.01,2.7,2.7,0,0,1,.233-.7,1.548,1.548,0,0,1,.583-.583,11.9,11.9,0,0,1,1.243-.66q.816-.389,2.136-1.01a33.324,33.324,0,0,0,4.933-3.03q3.068-2.174,6.681-5.127t7.458-6.448q3.846-3.5,7.264-6.914,6.759-6.758,7.536-9.245.309-.932-.155-1.243a5.929,5.929,0,0,0-2.253-.466,15.4,15.4,0,0,0-4.234.506,30.366,30.366,0,0,0-4.933,1.708,39.548,39.548,0,0,0-5.205,2.8,46.77,46.77,0,0,0-5.05,3.69q-1.4,1.244-2.1,1.942t.078.388a3.283,3.283,0,0,1,1.36-.233q1.2-.077,2.6-.233,3.572-.31,3.884,0,.233.233,0,.622H118q-1.555.466-2.641.816t-2.37.738q-1.282.389-2.447.7a4.717,4.717,0,0,1-2.331.155,1.762,1.762,0,0,1-1.088-1.4,1.96,1.96,0,0,1,.622-2.02,12.564,12.564,0,0,1,1.4-1.321l2.175-1.865a60.931,60.931,0,0,1,4.972-3.613,48.7,48.7,0,0,1,4.972-2.861A31.228,31.228,0,0,1,125.842.807,15.8,15.8,0,0,1,129.8.056" transform="translate(-16776.426 -23151.992)" fill="#161615"/>
      <path id="Path_129" data-name="Path 129" d="M242.991,19.267q.175-.148.234-.141c.041,0,.043.034.007.087-.009.009-.051.06-.127.154l-.282.349q-.168.208-.376.45t-.4.463q-.2.222-.362.389a1.209,1.209,0,0,1-.248.208q-.335.161-.765-.349a.843.843,0,0,1-.054-.671,3.729,3.729,0,0,1,.429-1.1q-.175.148-.47.429t-.6.6q-.3.315-.563.6a2.816,2.816,0,0,0-.355.443l-.108.188a.243.243,0,0,1-.141-.053.86.86,0,0,1-.134-.121,1.175,1.175,0,0,1-.1-.127.249.249,0,0,1-.04-.074.929.929,0,0,1,.08-.248c.053-.13.123-.282.208-.456s.181-.364.288-.57.212-.4.316-.577.2-.337.282-.476a1.708,1.708,0,0,1,.208-.288.123.123,0,0,1,.141-.02.408.408,0,0,1,.161.121,1,1,0,0,1,.127.195.435.435,0,0,1,.054.188.468.468,0,0,1-.067.141q-.067.114-.161.248l-.47.751.268-.242a4.154,4.154,0,0,0,.382-.322q.248-.228.5-.476t.469-.449a1.064,1.064,0,0,1,.315-.228q.067-.013.228.107a.522.522,0,0,1,.2.255.466.466,0,0,1-.013.195,1.259,1.259,0,0,1-.215.315,4.578,4.578,0,0,0-.235.4q-.128.242-.242.483t-.2.436a1.379,1.379,0,0,0-.1.275q-.013.188.235.027a4.583,4.583,0,0,0,.577-.463q.329-.3.65-.617a5.082,5.082,0,0,1,.47-.422" transform="translate(-16878.49 -23165.053)" fill="#161615"/>
      <path id="Path_130" data-name="Path 130" d="M257.646,6.569a.209.209,0,0,1,.141.074.835.835,0,0,1,.134.181.7.7,0,0,1,.08.215.244.244,0,0,1-.02.174q-.215.322-.53.738t-.65.885q-.335.469-.664.959a9.464,9.464,0,0,0-.557.932q-.107.2-.241.483t-.255.543q-.121.261-.195.449c-.049.125-.07.193-.06.2s.058-.014.148-.067a3.712,3.712,0,0,0,.335-.235l.456-.349q.255-.194.5-.4.349-.295.5-.409t.181-.087a.09.09,0,0,1,0,.067.462.462,0,0,1-.08.121q-.068.081-.208.228t-.369.375l-.456.429q-.228.215-.429.389c-.134.117-.253.215-.356.3a1.576,1.576,0,0,1-.234.161.2.2,0,0,1-.1.054.558.558,0,0,1-.154-.054.581.581,0,0,1-.275-.529,3.359,3.359,0,0,1,.181-.986l.12-.282q-.349.322-.684.617l-.6.53q-.269.235-.449.389a1.758,1.758,0,0,1-.235.181c-.053.036-.118.02-.194-.047a1.008,1.008,0,0,1-.208-.268,1.892,1.892,0,0,1-.154-.362.61.61,0,0,1-.02-.342,1.381,1.381,0,0,1,.235-.53,4.387,4.387,0,0,1,.47-.577,5.113,5.113,0,0,1,.61-.543,4.7,4.7,0,0,1,.671-.429,4.3,4.3,0,0,1,.4-.167.655.655,0,0,1,.255-.02.252.252,0,0,1,.188.087,1.442,1.442,0,0,0,.148.168.888.888,0,0,1,.107.128c.027.04.041.056.041.047a1.472,1.472,0,0,1,.094-.161c.027-.045.056-.089.087-.134s.06-.089.087-.134q.228-.362.563-.872t.67-.986q.336-.476.6-.805t.375-.329m-2.6,3.756q.067-.121-.027-.147a.6.6,0,0,0-.161-.027.532.532,0,0,0-.161.054q-.121.054-.262.134t-.288.174q-.148.094-.268.188a3.122,3.122,0,0,0-.476.4,4.652,4.652,0,0,0-.382.442,2.822,2.822,0,0,0-.248.382.716.716,0,0,0-.087.208c0,.018.058,0,.174-.06a4.209,4.209,0,0,0,.4-.235q.121-.08.342-.248t.456-.355l.429-.342q.194-.154.262-.221a.8.8,0,0,1,.141-.168,1.062,1.062,0,0,0,.154-.181" transform="translate(-16888.129 -23156.688)" fill="#161615"/>
    </g>
  </g>
</svg>
