<svg id="Group_1105" data-name="Group 1105" xmlns="http://www.w3.org/2000/svg" xmlns:xlink="http://www.w3.org/1999/xlink" width="144.445" height="97.992" viewBox="0 0 144.445 97.992">
  <defs>
    <clipPath id="clip-path">
      <rect id="Rectangle_7011" data-name="Rectangle 7011" width="144.446" height="97.992" fill="none"/>
    </clipPath>
  </defs>
  <g id="Group_1103" data-name="Group 1103" clip-path="url(#clip-path)">
    <path id="Path_1524" data-name="Path 1524" d="M127.8,200.211c-.675,0-1.329.007-1.984-.009-.073,0-.172-.114-.209-.2-.155-.351-.3-.706-.431-1.066a.28.28,0,0,0-.307-.221q-1.563.011-3.126,0a.3.3,0,0,0-.328.243c-.126.351-.258.7-.418,1.036a.414.414,0,0,1-.3.207q-2.007.02-4.015,0a.553.553,0,0,1-.359-.213c-.608-.777-1.2-1.57-1.807-2.345a.56.56,0,0,0-.37-.188c-.468-.022-.938-.009-1.438-.009v2.739h-1.965v-8a.7.7,0,0,1,.136-.028c1.689,0,3.378,0,5.068.014a3.846,3.846,0,0,1,.717.085,1.9,1.9,0,0,1,1.718,1.9,7.576,7.576,0,0,1-.065,1.666,1.72,1.72,0,0,1-1.3,1.427l-.285.093,2.155,2.787c.191-.461.367-.879.538-1.3q1.3-3.2,2.6-6.4a.387.387,0,0,1,.432-.288c.614.017,1.229,0,1.842.015a.413.413,0,0,1,.311.193q1.59,3.843,3.155,7.7a1.091,1.091,0,0,1,.033.155M112.723,193.9v1.823h.344c.865,0,1.731.019,2.594-.024.572-.028.8-.345.788-.922-.013-.55-.259-.851-.817-.868-.961-.029-1.923-.008-2.909-.008m9.44,3.125h2.274l-1.135-3-1.139,3" transform="translate(-59.104 -102.552)" fill="#161615"/>
    <path id="Path_1525" data-name="Path 1525" d="M61.217,200.22c-.834,0-1.6.007-2.359-.009-.09,0-.2-.119-.263-.207-.6-.773-1.188-1.548-1.771-2.331a.469.469,0,0,0-.435-.221c-.449.014-.9,0-1.384,0V200.2h-2v-8.01a1.6,1.6,0,0,1,.174-.02c1.689,0,3.378.005,5.067.016a3.573,3.573,0,0,1,.685.083,1.9,1.9,0,0,1,1.719,1.9,7.2,7.2,0,0,1-.042,1.568,1.756,1.756,0,0,1-1.378,1.543c-.063.018-.123.044-.223.08l2.207,2.861M55,195.72c1,0,1.978,0,2.951,0a.594.594,0,0,0,.315-.08,1.013,1.013,0,0,0,.367-.349.9.9,0,0,0-.84-1.377c-.778-.023-1.557-.008-2.337-.009H55Z" transform="translate(-28.291 -102.561)" fill="#161615"/>
    <path id="Path_1526" data-name="Path 1526" d="M94.188,191.459a4.355,4.355,0,1,1-.054,8.71,4.355,4.355,0,0,1,.054-8.71m-2.369,4.335a2.361,2.361,0,1,0,2.392-2.337,2.362,2.362,0,0,0-2.392,2.337" transform="translate(-47.935 -102.183)" fill="#161615"/>
    <path id="Path_1527" data-name="Path 1527" d="M74.492,195.31h4.346v1.7H74.491V198.5h5.283v1.731H72.492v-8.013h7.192v1.692H74.492Z" transform="translate(-38.69 -102.588)" fill="#161615"/>
    <path id="Path_1528" data-name="Path 1528" d="M41.356,193.173c-.546.3-1.085.616-1.639.9-.08.041-.256-.041-.353-.112a2.287,2.287,0,0,0-2.358-.334,2.263,2.263,0,0,0-1.449,1.887,2.349,2.349,0,0,0,3.757,2.162c.086-.067.167-.139.273-.228l.879.488.86.479a4.2,4.2,0,0,1-4.242,1.678,4.361,4.361,0,1,1,4.271-6.917" transform="translate(-17.89 -102.174)" fill="#161615"/>
    <rect id="Rectangle_7005" data-name="Rectangle 7005" width="8.267" height="1.806" transform="translate(60.063 86.352)" fill="#009dde"/>
    <path id="Path_1529" data-name="Path 1529" d="M160.018,13.24a6.254,6.254,0,0,0-.447-1.723,4.572,4.572,0,0,0-3.608-3.1,1.491,1.491,0,0,0-1.505.73,3.866,3.866,0,0,0,.642,4.288c1.161,1.537,2.05,1.233,2.379,1.031a1.325,1.325,0,0,0,.455-1.684c-.217-.443-.89-1.563-.918-1.61a.477.477,0,0,0-.818.492c.007.011.68,1.133.879,1.539a.388.388,0,0,1-.1.45c-.142.088-.557-.052-1.117-.794a3.041,3.041,0,0,1-.558-3.272c.113-.217.422-.23.6-.219a3.649,3.649,0,0,1,2.779,2.493c0,.012.009.022.014.034s1.113,2.5-.4,3.672a1.663,1.663,0,0,1-1.375.317,5.2,5.2,0,0,1-3.035-2.511.477.477,0,1,0-.816.5,6.175,6.175,0,0,0,3.676,2.954,2.914,2.914,0,0,0,.533.05,2.577,2.577,0,0,0,1.6-.55,3.245,3.245,0,0,0,1.141-3.081" transform="translate(-81.656 -4.489)" fill="#040506"/>
    <path id="Path_1530" data-name="Path 1530" d="M148.862,1.407a7.568,7.568,0,0,1,5.167,1.453.694.694,0,0,0,.893-1.063A9.18,9.18,0,0,0,148.253.072a.694.694,0,0,0-.539.424c-.1.256-2.519,6.326.791,11.15a.694.694,0,0,0,1.145-.785c-2.442-3.56-1.228-8.114-.788-9.455" transform="translate(-78.33 0)" fill="#040506"/>
    <path id="Path_1531" data-name="Path 1531" d="M208.348,18.942H172.39a7.359,7.359,0,0,1-5.334-2.3l-.02-.02,0-.012A6.835,6.835,0,0,0,168.157,15c.007-.015.014-.033.02-.048,1.166-2.921.268-5.953-2.528-8.536a.694.694,0,1,0-.942,1.019c2.369,2.189,3.126,4.6,2.191,6.975a4.77,4.77,0,0,1-1.239,1.557l-.017.015c-.006,0-.013.007-.018.012s-.021.021-.033.031a.718.718,0,0,0-.054.053.482.482,0,0,0-.039.049.554.554,0,0,0-.041.061.478.478,0,0,0-.028.055c-.01.022-.02.043-.028.066s-.012.039-.016.059a.608.608,0,0,0-.015.07.523.523,0,0,0-.005.06.635.635,0,0,0,0,.073c0,.02,0,.04.007.06a.558.558,0,0,0,.013.072c0,.02.012.04.019.059a.665.665,0,0,0,.026.068.59.59,0,0,0,.033.058.424.424,0,0,0,.024.045c0,.006.01.009.014.015s.008.033.013.04a8.752,8.752,0,0,0,6.88,3.346h35.957a.694.694,0,1,0,0-1.388" transform="translate(-87.786 -3.324)" fill="#040506"/>
    <path id="Path_1532" data-name="Path 1532" d="M154.238,6.124a.477.477,0,0,0-.136-.945c-1.162.167-3.073,1.019-2.815,4.841,0,.028,0,.05,0,.067a.478.478,0,0,0,.211.424.478.478,0,0,0,.662-.131.6.6,0,0,0,.075-.425c-.108-1.6.151-3.565,2-3.832" transform="translate(-80.73 -2.761)" fill="#040506"/>
    <path id="Path_1533" data-name="Path 1533" d="M157.984,27.137a3.965,3.965,0,0,1-3.347-1.105.694.694,0,1,0-1.084.868,5.172,5.172,0,0,0,3.936,1.669,3.557,3.557,0,0,0,.831-.085.694.694,0,0,0-.337-1.347" transform="translate(-81.871 -13.754)" fill="#040506"/>
    <path id="Path_1534" data-name="Path 1534" d="M177.578,7.689h2.185v6.793a.906.906,0,0,0,.888.932.866.866,0,0,0,.848-.932V7.689h2.168a.907.907,0,0,0,.933-.867.874.874,0,0,0-.933-.868h-6.088a.874.874,0,0,0-.933.868.89.89,0,0,0,.933.867" transform="translate(-94.276 -3.177)" fill="#040506"/>
    <path id="Path_1535" data-name="Path 1535" d="M191.3,13.481a13.939,13.939,0,0,0,0,1.665,3.008,3.008,0,0,0,3.211,2.824,4.681,4.681,0,0,0,2.2-.466.823.823,0,0,0,.453-.746.8.8,0,0,0-1.172-.706,4.288,4.288,0,0,1-1.467.293c-.893,0-1.574-.453-1.574-1.293v-.175h3.628c.653,0,.884-.331.884-.851v-.293a2.885,2.885,0,0,0-3.033-3.091,2.971,2.971,0,0,0-3.127,2.838m3.144-1.315a1.212,1.212,0,0,1,1.332,1.348.129.129,0,0,1-.146.149h-2.6a1.34,1.34,0,0,1,1.412-1.5" transform="translate(-102.087 -5.68)" fill="#040506"/>
    <path id="Path_1536" data-name="Path 1536" d="M207.272,17.931a.87.87,0,0,0,.868-.919v-4.3a3.047,3.047,0,0,1,1.308-.32,1.185,1.185,0,0,1,1.295,1.252v3.37a.9.9,0,0,0,.868.919.87.87,0,0,0,.868-.919V13.561c0-1.865-1-2.917-2.994-2.917a4.971,4.971,0,0,0-2.792.733.662.662,0,0,0-.288.653v4.982a.9.9,0,0,0,.868.919" transform="translate(-110.159 -5.681)" fill="#040506"/>
    <path id="Path_1537" data-name="Path 1537" d="M224.491,17.97c1.945,0,2.957-1.266,2.957-2.012a.868.868,0,0,0-.865-.919.749.749,0,0,0-.706.413,1.44,1.44,0,0,1-1.332.813,1.383,1.383,0,0,1-1.439-1.359,10.089,10.089,0,0,1,0-1.279,1.328,1.328,0,0,1,1.439-1.279,1.4,1.4,0,0,1,1.319.786.737.737,0,0,0,.706.4.865.865,0,0,0,.866-.906c0-.747-.986-1.985-2.944-1.985a2.97,2.97,0,0,0-3.157,2.718,13.667,13.667,0,0,0,0,1.812,3.061,3.061,0,0,0,3.157,2.8" transform="translate(-118.111 -5.68)" fill="#040506"/>
    <path id="Path_1538" data-name="Path 1538" d="M238.854,17.97a4.685,4.685,0,0,0,2.2-.466.824.824,0,0,0,.453-.746.8.8,0,0,0-1.172-.706,3.91,3.91,0,0,1-1.4.293c-.893,0-1.5-.453-1.5-1.293v-.175h3.485c.652,0,.854-.331.854-.851v-.293a2.874,2.874,0,0,0-3.019-3.091,2.972,2.972,0,0,0-3.127,2.838,14.041,14.041,0,0,0,.008,1.665,3.016,3.016,0,0,0,3.219,2.824m-.067-5.8a1.213,1.213,0,0,1,1.332,1.348.129.129,0,0,1-.146.149h-2.6a1.34,1.34,0,0,1,1.412-1.5" transform="translate(-125.744 -5.68)" fill="#040506"/>
    <path id="Path_1539" data-name="Path 1539" d="M251.559,15.262a.87.87,0,0,0,.868-.919V6.577a.87.87,0,1,0-1.735,0v7.767a.9.9,0,0,0,.867.919" transform="translate(-133.796 -3.012)" fill="#040506"/>
    <path id="Path_1540" data-name="Path 1540" d="M261.315,7.213l-.13-.823a.257.257,0,0,0-.506-.031l-.147.627-.143-.627a.253.253,0,0,0-.251-.2.256.256,0,0,0-.259.237l-.13.819a.168.168,0,0,0,.116.215.162.162,0,0,0,.206-.144l.09-.7.161.653c.035.121.107.188.21.188a.22.22,0,0,0,.21-.188l.161-.649.09.693a.162.162,0,0,0,.206.144.168.168,0,0,0,.116-.215" transform="translate(-138.627 -3.286)" fill="#040506"/>
    <path id="Path_1541" data-name="Path 1541" d="M257.521,6.514h.25v.77a.167.167,0,0,0,.171.166.163.163,0,0,0,.165-.166v-.77h.242a.158.158,0,0,0,.157-.157.156.156,0,0,0-.157-.161h-.828a.156.156,0,0,0-.156.161.158.158,0,0,0,.156.157" transform="translate(-137.357 -3.307)" fill="#040506"/>
    <path id="Path_1542" data-name="Path 1542" d="M127.865,100.041a4.886,4.886,0,0,0-.523.875q-1.635,3.067-3.266,6.136-1.123,2.1-2.262,4.2a3.68,3.68,0,0,1-.339.551.428.428,0,0,1-.74-.028c-.1-.142-.181-.3-.269-.456-1.932-3.331-3.879-6.654-5.707-10.043a5.982,5.982,0,0,0-.381-.593.224.224,0,0,0-.267-.063.175.175,0,0,0-.119.181c-.006.177-.008.354-.008.532v9.919a4.543,4.543,0,0,1-.007.472.478.478,0,0,1-.607.47.3.3,0,0,1-.274-.264c-.015-.176-.012-.353-.012-.53V94.693c0-.177,0-.354,0-.532,0-.2,0-.409.233-.491a.65.65,0,0,1,.716.107,2.248,2.248,0,0,1,.4.581c.454.826.9,1.656,1.353,2.484q2.854,5.222,5.71,10.444c.123.223.248.446.384.662.22.351.322.352.528.017.072-.117.142-.235.207-.356.789-1.471,1.574-2.945,2.367-4.413q2.364-4.382,4.735-8.759c.094-.172.189-.345.29-.512a.477.477,0,0,1,.309-.256c.5-.081.678.009.765.478a2.238,2.238,0,0,1,.018.411q0,8.267,0,16.533c0,.925-.2.968-.974,1.085a3.388,3.388,0,0,1-1.633-.1c-.359-.125-.437-.22-.454-.592-.008-.177,0-.354,0-.531q0-4.99,0-9.979a1.622,1.622,0,0,0-.166-.928" transform="translate(-60.352 -49.961)" fill="#040506"/>
    <path id="Path_1543" data-name="Path 1543" d="M26.28,103.008V94.565a4.466,4.466,0,0,1,.018-.53c.03-.264.181-.374.454-.323a1.76,1.76,0,0,1,.442.149c.159.076.3.179.456.271q5.288,3.209,10.573,6.421c.426.26.508.088.506-.3-.01-1.909-.005-3.818,0-5.727a4.565,4.565,0,0,1,.018-.53.332.332,0,0,1,.325-.286.427.427,0,0,1,.489.239.884.884,0,0,1,.04.231c.008.118,0,.236,0,.354q0,8.414,0,16.828c0,.2-.012.393-.031.588a.309.309,0,0,1-.249.294.542.542,0,0,1-.5-.083.254.254,0,0,1-.079-.151c-.014-.137-.012-.275-.012-.412q0-3.16,0-6.319c0-.118,0-.236,0-.354a1.023,1.023,0,0,0-.479-.9c-.146-.1-.3-.194-.447-.286q-4.906-2.99-9.869-5.882a3.421,3.421,0,0,0-.476-.231.222.222,0,0,0-.293.2c-.014.2-.013.393-.013.589v12.932a4.28,4.28,0,0,1-.007.471.481.481,0,0,1-.7.4.22.22,0,0,1-.139-.177,5.12,5.12,0,0,1-.027-.528q0-4.251,0-8.5" transform="translate(-14.026 -50.008)" fill="#040506"/>
    <path id="Path_1544" data-name="Path 1544" d="M69.495,103.175v-7.97c0-.662.03-.654-.64-.652-1.161,0-2.322,0-3.483,0-.2,0-.394-.005-.59-.02a.306.306,0,0,1-.292-.306.455.455,0,0,1,.433-.522c.117-.011.236-.005.354-.005q5.639,0,11.279,0a1.652,1.652,0,0,1,.7.08.367.367,0,0,1,.263.344.408.408,0,0,1-.3.392,3.031,3.031,0,0,1-.47.028c-1.182,0-2.363.01-3.543.007-.643,0-.6,0-.6.625q0,7.853,0,15.7c0,.177,0,.355,0,.532a.7.7,0,0,1-.566.728,3.944,3.944,0,0,1-2.151-.047.528.528,0,0,1-.384-.537c0-.177,0-.354,0-.531Z" transform="translate(-34.417 -50.008)" fill="#040506"/>
    <path id="Path_1545" data-name="Path 1545" d="M98.585,102.988c0-2.695.014-5.389-.007-8.085-.007-1.006.345-1.088,1.093-1.186a3.69,3.69,0,0,1,1.4.088.762.762,0,0,1,.633.681,3.684,3.684,0,0,1,.027.47q0,8.025,0,16.052a2.5,2.5,0,0,1-.054.584.708.708,0,0,1-.539.562,1.655,1.655,0,0,1-.345.068c-.374.012-.748,0-1.121.014a1.938,1.938,0,0,1-.631-.137.613.613,0,0,1-.461-.614c0-.157,0-.315,0-.472Z" transform="translate(-52.612 -50.001)" fill="#040506"/>
    <path id="Path_1546" data-name="Path 1546" d="M237.973,102.949q0-3.983,0-7.964a6,6,0,0,1,.039-.647.544.544,0,0,1,.382-.481,3.311,3.311,0,0,1,2.359.068.572.572,0,0,1,.348.506,4.355,4.355,0,0,1,.014.53v10.384q0,2.773,0,5.546c0,.158.007.315-.007.471a.788.788,0,0,1-.666.788,4.376,4.376,0,0,1-1.923-.032.667.667,0,0,1-.543-.673c-.01-.176-.01-.353-.01-.532Z" transform="translate(-127.007 -49.994)" fill="#040506"/>
    <path id="Path_1547" data-name="Path 1547" d="M259.141,118.289h5.727c.138,0,.276,0,.414,0a.642.642,0,0,1,.643.424c.032.071.062.144.092.217l2.286,5.361c.016.036.035.069.05.106.3.693-.034.866-.541.935a4.579,4.579,0,0,1-1.816-.068,1.219,1.219,0,0,1-.888-.773c-.584-1.479-1.183-2.951-1.778-4.424-.1-.255-.212-.507-.314-.762a.457.457,0,0,0-.456-.307l-.354,0h-5.9c-.078,0-.158,0-.235,0a.593.593,0,0,0-.641.409c-.187.454-.382.9-.574,1.356q-.851,2-1.7,4.01c-.038.09-.07.184-.116.27a.894.894,0,0,1-.138.189.542.542,0,0,1-.6.1c-.16-.094-.158-.257-.154-.418a1.99,1.99,0,0,1,.215-.73l1.941-4.484c.047-.108.1-.214.142-.324.106-.275.053-.367-.232-.372-.433-.007-.866,0-1.3,0-.247-.005-.35-.122-.357-.368a.288.288,0,0,1,.274-.321c.156-.015.314-.01.471-.01h5.845Z" transform="translate(-134.568 -63.131)" fill="#040506"/>
    <path id="Path_1548" data-name="Path 1548" d="M193.642,118.68a3.842,3.842,0,0,0-.527-.039h-21.2a3.6,3.6,0,0,1-.471-.025.206.206,0,0,1-.194-.245c.048-.69-.035-1.376-.05-2.065a4.536,4.536,0,0,0-.07-.643,9.987,9.987,0,0,0-2.12-4.676,16.743,16.743,0,0,0-3.592-3.309c-1.785-1.223-3.632-2.348-5.529-3.391a43.406,43.406,0,0,1-4.276-2.612,10.623,10.623,0,0,1-2.1-1.9,7.6,7.6,0,0,1-1.846-4.744,5.792,5.792,0,0,1,1.944-4.631,8.112,8.112,0,0,1,.919-.738,11.408,11.408,0,0,1,4.69-1.808c.664-.1,1.338-.031,1.993-.191a.419.419,0,0,1,.175.015,11.745,11.745,0,0,1,2.171.535,2.777,2.777,0,0,0,.744.174.87.87,0,0,0,1.111-.771.718.718,0,0,0-.546-1c-.075-.025-.153-.034-.229-.054a14.4,14.4,0,0,0-3.97-.468,15.944,15.944,0,0,0-4.024.535,14.232,14.232,0,0,0-7.063,4.385,9.731,9.731,0,0,0-1.75,2.786,11.118,11.118,0,0,0-.693,6.02,10.046,10.046,0,0,0,2.159,4.908,11.281,11.281,0,0,0,2.493,2.24c2.3,1.546,4.647,3.028,6.985,4.519,1.143.73,2.277,1.476,3.369,2.284a11.265,11.265,0,0,1,1.8,1.612,7.67,7.67,0,0,1,1.633,2.908c.087.3.057.333-.261.343-.177,0-.354,0-.531,0H108.27a3.983,3.983,0,0,0-.647.032.77.77,0,0,0-.655.9.8.8,0,0,0,.715.749,5.367,5.367,0,0,0,.766.029q16.3,0,32.6,0c.157,0,.314-.006.471,0,.207.009.267.073.282.294.008.1.005.2.005.3a7.579,7.579,0,0,0,.29,1.979,8.8,8.8,0,0,0,2.842,4.393A14.133,14.133,0,0,0,149,129.8a15.285,15.285,0,0,0,3.757.963,17.344,17.344,0,0,0,3.355.188c1.059-.069,2.119-.14,3.171-.307a15.97,15.97,0,0,0,7.6-3.278,11.183,11.183,0,0,0,4.071-6.391c.026-.115.043-.232.08-.343a.354.354,0,0,1,.344-.273c.177,0,.354,0,.532,0l20.846,0c.2,0,.395,0,.591-.008a1.009,1.009,0,0,0,.723-.35.816.816,0,0,0-.421-1.313m-56.863.93H117.711q-4.427,0-8.855-.008c-.256,0-.511.015-.766.018a.791.791,0,0,1-.227-.034c-.024-.008-.04-.057-.052-.091s0-.073.056-.077c.117-.009.233-.021.351-.021h46.046q5.284,0,10.568,0c.275,0,.549-.007.823,0a.106.106,0,0,1,.074.069.108.108,0,0,1-.085.13.65.65,0,0,1-.175.014h-28.69Zm29.126,1.314a7.413,7.413,0,0,1-3.056,5.855,11.383,11.383,0,0,1-4.7,2.075,15.584,15.584,0,0,1-4.7.143,13.626,13.626,0,0,1-5.43-1.827,10.346,10.346,0,0,1-2.277-1.769,6.982,6.982,0,0,1-1.964-3.88,4.486,4.486,0,0,1-.107-1.1.738.738,0,0,1,.47-.066q6.315,0,12.631,0,4.278,0,8.558,0c.569,0,.6-.045.576.57m27.474-1.419c-.016.031-.038.072-.066.081a.529.529,0,0,1-.171.025H174.254c-.925,0-1.849.005-2.774.008a.221.221,0,0,1-.206-.08.127.127,0,0,1,0-.1,1.348,1.348,0,0,1,.285-.042c.885,0,1.771,0,2.656,0h18.888a2.158,2.158,0,0,1,.231.023c.052.007.069.038.042.085" transform="translate(-57.086 -45.952)" fill="#d50c14"/>
    <path id="Path_1549" data-name="Path 1549" d="M115.424,146.108a.677.677,0,0,0-.693-.525c-.334-.021-.669-.011-1-.011H71.859v0H29.222a2.708,2.708,0,0,0-.353.017.788.788,0,0,0-.724.79.867.867,0,0,0,.723.875,3.714,3.714,0,0,0,.88.069q42.077,0,84.153,0a4.255,4.255,0,0,0,.822-.062,1.066,1.066,0,0,0,.425-.194.829.829,0,0,0,.278-.954m-.946.42c-.216.009-.433.011-.648.011H29.852c-.255,0-.51-.014-.766-.021-.057,0-.068-.022-.059-.071s.022-.072.07-.08a2.179,2.179,0,0,1,.231-.031c.178,0,.355,0,.532,0H113.78c.235,0,.471.01.706.022.028,0,.065.039.078.068.034.079-.034.1-.086.1" transform="translate(-15.021 -77.69)" fill="#040506"/>
    <path id="Path_1550" data-name="Path 1550" d="M176.807,111.442c-.113-.314-.237-.624-.368-.93q-1.832-4.276-3.666-8.551-1.653-3.871-3.293-7.749a1.857,1.857,0,0,0-.3-.571.57.57,0,0,0-.748-.088.916.916,0,0,0-.34.4c-.083.178-.169.354-.247.534q-1.935,4.456-3.866,8.914c-.163.379-.325.758-.48,1.139a.5.5,0,0,1-.541.356c-.235-.015-.472,0-.708,0v0c-.158,0-.314,0-.472,0a3.867,3.867,0,0,0-.471.018.48.48,0,0,0-.368.527c.013.2.146.292.418.3.137,0,.276,0,.413,0,.276,0,.552,0,.826,0s.323.076.228.316c-.1.256-.21.507-.32.76q-.9,2.049-1.8,4.1a2.239,2.239,0,0,0-.227.726.434.434,0,0,0,.591.448.467.467,0,0,0,.267-.221,5.264,5.264,0,0,0,.257-.528q1.023-2.414,2.041-4.828c.054-.127.109-.252.171-.374a.678.678,0,0,1,.607-.4c.1,0,.2,0,.3,0l5.907,0c.1,0,.2,0,.3,0a.485.485,0,0,1,.5.339c.121.29.236.582.354.873.572,1.419,1.153,2.836,1.714,4.261a1.2,1.2,0,0,0,.928.807,2.432,2.432,0,0,0,.52.087c.373,0,.748-.009,1.121,0a1.043,1.043,0,0,0,.6-.208.335.335,0,0,0,.16-.454m-6.253-6.567q-2.945,0-5.89,0a.858.858,0,0,1-.155-.026c-.055-.163.042-.28.094-.4q1.388-3.208,2.786-6.412a3.378,3.378,0,0,1,.178-.371c.095-.163.274-.149.368.027.054.1.1.213.144.32q1.295,3.121,2.587,6.24.057.135.109.273c.112.3.088.347-.222.347" transform="translate(-85.648 -49.877)" fill="#040506"/>
    <path id="Path_1551" data-name="Path 1551" d="M268.023,102.643c-1.738-3.649-3.572-7.25-5.39-10.859-.007-.016-.021-.039-.036-.042s-.038.009-.11.03c-1.867,3.625-3.758,7.282-5.626,10.951-.023.045,0,.112,0,.2h.533c.925,0,1.849,0,2.775,0,1.966.005,3.933-.026,5.9.082a9.7,9.7,0,0,0,2-.082.322.322,0,0,0-.046-.278m-2.491-1.261a.11.11,0,0,1-.057.009q-2.564-.017-5.126-.04c-.235,0-.471-.018-.706-.029a.378.378,0,0,1-.111-.028.236.236,0,0,1-.048-.034c.159-.484,1.919-3.968,3-5.944.064.042.112.055.126.084,1,1.972,1.989,3.945,2.969,5.893-.033.059-.038.08-.051.089" transform="translate(-137.082 -48.963)" fill="#040506"/>
    <path id="Path_1552" data-name="Path 1552" d="M18.145,110.565V94.109a4.963,4.963,0,0,0-.016-.589.888.888,0,0,0-.9-.838c-.256-.011-.512-.011-.767,0a.776.776,0,0,0-.811.7,4.128,4.128,0,0,0-.067.761q-.006,8.14,0,16.279c0,.255.034.509.057.764a.717.717,0,0,0,.575.66,2.367,2.367,0,0,0,1.277.007.814.814,0,0,0,.634-.759,4.679,4.679,0,0,0,.013-.531m-.95-8.259v7.968c0,.177,0,.354-.01.53a.177.177,0,0,1-.187.183,2.138,2.138,0,0,1-.294,0,.166.166,0,0,1-.161-.146c-.017-.175-.025-.353-.025-.528q0-2.716,0-5.43,0-5.163,0-10.327c0-.177,0-.354,0-.531.016-.374.1-.436.474-.395.111.013.185.067.191.183.008.176.011.353.011.53Z" transform="translate(-8.318 -49.461)" fill="#040506"/>
    <path id="Path_1553" data-name="Path 1553" d="M283.382,91.6a2.073,2.073,0,1,0,0,4.144,2.073,2.073,0,1,0,0-4.144m-.008,3.615a1.5,1.5,0,0,1-1.527-1.535,1.531,1.531,0,1,1,3.059.015,1.488,1.488,0,0,1-1.532,1.52" transform="translate(-150.111 -48.887)" fill="#040506"/>
    <path id="Path_1554" data-name="Path 1554" d="M285.637,95.109a.34.34,0,0,1,.023-.49.487.487,0,0,0-.2-.778,1.118,1.118,0,0,0-.392-.111,4.688,4.688,0,0,0-.706,0c-.253.019-.346.125-.35.377-.007.491,0,.981,0,1.472a.7.7,0,0,0,.009.117.269.269,0,0,0,.318.188c.117-.021.233-.064.239-.212s0-.275,0-.411c.006-.119.086-.168.2-.168a.3.3,0,0,1,.322.2c.043.13.086.259.138.385a.268.268,0,0,0,.273.183.376.376,0,0,0,.275-.082,1.027,1.027,0,0,0-.15-.674m-.845-.448c-.154,0-.216-.076-.21-.273,0-.175.084-.251.253-.241.208.013.344.11.344.245,0,.157-.154.263-.387.269" transform="translate(-151.578 -50.018)" fill="#040506"/>
    <rect id="Rectangle_7006" data-name="Rectangle 7006" width="18.979" height="11.411" transform="translate(7.538 24.753)" fill="#d50c14"/>
    <path id="Path_1555" data-name="Path 1555" d="M68.638,65.368H64.8V58.589h3.835v.936H65.912v1.846h2.555V62.3H65.912v2.128h2.726Z" transform="translate(-34.586 -31.269)" fill="#040506"/>
    <path id="Path_1556" data-name="Path 1556" d="M68.638,65.368H64.8V58.589h3.835v.936H65.912v1.846h2.555V62.3H65.912v2.128h2.726Z" transform="translate(-34.586 -31.269)" fill="none" stroke="#040506" stroke-miterlimit="10" stroke-width="0.439"/>
    <path id="Path_1557" data-name="Path 1557" d="M81.683,61.914a3.378,3.378,0,0,1-.932,2.566,3.745,3.745,0,0,1-2.684.888h-1.9V58.589h2.1a3.468,3.468,0,0,1,2.518.872,3.258,3.258,0,0,1,.9,2.453m-1.169.037q0-2.434-2.277-2.435h-.96v4.92h.788a2.18,2.18,0,0,0,2.448-2.485" transform="translate(-40.652 -31.269)" fill="#040506"/>
    <path id="Path_1558" data-name="Path 1558" d="M81.683,61.914a3.378,3.378,0,0,1-.932,2.566,3.745,3.745,0,0,1-2.684.888h-1.9V58.589h2.1a3.468,3.468,0,0,1,2.518.872A3.258,3.258,0,0,1,81.683,61.914Zm-1.169.037q0-2.434-2.277-2.435h-.96v4.92h.788A2.18,2.18,0,0,0,80.515,61.951Z" transform="translate(-40.652 -31.269)" fill="none" stroke="#040506" stroke-miterlimit="10" stroke-width="0.439"/>
    <rect id="Rectangle_7007" data-name="Rectangle 7007" width="1.108" height="6.779" transform="translate(42.487 27.32)" fill="#040506"/>
    <rect id="Rectangle_7008" data-name="Rectangle 7008" width="1.108" height="6.779" transform="translate(42.487 27.32)" fill="none" stroke="#040506" stroke-miterlimit="10" stroke-width="0.439"/>
    <path id="Path_1559" data-name="Path 1559" d="M98.8,65.368H97.694V59.539H95.7v-.95h5.1v.95H98.8Z" transform="translate(-51.076 -31.269)" fill="#040506"/>
    <path id="Path_1560" data-name="Path 1560" d="M98.8,65.368H97.694V59.539H95.7v-.95h5.1v.95H98.8Z" transform="translate(-51.076 -31.269)" fill="none" stroke="#040506" stroke-miterlimit="10" stroke-width="0.439"/>
    <rect id="Rectangle_7009" data-name="Rectangle 7009" width="1.108" height="6.779" transform="translate(50.759 27.32)" fill="#040506"/>
    <rect id="Rectangle_7010" data-name="Rectangle 7010" width="1.108" height="6.779" transform="translate(50.759 27.32)" fill="none" stroke="#040506" stroke-miterlimit="10" stroke-width="0.439"/>
    <path id="Path_1561" data-name="Path 1561" d="M120.708,61.847a3.709,3.709,0,0,1-.828,2.573,3.479,3.479,0,0,1-4.7.007,3.731,3.731,0,0,1-.823-2.59,3.674,3.674,0,0,1,.828-2.578,3.05,3.05,0,0,1,2.363-.9,2.989,2.989,0,0,1,2.337.913,3.707,3.707,0,0,1,.825,2.573m-5.175,0a3.039,3.039,0,0,0,.505,1.9,2.057,2.057,0,0,0,2.988.007,3.85,3.85,0,0,0,0-3.8,1.762,1.762,0,0,0-1.486-.645,1.8,1.8,0,0,0-1.5.645,3.01,3.01,0,0,0-.508,1.892" transform="translate(-61.032 -31.147)" fill="#040506"/>
    <path id="Path_1562" data-name="Path 1562" d="M120.708,61.847a3.709,3.709,0,0,1-.828,2.573,3.479,3.479,0,0,1-4.7.007,3.731,3.731,0,0,1-.823-2.59,3.674,3.674,0,0,1,.828-2.578,3.05,3.05,0,0,1,2.363-.9,2.989,2.989,0,0,1,2.337.913A3.707,3.707,0,0,1,120.708,61.847Zm-5.175,0a3.039,3.039,0,0,0,.505,1.9,2.057,2.057,0,0,0,2.988.007,3.85,3.85,0,0,0,0-3.8,1.762,1.762,0,0,0-1.486-.645,1.8,1.8,0,0,0-1.5.645A3.01,3.01,0,0,0,115.533,61.847Z" transform="translate(-61.032 -31.147)" fill="none" stroke="#040506" stroke-miterlimit="10" stroke-width="0.439"/>
    <path id="Path_1563" data-name="Path 1563" d="M136.749,65.368H135.39l-3.334-5.4h-.037l.023.3q.065.862.065,1.576v3.524H131.1V58.589h1.345l3.325,5.374h.027q-.009-.106-.037-.777t-.028-1.045V58.589h1.016Z" transform="translate(-69.969 -31.269)" fill="#040506"/>
    <path id="Path_1564" data-name="Path 1564" d="M136.749,65.368H135.39l-3.334-5.4h-.037l.023.3q.065.862.065,1.576v3.524H131.1V58.589h1.345l3.325,5.374h.027q-.009-.106-.037-.777t-.028-1.045V58.589h1.016Z" transform="translate(-69.969 -31.269)" fill="none" stroke="#040506" stroke-miterlimit="10" stroke-width="0.439"/>
    <path id="Path_1565" data-name="Path 1565" d="M20.368,65.021l2.347-5.127h-3.1v-.841h4.131v.657L21.4,65.021Z" transform="translate(-10.47 -31.517)" fill="#fff"/>
    <path id="Path_1566" data-name="Path 1566" d="M32.214,65.021H31.23V59.886H29.483v-.833h4.474v.833H32.214Z" transform="translate(-15.735 -31.517)" fill="#fff"/>
    <path id="Path_1567" data-name="Path 1567" d="M45.736,65.021h-.98V62.326H42.009v2.694h-.98V59.053h.98v2.441h2.747V59.053h.98Z" transform="translate(-21.898 -31.517)" fill="#fff"/>
    <path id="Path_1568" data-name="Path 1568" d="M203.115,23.016c3.333-.074,6.666-.148,10-.195l10-.163.352-.006.006.364c.1,6.336.137,12.672.209,19.008s.14,12.672.159,19.008l.073,19.008.016,9.5.007,4.752a12.051,12.051,0,0,1-.991,4.951,12.359,12.359,0,0,1-7.287,6.679,12.579,12.579,0,0,1-2.464.579,16.991,16.991,0,0,1-2.476.111l-4.752-.023c-6.336-.039-12.672-.062-19.008-.15l-19.008-.227c-6.336-.131-12.672-.21-19.008-.39,6.336-.179,12.672-.258,19.008-.39l19.008-.226c6.336-.088,12.672-.111,19.008-.15l4.752-.023a15.581,15.581,0,0,0,2.266-.105,11.018,11.018,0,0,0,2.151-.513,10.754,10.754,0,0,0,6.316-5.82,10.4,10.4,0,0,0,.839-4.3l.007-4.752.016-9.5.073-19.008c.019-6.336.1-12.672.159-19.008s.1-12.672.21-19.008l.357.358-10-.163c-3.333-.047-6.666-.121-10-.195" transform="translate(-79.491 -12.09)" fill="#040506"/>
    <path id="Path_1569" data-name="Path 1569" d="M14,105.388l-6.6.157-6.6.124-.276.005-.006-.287C.287,93.476.174,81.564.09,69.652L.01,51.783,0,33.915a11.853,11.853,0,0,1,3.575-8.6,12.265,12.265,0,0,1,8.618-3.485q8.946.034,17.872.137,17.868.176,35.737.609-17.869.442-35.737.609l-8.934.087-8.93.056a10.858,10.858,0,0,0-7.514,3.116A10.253,10.253,0,0,0,1.62,33.915l-.01,17.868L1.53,69.652c-.084,11.912-.2,23.824-.438,35.737l-.282-.282,6.6.124Z" transform="translate(0 -11.651)" fill="#040506"/>
    <path id="Path_1570" data-name="Path 1570" d="M34.245,183.129H33.73v1.118h-.35v-2.678h.865c.63,0,.926.346.926.784,0,.408-.261.776-.926.776m0-.288c.4,0,.569-.188.569-.488s-.17-.5-.569-.5H33.73v.983Z" transform="translate(-17.815 -96.904)" fill="#040506"/>
    <path id="Path_1571" data-name="Path 1571" d="M38.916,184.9A1.088,1.088,0,1,1,40,183.806a1.044,1.044,0,0,1-1.079,1.091m0-.307a.715.715,0,0,0,.722-.784.708.708,0,0,0-.711-.78.787.787,0,0,0-.012,1.564" transform="translate(-20.21 -97.52)" fill="#040506"/>
    <path id="Path_1572" data-name="Path 1572" d="M42.881,182.8h.358l.484,1.768.522-1.768H44.6l.512,1.771.476-1.771h.346l-.657,2.106h-.361l-.507-1.671L43.9,184.9h-.361Z" transform="translate(-22.886 -97.56)" fill="#040506"/>
    <path id="Path_1573" data-name="Path 1573" d="M50.93,184.9a1.014,1.014,0,0,1-1.041-1.091,1,1,0,0,1,1.041-1.084.965.965,0,0,1,1.01,1.007,1.946,1.946,0,0,1-.011.211H50.246a.661.661,0,0,0,.684.661.579.579,0,0,0,.592-.388H51.9a.947.947,0,0,1-.968.684m-.68-1.241h1.329a.618.618,0,0,0-.665-.638.652.652,0,0,0-.664.638" transform="translate(-26.626 -97.52)" fill="#040506"/>
    <path id="Path_1574" data-name="Path 1574" d="M55.623,184.858h-.35v-2.106h.35v.342a.709.709,0,0,1,.68-.381v.361h-.091c-.335,0-.588.15-.588.638Z" transform="translate(-29.5 -97.516)" fill="#040506"/>
    <path id="Path_1575" data-name="Path 1575" d="M59.106,184.9a1.014,1.014,0,0,1-1.041-1.091,1,1,0,0,1,1.041-1.084.965.965,0,0,1,1.01,1.007,1.944,1.944,0,0,1-.011.211H58.422a.661.661,0,0,0,.684.661.578.578,0,0,0,.592-.388h.377a.947.947,0,0,1-.968.684m-.68-1.241h1.329a.618.618,0,0,0-.665-.638.652.652,0,0,0-.664.638" transform="translate(-30.99 -97.52)" fill="#040506"/>
    <path id="Path_1576" data-name="Path 1576" d="M64.173,181.918a.919.919,0,0,1,.78.411v-1.114h.354v2.843h-.354v-.4a.863.863,0,0,1-.783.43,1.014,1.014,0,0,1-1-1.1,1,1,0,0,1,1-1.079m.065.3a.711.711,0,0,0-.711.776.715.715,0,1,0,.711-.776" transform="translate(-33.714 -96.715)" fill="#040506"/>
    <path id="Path_1577" data-name="Path 1577" d="M72.213,184.247h-1v-2.678h.961c.565,0,.85.308.85.68a.628.628,0,0,1-.469.619.669.669,0,0,1,.53.661c0,.4-.319.719-.872.719m-.069-2.39h-.58v.868h.588c.326,0,.515-.162.515-.435s-.18-.434-.523-.434m.027,1.156h-.607v.945h.619c.346,0,.553-.173.553-.465s-.223-.48-.565-.48" transform="translate(-38.007 -96.904)" fill="#040506"/>
    <path id="Path_1578" data-name="Path 1578" d="M77.429,182.8h.361l-1.267,3.1h-.361l.415-1.015-.849-2.082h.388l.661,1.706Z" transform="translate(-40.416 -97.56)" fill="#040506"/>
  </g>
</svg>
