<svg xmlns="http://www.w3.org/2000/svg" xmlns:xlink="http://www.w3.org/1999/xlink" width="355" height="118" viewBox="0 0 355 118">
  <defs>
    <clipPath id="clip-path">
      <rect id="Rectangle_6951" data-name="Rectangle 6951" width="167.219" height="31.734" fill="none"/>
    </clipPath>
    <clipPath id="clip-path-2">
      <rect id="Rectangle_7011" data-name="Rectangle 7011" width="166.007" height="112.619" fill="none"/>
    </clipPath>
    <clipPath id="clip-intimasia">
      <rect width="355" height="118"/>
    </clipPath>
  </defs>
  <g id="intimasia" clip-path="url(#clip-intimasia)">
    <line id="Line_6" data-name="Line 6" y2="112.619" transform="translate(176.015 1.381)" fill="none" stroke="#040506" stroke-miterlimit="10" stroke-width="2"/>
    <g id="Group_1014" data-name="Group 1014" transform="translate(183.543 4.25)">
      <g id="Group_987" data-name="Group 987" transform="translate(-0.001 42.37)">
        <path id="Path_58" data-name="Path 58" d="M11,93.234H5.187V68.283H24.043v4.633H11Zm-.464-13.723H22.51v4.633H10.533Z" transform="translate(-5.187 -67.856)" fill="#040506"/>
        <path id="Path_59" data-name="Path 59" d="M50.864,88.6h13.58v4.633H45.125V68.283H63.981v4.633H50.864Zm-.428-10.3H62.448v4.526H50.437Z" transform="translate(-22.349 -67.856)" fill="#040506"/>
        <path id="Path_60" data-name="Path 60" d="M87.065,93.234V68.283H99.256q4.7,0,7.075,1.782a5.605,5.605,0,0,1,2.37,4.7,5.994,5.994,0,0,1-.963,3.4,6.281,6.281,0,0,1-2.655,2.227,9.01,9.01,0,0,1-3.831.784l.677-1.5a10.317,10.317,0,0,1,4.152.784,6.519,6.519,0,0,1,2.834,2.281,6.3,6.3,0,0,1,1.033,3.671,5.8,5.8,0,0,1-2.53,5.008q-2.531,1.8-7.449,1.8ZM92.8,88.885h6.772a6.332,6.332,0,0,0,3.386-.748,2.553,2.553,0,0,0,1.176-2.318,2.586,2.586,0,0,0-1.176-2.352,6.333,6.333,0,0,0-3.386-.748h-7.2V78.513h6.166a5.918,5.918,0,0,0,3.226-.731,2.474,2.474,0,0,0,1.122-2.227,2.433,2.433,0,0,0-1.122-2.21,6.044,6.044,0,0,0-3.226-.713H92.8Z" transform="translate(-40.371 -67.856)" fill="#040506"/>
        <path id="Path_61" data-name="Path 61" d="M148.609,92.911V89.169l9.625-9.09a11.263,11.263,0,0,0,1.693-1.836,4.828,4.828,0,0,0,.731-1.5,5.282,5.282,0,0,0,.178-1.3,2.791,2.791,0,0,0-1-2.282,4.644,4.644,0,0,0-2.994-.819,6.591,6.591,0,0,0-2.923.642,6.1,6.1,0,0,0-2.246,1.889l-4.17-2.709a9.578,9.578,0,0,1,3.956-3.386,13.38,13.38,0,0,1,5.918-1.248,12.442,12.442,0,0,1,4.883.891,7.376,7.376,0,0,1,3.261,2.548,6.7,6.7,0,0,1,1.158,3.939,8.417,8.417,0,0,1-1.568,4.919,18.374,18.374,0,0,1-2.638,2.958l-7.984,7.485-1.106-2.067H167.5v4.7Z" transform="translate(-66.343 -67.533)" fill="#040506"/>
        <path id="Path_62" data-name="Path 62" d="M197.387,93.339a10.051,10.051,0,0,1-5.471-1.515A10.472,10.472,0,0,1,188.1,87.44a15.783,15.783,0,0,1-1.408-7,15.787,15.787,0,0,1,1.408-7,10.479,10.479,0,0,1,3.815-4.384,10.7,10.7,0,0,1,10.978,0,10.486,10.486,0,0,1,3.814,4.384,15.8,15.8,0,0,1,1.407,7,15.792,15.792,0,0,1-1.407,7,10.479,10.479,0,0,1-3.814,4.384,10.114,10.114,0,0,1-5.507,1.515m0-4.847a4.056,4.056,0,0,0,2.549-.838,5.5,5.5,0,0,0,1.711-2.62,14.188,14.188,0,0,0,.624-4.6,14.189,14.189,0,0,0-.624-4.6,5.5,5.5,0,0,0-1.711-2.62,4.214,4.214,0,0,0-5.044,0,5.521,5.521,0,0,0-1.746,2.62,13.791,13.791,0,0,0-.642,4.6,13.79,13.79,0,0,0,.642,4.6,5.516,5.516,0,0,0,1.746,2.62,4.021,4.021,0,0,0,2.495.838" transform="translate(-83.184 -67.533)" fill="#040506"/>
        <path id="Path_63" data-name="Path 63" d="M227.676,92.911V89.169l9.623-9.09a11.211,11.211,0,0,0,1.693-1.836,4.8,4.8,0,0,0,.73-1.5,5.227,5.227,0,0,0,.178-1.3,2.79,2.79,0,0,0-1-2.282,4.639,4.639,0,0,0-2.993-.819,6.59,6.59,0,0,0-2.923.642,6.087,6.087,0,0,0-2.246,1.889l-4.17-2.709a9.578,9.578,0,0,1,3.956-3.386,13.378,13.378,0,0,1,5.917-1.248,12.44,12.44,0,0,1,4.883.891,7.373,7.373,0,0,1,3.263,2.548,6.7,6.7,0,0,1,1.158,3.939,8.412,8.412,0,0,1-1.569,4.919,18.326,18.326,0,0,1-2.638,2.958l-7.983,7.485-1.105-2.067h14.116v4.7Z" transform="translate(-100.32 -67.533)" fill="#040506"/>
        <path id="Path_64" data-name="Path 64" d="M273.463,93.661a19.486,19.486,0,0,1-5.151-.7,13.327,13.327,0,0,1-4.366-2.014l2.281-4.384a11.517,11.517,0,0,0,3.261,1.658,12.054,12.054,0,0,0,3.833.623,5.965,5.965,0,0,0,3.439-.873,2.768,2.768,0,0,0,1.266-2.406,2.842,2.842,0,0,0-.517-1.711,3.435,3.435,0,0,0-1.782-1.123,12.022,12.022,0,0,0-3.547-.41h-6.346l1.248-14.044h15.256v4.633H269.15l2.994-2.638L271.218,80.3l-2.959-2.6h5.276a14.859,14.859,0,0,1,5.953,1,6.983,6.983,0,0,1,3.3,2.762,7.619,7.619,0,0,1,1.051,3.974,7.918,7.918,0,0,1-1.1,4.064,7.826,7.826,0,0,1-3.4,3.029,13.184,13.184,0,0,1-5.863,1.141" transform="translate(-116.378 -67.856)" fill="#040506"/>
      </g>
      <g id="Group_1011" data-name="Group 1011" transform="translate(0.236 0)">
        <rect id="Rectangle_6948" data-name="Rectangle 6948" width="50.454" height="31.734" transform="translate(0 0)" fill="#d90a11"/>
        <path id="Path_1631" data-name="Path 1631" d="M0,0H50.454V31.734H0Z" transform="translate(58.108 0)" fill="#d90a11"/>
        <rect id="Rectangle_6950" data-name="Rectangle 6950" width="50.454" height="31.734" transform="translate(116.765 0)" fill="#d90a11"/>
        <g id="Group_1010" data-name="Group 1010" transform="translate(0 0)">
          <g id="Group_1009" data-name="Group 1009" clip-path="url(#clip-path)">
            <path id="Path_161" data-name="Path 161" d="M1.815,29.272V25.177l10.53-9.946A12.255,12.255,0,0,0,14.2,13.224a5.236,5.236,0,0,0,.8-1.637,5.779,5.779,0,0,0,.195-1.424,3.052,3.052,0,0,0-1.091-2.5,5.071,5.071,0,0,0-3.276-.9,7.226,7.226,0,0,0-3.2.7A6.683,6.683,0,0,0,5.168,9.538L.606,6.575a10.476,10.476,0,0,1,4.328-3.7,14.633,14.633,0,0,1,6.474-1.365,13.615,13.615,0,0,1,5.344.974,8.058,8.058,0,0,1,3.567,2.788,7.337,7.337,0,0,1,1.268,4.31,9.685,9.685,0,0,1-.37,2.613,9.7,9.7,0,0,1-1.346,2.769A20.1,20.1,0,0,1,16.986,18.2L8.25,26.386,7.041,24.125H22.484v5.148Z" transform="translate(0.127 0.316)" fill="#fff"/>
            <path id="Path_162" data-name="Path 162" d="M20.556,23.459V19.208L33.425,1.892h6.63L27.5,19.208l-3.12-.9H45.866v5.149Zm14.7,5.732V23.459l.195-5.149V13.2H41.42v15.99Z" transform="translate(4.318 0.397)" fill="#fff"/>
            <path id="Path_163" data-name="Path 163" d="M52.155,29.272V25.177l10.53-9.946a12.254,12.254,0,0,0,1.851-2.007,5.3,5.3,0,0,0,.8-1.637,5.779,5.779,0,0,0,.195-1.424,3.052,3.052,0,0,0-1.093-2.5,5.075,5.075,0,0,0-3.277-.9,7.224,7.224,0,0,0-3.2.7,6.683,6.683,0,0,0-2.458,2.067L50.946,6.575a10.476,10.476,0,0,1,4.328-3.7A14.635,14.635,0,0,1,61.75,1.506a13.617,13.617,0,0,1,5.343.974,8.058,8.058,0,0,1,3.567,2.788,7.337,7.337,0,0,1,1.268,4.31,9.687,9.687,0,0,1-.371,2.613,9.635,9.635,0,0,1-1.344,2.769A19.979,19.979,0,0,1,67.326,18.2l-8.737,8.19L57.38,24.125H72.824v5.148Z" transform="translate(10.703 0.316)" fill="#fff"/>
            <path id="Path_164" data-name="Path 164" d="M80.632,29.659A21.265,21.265,0,0,1,75,28.9a14.573,14.573,0,0,1-4.777-2.2l2.5-4.8a12.588,12.588,0,0,0,3.569,1.813,13.17,13.17,0,0,0,4.193.682,6.511,6.511,0,0,0,3.762-.956,3.026,3.026,0,0,0,1.386-2.631,3.1,3.1,0,0,0-.566-1.872,3.741,3.741,0,0,0-1.949-1.229,13.15,13.15,0,0,0-3.881-.449H72.286L73.65,1.893H90.341V6.962H75.912l3.276-2.886L78.174,15.034l-3.237-2.846h5.772a16.258,16.258,0,0,1,6.513,1.091A7.643,7.643,0,0,1,90.83,16.3a8.34,8.34,0,0,1,1.15,4.349,8.417,8.417,0,0,1-4.934,7.76,14.436,14.436,0,0,1-6.415,1.248" transform="translate(14.752 0.397)" fill="#fff"/>
            <path id="Path_165" data-name="Path 165" d="M99.466,29.272V25.177L110,15.232a12.255,12.255,0,0,0,1.851-2.007,5.3,5.3,0,0,0,.8-1.637,5.78,5.78,0,0,0,.195-1.424,3.052,3.052,0,0,0-1.093-2.5,5.075,5.075,0,0,0-3.277-.9,7.224,7.224,0,0,0-3.2.7,6.683,6.683,0,0,0-2.458,2.067L98.257,6.575a10.476,10.476,0,0,1,4.328-3.7,14.635,14.635,0,0,1,6.475-1.365,13.617,13.617,0,0,1,5.343.974,8.058,8.058,0,0,1,3.567,2.788,7.337,7.337,0,0,1,1.268,4.31,9.688,9.688,0,0,1-.371,2.613,9.636,9.636,0,0,1-1.344,2.769,19.979,19.979,0,0,1-2.886,3.237l-8.737,8.19-1.209-2.262h15.444v5.148Z" transform="translate(20.642 0.316)" fill="#fff"/>
            <path id="Path_166" data-name="Path 166" d="M130.67,29.74A12.952,12.952,0,0,1,124.2,28.2a10.375,10.375,0,0,1-4.23-4.563,16.476,16.476,0,0,1-1.5-7.39,16.662,16.662,0,0,1,1.775-8.034,12.128,12.128,0,0,1,4.914-4.992,14.923,14.923,0,0,1,7.273-1.716,17.276,17.276,0,0,1,4.134.488,11.787,11.787,0,0,1,3.432,1.384l-2.339,4.641a6.948,6.948,0,0,0-2.418-1.072,12.053,12.053,0,0,0-2.691-.293,7.479,7.479,0,0,0-5.617,2.165q-2.106,2.165-2.106,6.337c0,.467.013.989.039,1.56a9.7,9.7,0,0,0,.235,1.716l-1.756-1.638a8.08,8.08,0,0,1,1.912-2.553,7.8,7.8,0,0,1,2.788-1.56,11.487,11.487,0,0,1,3.569-.528,10.5,10.5,0,0,1,4.758,1.053,8.583,8.583,0,0,1,3.374,2.965,7.94,7.94,0,0,1,1.267,4.486,8.485,8.485,0,0,1-1.365,4.815,8.982,8.982,0,0,1-3.7,3.158,12.1,12.1,0,0,1-5.266,1.112m-.35-4.718a5.46,5.46,0,0,0,2.358-.488,3.744,3.744,0,0,0,1.619-1.423,3.979,3.979,0,0,0,.586-2.145,3.769,3.769,0,0,0-1.268-2.983,4.931,4.931,0,0,0-3.372-1.112,5.279,5.279,0,0,0-2.458.546,4.328,4.328,0,0,0-1.658,1.463,3.774,3.774,0,0,0-.605,2.126,3.713,3.713,0,0,0,.586,2.046,4.021,4.021,0,0,0,1.638,1.442,5.712,5.712,0,0,0,2.574.528" transform="translate(24.887 0.316)" fill="#fff"/>
          </g>
        </g>
      </g>
    </g>
    <g id="Group_1013" data-name="Group 1013" transform="translate(183.543 89.935)">
      <rect id="Rectangle_6930" data-name="Rectangle 6930" width="98.388" height="12.847" transform="translate(-0.001 14.087)" fill="#fff"/>
      <g id="Group_990" data-name="Group 990" transform="translate(-0.001 0)">
        <rect id="Rectangle_6929" data-name="Rectangle 6929" width="166.547" height="12.847" fill="#fff"/>
        <g id="Group_994" data-name="Group 994" transform="translate(3.328 3.651)">
          <path id="Path_65" data-name="Path 65" d="M8.07,143.952v-2.269l.293.778L5.912,138.4H7.284l1.872,3.109H8.371l1.88-3.109h1.254l-2.436,4.062.294-.778v2.269Z" transform="translate(-5.912 -138.303)" fill="#1a1719"/>
          <path id="Path_66" data-name="Path 66" d="M14.918,143.952l2.467-5.553h1.27l2.49,5.553H19.8l-2.039-4.9h.516l-2.038,4.9Zm1.246-1.19.325-.975h2.872l.333.975Z" transform="translate(-9.849 -138.303)" fill="#1a1719"/>
          <path id="Path_67" data-name="Path 67" d="M28.5,143.973a4.551,4.551,0,0,1-1.281-.178,2.97,2.97,0,0,1-.988-.464l.436-.968a3.042,3.042,0,0,0,.841.417,3.151,3.151,0,0,0,.992.163,1.962,1.962,0,0,0,.615-.079.752.752,0,0,0,.345-.211.453.453,0,0,0,.111-.305.42.42,0,0,0-.175-.353,1.424,1.424,0,0,0-.464-.213c-.193-.056-.4-.109-.63-.159s-.456-.111-.687-.182a2.793,2.793,0,0,1-.634-.285,1.351,1.351,0,0,1-.46-.468,1.4,1.4,0,0,1-.17-.726,1.566,1.566,0,0,1,.253-.869,1.74,1.74,0,0,1,.774-.627,3.185,3.185,0,0,1,1.3-.234,4.325,4.325,0,0,1,1.036.127,3.092,3.092,0,0,1,.893.365l-.4.968a3.255,3.255,0,0,0-.77-.322,2.923,2.923,0,0,0-.762-.106,1.849,1.849,0,0,0-.611.083.7.7,0,0,0-.337.226.517.517,0,0,0-.108.317.428.428,0,0,0,.175.357,1.287,1.287,0,0,0,.46.211c.191.05.4.1.635.151a6.664,6.664,0,0,1,.69.186,3.06,3.06,0,0,1,.628.281,1.292,1.292,0,0,1,.642,1.178,1.519,1.519,0,0,1-.257.857,1.8,1.8,0,0,1-.782.626,3.167,3.167,0,0,1-1.309.238" transform="translate(-14.795 -138.229)" fill="#1a1719"/>
          <path id="Path_68" data-name="Path 68" d="M37.3,143.952H36V138.4H37.3Zm2.61-2.277H37.193v-1.087H39.9ZM39.81,138.4H41.1v5.553H39.81Z" transform="translate(-19.065 -138.303)" fill="#1a1719"/>
          <path id="Path_69" data-name="Path 69" d="M49.816,143.974a3.358,3.358,0,0,1-1.214-.214,2.934,2.934,0,0,1-.967-.6,2.708,2.708,0,0,1-.639-.912,3.007,3.007,0,0,1,0-2.289,2.724,2.724,0,0,1,.639-.908,2.945,2.945,0,0,1,.963-.6,3.327,3.327,0,0,1,1.21-.214,3.366,3.366,0,0,1,1.209.211,2.881,2.881,0,0,1,.964.6,2.72,2.72,0,0,1,.639.912,3.027,3.027,0,0,1,0,2.3,2.7,2.7,0,0,1-.639.916,2.874,2.874,0,0,1-.964.6,3.34,3.34,0,0,1-1.2.21m-.008-1.087a1.764,1.764,0,0,0,.686-.131,1.682,1.682,0,0,0,.552-.373,1.728,1.728,0,0,0,.369-.563,2.037,2.037,0,0,0,0-1.435,1.727,1.727,0,0,0-.369-.563,1.671,1.671,0,0,0-.552-.373,1.754,1.754,0,0,0-.686-.131,1.784,1.784,0,0,0-.691.131,1.6,1.6,0,0,0-.551.373,1.755,1.755,0,0,0-.365.563,2.037,2.037,0,0,0,0,1.435,1.756,1.756,0,0,0,.365.563,1.61,1.61,0,0,0,.551.373,1.8,1.8,0,0,0,.691.131" transform="translate(-23.769 -138.229)" fill="#1a1719"/>
          <path id="Path_70" data-name="Path 70" d="M59.285,143.952V138.4H62a2.6,2.6,0,0,1,1.575.4,1.246,1.246,0,0,1,.527,1.047,1.332,1.332,0,0,1-.214.758,1.4,1.4,0,0,1-.592.5,2,2,0,0,1-.852.174l.15-.333a2.3,2.3,0,0,1,.924.175,1.448,1.448,0,0,1,.631.508,1.4,1.4,0,0,1,.23.817,1.291,1.291,0,0,1-.563,1.115,2.855,2.855,0,0,1-1.658.4Zm1.277-.968H62.07a1.414,1.414,0,0,0,.754-.167.567.567,0,0,0,.261-.516.575.575,0,0,0-.261-.524,1.415,1.415,0,0,0-.754-.167h-1.6v-.936H61.84a1.315,1.315,0,0,0,.718-.163.55.55,0,0,0,.25-.5.541.541,0,0,0-.25-.492,1.347,1.347,0,0,0-.718-.159H60.562Z" transform="translate(-29.241 -138.303)" fill="#1a1719"/>
          <path id="Path_71" data-name="Path 71" d="M71.359,143.952H70.066V138.4h1.293Zm2.61-2.277H71.257v-1.087h2.712Zm-.095-3.276H75.16v5.553H73.875Z" transform="translate(-33.954 -138.303)" fill="#1a1719"/>
          <path id="Path_72" data-name="Path 72" d="M83.88,143.974a3.358,3.358,0,0,1-1.214-.214,2.934,2.934,0,0,1-.967-.6,2.709,2.709,0,0,1-.639-.912,3.007,3.007,0,0,1,0-2.289,2.724,2.724,0,0,1,.639-.908,2.945,2.945,0,0,1,.963-.6,3.327,3.327,0,0,1,1.21-.214,3.366,3.366,0,0,1,1.209.211,2.881,2.881,0,0,1,.964.6,2.721,2.721,0,0,1,.639.912,3.027,3.027,0,0,1,0,2.3,2.7,2.7,0,0,1-.639.916,2.874,2.874,0,0,1-.964.6,3.34,3.34,0,0,1-1.2.21m-.008-1.087a1.764,1.764,0,0,0,.686-.131,1.682,1.682,0,0,0,.552-.373,1.727,1.727,0,0,0,.369-.563,2.037,2.037,0,0,0,0-1.435,1.727,1.727,0,0,0-.369-.563,1.671,1.671,0,0,0-.552-.373,1.754,1.754,0,0,0-.686-.131,1.784,1.784,0,0,0-.691.131,1.6,1.6,0,0,0-.551.373,1.755,1.755,0,0,0-.365.563,2.037,2.037,0,0,0,0,1.435,1.756,1.756,0,0,0,.365.563,1.61,1.61,0,0,0,.551.373,1.8,1.8,0,0,0,.691.131" transform="translate(-38.66 -138.229)" fill="#1a1719"/>
          <path id="Path_73" data-name="Path 73" d="M95.775,143.974a3.358,3.358,0,0,1-1.214-.214,2.934,2.934,0,0,1-.967-.6,2.708,2.708,0,0,1-.639-.912,3.007,3.007,0,0,1,0-2.289,2.724,2.724,0,0,1,.639-.908,2.945,2.945,0,0,1,.963-.6,3.327,3.327,0,0,1,1.21-.214,3.366,3.366,0,0,1,1.209.211,2.881,2.881,0,0,1,.964.6,2.72,2.72,0,0,1,.639.912,3.027,3.027,0,0,1,0,2.3,2.7,2.7,0,0,1-.639.916,2.874,2.874,0,0,1-.964.6,3.34,3.34,0,0,1-1.2.21m-.008-1.087a1.764,1.764,0,0,0,.686-.131,1.681,1.681,0,0,0,.552-.373,1.727,1.727,0,0,0,.369-.563,2.037,2.037,0,0,0,0-1.435,1.727,1.727,0,0,0-.369-.563,1.67,1.67,0,0,0-.552-.373,1.754,1.754,0,0,0-.686-.131,1.784,1.784,0,0,0-.691.131,1.6,1.6,0,0,0-.551.373,1.755,1.755,0,0,0-.365.563,2.037,2.037,0,0,0,0,1.435,1.755,1.755,0,0,0,.365.563,1.609,1.609,0,0,0,.551.373,1.8,1.8,0,0,0,.691.131" transform="translate(-43.859 -138.229)" fill="#1a1719"/>
          <path id="Path_74" data-name="Path 74" d="M105.244,143.952V138.4h1.063l2.365,3.919h-.564l2.316-3.919H111.5v5.553h-1.2l-.017-3.7h.239l-1.872,3.11h-.572l-1.9-3.11h.262v3.7Z" transform="translate(-49.327 -138.303)" fill="#1a1719"/>
          <rect id="Rectangle_6934" data-name="Rectangle 6934" width="1.293" height="5.553" transform="translate(63.491 0.094)" fill="#1a1719"/>
          <path id="Path_75" data-name="Path 75" d="M129.7,143.973a3.32,3.32,0,0,1-1.194-.21,2.8,2.8,0,0,1-.956-.6,2.771,2.771,0,0,1-.631-.913,3.043,3.043,0,0,1,0-2.3,2.749,2.749,0,0,1,.635-.912,2.836,2.836,0,0,1,.96-.6,3.522,3.522,0,0,1,2.5.039,2.536,2.536,0,0,1,.984.734l-.833.761a1.906,1.906,0,0,0-.631-.491,1.773,1.773,0,0,0-.766-.166,1.9,1.9,0,0,0-.714.131,1.652,1.652,0,0,0-.932.932,2.062,2.062,0,0,0,0,1.444,1.65,1.65,0,0,0,.932.932,1.9,1.9,0,0,0,.714.131,1.737,1.737,0,0,0,.766-.17,1.953,1.953,0,0,0,.631-.5l.833.761a2.562,2.562,0,0,1-.984.738,3.28,3.28,0,0,1-1.316.254" transform="translate(-58.703 -138.229)" fill="#1a1719"/>
          <path id="Path_76" data-name="Path 76" d="M139.862,143.974a3.349,3.349,0,0,1-1.214-.214,2.94,2.94,0,0,1-.968-.6,2.709,2.709,0,0,1-.639-.912,3.021,3.021,0,0,1,0-2.289,2.724,2.724,0,0,1,.639-.908,2.95,2.95,0,0,1,.964-.6,3.317,3.317,0,0,1,1.209-.214,3.371,3.371,0,0,1,1.21.211,2.9,2.9,0,0,1,.964.6,2.717,2.717,0,0,1,.638.912,3.027,3.027,0,0,1,0,2.3,2.7,2.7,0,0,1-.638.916,2.9,2.9,0,0,1-.964.6,3.348,3.348,0,0,1-1.2.21m-.009-1.087a1.774,1.774,0,0,0,.687-.131,1.666,1.666,0,0,0,.551-.373,1.738,1.738,0,0,0,.369-.563,2.029,2.029,0,0,0,0-1.435,1.738,1.738,0,0,0-.369-.563,1.655,1.655,0,0,0-.551-.373,1.872,1.872,0,0,0-1.377,0,1.6,1.6,0,0,0-.552.373,1.775,1.775,0,0,0-.365.563,2.038,2.038,0,0,0,0,1.435,1.775,1.775,0,0,0,.365.563,1.615,1.615,0,0,0,.552.373,1.789,1.789,0,0,0,.69.131" transform="translate(-63.128 -138.229)" fill="#1a1719"/>
          <path id="Path_77" data-name="Path 77" d="M149.33,143.952V138.4h1.063l3.276,4h-.516v-4h1.269v5.553h-1.063l-3.276-4h.516v4Z" transform="translate(-68.6 -138.303)" fill="#1a1719"/>
          <path id="Path_78" data-name="Path 78" d="M161.754,143.952l-2.4-5.553h1.4l2.095,4.918h-.817l2.126-4.918h1.277l-2.4,5.553Z" transform="translate(-72.978 -138.303)" fill="#1a1719"/>
          <path id="Path_79" data-name="Path 79" d="M172.24,142.921h3.022v1.031h-4.3V138.4h4.2v1.031H172.24Zm-.1-2.293h2.674v1.008h-2.674Z" transform="translate(-78.052 -138.303)" fill="#1a1719"/>
          <path id="Path_80" data-name="Path 80" d="M180.42,143.952V138.4h1.063l3.276,4h-.516v-4h1.269v5.553h-1.063l-3.276-4h.516v4Z" transform="translate(-82.187 -138.303)" fill="#1a1719"/>
          <path id="Path_81" data-name="Path 81" d="M192.471,143.952v-4.506h-1.778V138.4h4.839v1.047h-1.778v4.506Z" transform="translate(-86.678 -138.303)" fill="#1a1719"/>
          <rect id="Rectangle_6935" data-name="Rectangle 6935" width="1.293" height="5.553" transform="translate(109.547 0.094)" fill="#1a1719"/>
          <path id="Path_82" data-name="Path 82" d="M207.566,143.974a3.358,3.358,0,0,1-1.214-.214,2.934,2.934,0,0,1-.967-.6,2.709,2.709,0,0,1-.639-.912,3.007,3.007,0,0,1,0-2.289,2.724,2.724,0,0,1,.639-.908,2.945,2.945,0,0,1,.963-.6,3.327,3.327,0,0,1,1.21-.214,3.366,3.366,0,0,1,1.209.211,2.881,2.881,0,0,1,.964.6,2.721,2.721,0,0,1,.639.912,3.027,3.027,0,0,1,0,2.3,2.7,2.7,0,0,1-.639.916,2.874,2.874,0,0,1-.964.6,3.34,3.34,0,0,1-1.2.21m-.008-1.087a1.764,1.764,0,0,0,.686-.131,1.681,1.681,0,0,0,.552-.373,1.727,1.727,0,0,0,.369-.563,2.038,2.038,0,0,0,0-1.435,1.727,1.727,0,0,0-.369-.563,1.67,1.67,0,0,0-.552-.373,1.754,1.754,0,0,0-.686-.131,1.784,1.784,0,0,0-.691.131,1.6,1.6,0,0,0-.551.373,1.755,1.755,0,0,0-.365.563,2.037,2.037,0,0,0,0,1.435,1.755,1.755,0,0,0,.365.563,1.609,1.609,0,0,0,.551.373,1.8,1.8,0,0,0,.691.131" transform="translate(-92.72 -138.229)" fill="#1a1719"/>
          <path id="Path_83" data-name="Path 83" d="M217.035,143.952V138.4H218.1l3.276,4h-.516v-4h1.269v5.553h-1.063l-3.276-4h.516v4Z" transform="translate(-98.19 -138.303)" fill="#1a1719"/>
          <path id="Path_84" data-name="Path 84" d="M234.8,143.973a3.32,3.32,0,0,1-1.194-.21,2.8,2.8,0,0,1-.955-.6,2.754,2.754,0,0,1-.631-.913,3.029,3.029,0,0,1,0-2.3,2.746,2.746,0,0,1,.634-.912,2.858,2.858,0,0,1,.96-.6,3.525,3.525,0,0,1,2.5.039,2.544,2.544,0,0,1,.984.734l-.834.761a1.894,1.894,0,0,0-.631-.491,1.772,1.772,0,0,0-.765-.166,1.893,1.893,0,0,0-.714.131,1.643,1.643,0,0,0-.932.932,2.061,2.061,0,0,0,0,1.444,1.642,1.642,0,0,0,.932.932,1.892,1.892,0,0,0,.714.131,1.735,1.735,0,0,0,.765-.17,1.94,1.94,0,0,0,.631-.5l.834.761a2.571,2.571,0,0,1-.984.738,3.282,3.282,0,0,1-1.317.254" transform="translate(-104.64 -138.229)" fill="#1a1719"/>
          <path id="Path_85" data-name="Path 85" d="M244.019,142.921h3.023v1.031h-4.3V138.4h4.2v1.031h-2.92Zm-.095-2.293H246.6v1.008h-2.674Z" transform="translate(-109.428 -138.303)" fill="#1a1719"/>
          <path id="Path_86" data-name="Path 86" d="M252.2,143.952V138.4h1.063l3.276,4h-.516v-4h1.269v5.553h-1.063l-3.276-4h.516v4Z" transform="translate(-113.559 -138.303)" fill="#1a1719"/>
          <path id="Path_87" data-name="Path 87" d="M264.25,143.952v-4.506h-1.778V138.4h4.839v1.047h-1.778v4.506Z" transform="translate(-118.051 -138.303)" fill="#1a1719"/>
          <path id="Path_88" data-name="Path 88" d="M272.3,143.952V138.4h2.4a3.121,3.121,0,0,1,1.286.241,1.887,1.887,0,0,1,.833.695,2.1,2.1,0,0,1,0,2.145,1.842,1.842,0,0,1-.833.683,3.22,3.22,0,0,1-1.286.234H273l.587-.555v2.11Zm1.293-1.967-.587-.611h1.626a1.347,1.347,0,0,0,.889-.254.884.884,0,0,0,.3-.714.872.872,0,0,0-.3-.71,1.367,1.367,0,0,0-.889-.249H273l.587-.611Zm2.245,1.967-1.4-2.015h1.381l1.4,2.015Z" transform="translate(-122.344 -138.303)" fill="#1a1719"/>
          <path id="Path_89" data-name="Path 89" d="M283.932,142.921h3.022v1.031h-4.3V138.4h4.2v1.031h-2.919Zm-.1-2.293h2.674v1.008h-2.674Z" transform="translate(-126.872 -138.303)" fill="#1a1719"/>
        </g>
      </g>
      <g id="Group_989" data-name="Group 989" transform="translate(3.124 17.124)">
        <path id="Path_96" data-name="Path 96" d="M136.086,173.607l.524-1.9.174.722a.781.781,0,0,1-.551-.2.7.7,0,0,1-.218-.543.744.744,0,0,1,.222-.567.764.764,0,0,1,.547-.21.741.741,0,0,1,.548.214.761.761,0,0,1,.214.563,1.215,1.215,0,0,1-.016.194,1.589,1.589,0,0,1-.06.234q-.044.135-.138.357l-.453,1.143Z" transform="translate(-97.234 -166.831)" fill="#1a1719"/>
        <g id="Group_988" data-name="Group 988" transform="translate(0 0)">
          <path id="Path_90" data-name="Path 90" d="M67.126,169.224v-5.553h2.523a3.528,3.528,0,0,1,1.595.345,2.637,2.637,0,0,1,1.079.968,2.951,2.951,0,0,1,0,2.927,2.622,2.622,0,0,1-1.079.968,3.521,3.521,0,0,1-1.595.345Zm1.293-1.047h1.166a2.08,2.08,0,0,0,.964-.21,1.513,1.513,0,0,0,.635-.6,1.981,1.981,0,0,0,0-1.837,1.517,1.517,0,0,0-.635-.6,2.072,2.072,0,0,0-.964-.21H68.419Z" transform="translate(-67.126 -163.671)" fill="#1a1719"/>
          <path id="Path_91" data-name="Path 91" d="M79.408,169.225l-1.824-5.553h1.332L80.5,168.59h-.667l1.65-4.918h1.189l1.587,4.918h-.642l1.618-4.918h1.229l-1.824,5.553H83.272l-1.412-4.316h.365l-1.444,4.316Z" transform="translate(-71.697 -163.671)" fill="#1a1719"/>
          <path id="Path_92" data-name="Path 92" d="M93,169.224l2.467-5.553h1.27l2.491,5.553H97.881l-2.039-4.9h.516l-2.039,4.9Zm1.246-1.19.325-.975h2.872l.333.975Z" transform="translate(-78.435 -163.671)" fill="#1a1719"/>
          <path id="Path_93" data-name="Path 93" d="M105.095,169.225v-5.553h2.4a3.124,3.124,0,0,1,1.286.242,1.885,1.885,0,0,1,.833.695,2.1,2.1,0,0,1,0,2.145,1.841,1.841,0,0,1-.833.683,3.222,3.222,0,0,1-1.286.234h-1.7l.587-.555v2.11Zm1.293-1.967-.587-.611h1.626a1.348,1.348,0,0,0,.889-.254.883.883,0,0,0,.3-.714.871.871,0,0,0-.3-.71,1.367,1.367,0,0,0-.889-.249H105.8l.587-.611Zm2.245,1.967-1.4-2.015h1.38l1.4,2.015Z" transform="translate(-83.721 -163.671)" fill="#1a1719"/>
          <path id="Path_94" data-name="Path 94" d="M115.453,163.672h1.277v5.553h-1.277Zm1.142,4.284-.063-1.484,2.658-2.8h1.428l-2.388,2.578-.73.761Zm2.658,1.269-1.976-2.411.841-.92,2.642,3.332Z" transform="translate(-88.249 -163.671)" fill="#1a1719"/>
          <path id="Path_95" data-name="Path 95" d="M124.148,169.224l2.467-5.553h1.27l2.491,5.553h-1.349l-2.039-4.9h.516l-2.039,4.9Zm1.246-1.19.325-.975h2.872l.333.975Z" transform="translate(-92.049 -163.671)" fill="#1a1719"/>
          <path id="Path_97" data-name="Path 97" d="M144.373,169.225v-5.553h1.063l3.276,4H148.2v-4h1.269v5.553H148.4l-3.276-4h.516v4Z" transform="translate(-100.887 -163.671)" fill="#1a1719"/>
          <path id="Path_98" data-name="Path 98" d="M157.038,168.194h3.023v1.031h-4.3v-5.553h4.2V164.7h-2.92Zm-.1-2.293h2.674v1.008h-2.674Z" transform="translate(-105.867 -163.671)" fill="#1a1719"/>
          <path id="Path_99" data-name="Path 99" d="M166.042,169.225l-1.824-5.553h1.332l1.579,4.918h-.666l1.65-4.918H169.3l1.587,4.918h-.642l1.618-4.918H173.1l-1.824,5.553h-1.365l-1.412-4.316h.365l-1.444,4.316Z" transform="translate(-109.561 -163.671)" fill="#1a1719"/>
          <path id="Path_100" data-name="Path 100" d="M185.456,169.224v-5.553h2.523a3.527,3.527,0,0,1,1.595.345,2.637,2.637,0,0,1,1.079.968,2.951,2.951,0,0,1,0,2.927,2.622,2.622,0,0,1-1.079.968,3.521,3.521,0,0,1-1.595.345Zm1.293-1.047h1.166a2.08,2.08,0,0,0,.964-.21,1.513,1.513,0,0,0,.635-.6,1.981,1.981,0,0,0,0-1.837,1.517,1.517,0,0,0-.635-.6,2.072,2.072,0,0,0-.964-.21h-1.166Z" transform="translate(-118.845 -163.671)" fill="#1a1719"/>
          <path id="Path_101" data-name="Path 101" d="M198.374,168.194H201.4v1.031h-4.3v-5.553h4.2V164.7h-2.92Zm-.1-2.293h2.674v1.008h-2.674Z" transform="translate(-123.933 -163.671)" fill="#1a1719"/>
          <path id="Path_102" data-name="Path 102" d="M206.554,169.225v-5.553h1.293v4.506h2.769v1.047Z" transform="translate(-128.067 -163.671)" fill="#1a1719"/>
          <path id="Path_103" data-name="Path 103" d="M216.359,169.225h-1.293v-5.553h1.293Zm2.61-2.277h-2.713v-1.087h2.713Zm-.1-3.276h1.285v5.553h-1.285Z" transform="translate(-131.788 -163.671)" fill="#1a1719"/>
          <rect id="Rectangle_6936" data-name="Rectangle 6936" width="1.293" height="5.553" transform="translate(89.691 0.001)" fill="#1a1719"/>
        </g>
      </g>
    </g>
    <line id="Line_5" data-name="Line 5" x2="165.416" transform="translate(185.309 83.187)" fill="none" stroke="#040506" stroke-miterlimit="10" stroke-width="1.198"/>
    <g id="Group_1104" data-name="Group 1104" transform="translate(3.406 2.381)">
      <g id="Group_1103" data-name="Group 1103" clip-path="url(#clip-path-2)">
        <path id="Path_1524" data-name="Path 1524" d="M130.343,201.414c-.775,0-1.528.007-2.28-.01-.084,0-.2-.131-.24-.227-.178-.4-.345-.811-.5-1.226a.321.321,0,0,0-.353-.253q-1.8.012-3.593,0a.346.346,0,0,0-.377.279c-.145.4-.3.8-.48,1.191a.476.476,0,0,1-.344.238q-2.307.023-4.614,0a.636.636,0,0,1-.413-.245c-.7-.893-1.376-1.8-2.077-2.7a.644.644,0,0,0-.426-.216c-.538-.025-1.078-.01-1.653-.01v3.148h-2.258V192.2a.8.8,0,0,1,.156-.032c1.942,0,3.883,0,5.824.016a4.419,4.419,0,0,1,.824.1,2.178,2.178,0,0,1,1.974,2.184,8.707,8.707,0,0,1-.075,1.915,1.977,1.977,0,0,1-1.49,1.64l-.328.107,2.477,3.2c.22-.53.422-1.01.618-1.492q1.5-3.674,2.986-7.351a.445.445,0,0,1,.5-.331c.705.02,1.412,0,2.117.017a.474.474,0,0,1,.357.222q1.827,4.416,3.626,8.845a1.254,1.254,0,0,1,.038.178m-17.324-7.249v2.095h.395c.994-.005,1.99.021,2.981-.027.657-.032.921-.4.906-1.06-.015-.632-.3-.979-.939-1-1.1-.034-2.21-.01-3.343-.01m10.849,3.592h2.614c-.432-1.144-.851-2.253-1.3-3.452l-1.309,3.452" transform="translate(-51.396 -89.178)" fill="#161615"/>
        <path id="Path_1525" data-name="Path 1525" d="M62.442,201.421c-.958,0-1.834.009-2.711-.011-.1,0-.225-.137-.3-.238-.684-.889-1.365-1.779-2.035-2.679a.539.539,0,0,0-.5-.253c-.516.016-1.033,0-1.591,0V201.4H53.009v-9.206a1.843,1.843,0,0,1,.2-.023c1.941,0,3.883.006,5.824.019a4.108,4.108,0,0,1,.787.1,2.178,2.178,0,0,1,1.975,2.184,8.271,8.271,0,0,1-.048,1.8,2.018,2.018,0,0,1-1.584,1.773c-.072.02-.141.05-.257.092l2.536,3.288m-7.148-5.171c1.154,0,2.273,0,3.392,0a.682.682,0,0,0,.362-.092,1.164,1.164,0,0,0,.421-.4,1.037,1.037,0,0,0-.966-1.583c-.894-.027-1.79-.009-2.685-.011h-.524Z" transform="translate(-24.602 -89.186)" fill="#161615"/>
        <path id="Path_1526" data-name="Path 1526" d="M94.841,191.459a5.005,5.005,0,1,1-.062,10.01,5.005,5.005,0,0,1,.062-10.01m-2.723,4.982a2.713,2.713,0,1,0,2.749-2.685,2.714,2.714,0,0,0-2.749,2.685" transform="translate(-41.683 -88.857)" fill="#161615"/>
        <path id="Path_1527" data-name="Path 1527" d="M74.791,195.772h4.995v1.95h-5v1.716h6.072v1.989H72.492v-9.209h8.266v1.944H74.791Z" transform="translate(-33.644 -89.209)" fill="#161615"/>
        <path id="Path_1528" data-name="Path 1528" d="M42.525,193.431c-.628.349-1.246.708-1.884,1.032-.092.047-.294-.047-.405-.129a2.628,2.628,0,0,0-2.709-.384,2.6,2.6,0,0,0-1.665,2.168,2.7,2.7,0,0,0,4.318,2.484c.1-.077.192-.16.314-.262l1.011.561.988.55a4.83,4.83,0,0,1-4.876,1.928,5.012,5.012,0,1,1,4.909-7.95" transform="translate(-15.557 -88.85)" fill="#161615"/>
        <rect id="Rectangle_7005" data-name="Rectangle 7005" width="9.501" height="2.076" transform="translate(69.029 99.241)" fill="#009dde"/>
        <path id="Path_1529" data-name="Path 1529" d="M161.066,13.961a7.188,7.188,0,0,0-.513-1.98,5.254,5.254,0,0,0-4.146-3.565,1.713,1.713,0,0,0-1.73.839c-.8,1.528-.542,3.233.738,4.928,1.334,1.767,2.356,1.417,2.734,1.185a1.522,1.522,0,0,0,.522-1.935c-.25-.509-1.022-1.8-1.055-1.85a.549.549,0,0,0-.941.565c.008.013.782,1.3,1.011,1.768a.446.446,0,0,1-.113.518c-.163.1-.64-.059-1.283-.912a3.5,3.5,0,0,1-.641-3.76c.13-.249.486-.265.686-.252a4.193,4.193,0,0,1,3.193,2.865c0,.013.01.026.016.039.013.028,1.279,2.878-.46,4.22A1.911,1.911,0,0,1,157.5,17a5.973,5.973,0,0,1-3.488-2.886.548.548,0,1,0-.938.569,7.1,7.1,0,0,0,4.225,3.395,3.349,3.349,0,0,0,.613.058,2.962,2.962,0,0,0,1.839-.632,3.729,3.729,0,0,0,1.311-3.541" transform="translate(-71.007 -3.903)" fill="#040506"/>
        <path id="Path_1530" data-name="Path 1530" d="M149.175,1.617a8.7,8.7,0,0,1,5.939,1.67.8.8,0,0,0,1.026-1.222c-3.129-2.629-7.482-2.01-7.665-1.982a.8.8,0,0,0-.62.488c-.12.294-2.895,7.271.909,12.814a.8.8,0,0,0,1.316-.9c-2.807-4.091-1.412-9.326-.905-10.866" transform="translate(-68.115 0)" fill="#040506"/>
        <path id="Path_1531" data-name="Path 1531" d="M214.895,20.84H173.57a8.458,8.458,0,0,1-6.13-2.643l-.023-.023,0-.014a7.856,7.856,0,0,0,1.291-1.854c.008-.017.016-.038.023-.055,1.34-3.357.308-6.842-2.905-9.81a.8.8,0,1,0-1.083,1.171c2.723,2.515,3.593,5.287,2.518,8.016a5.482,5.482,0,0,1-1.424,1.79c-.007.005-.013.011-.02.017s-.014.008-.021.013-.025.025-.038.036a.825.825,0,0,0-.062.061.553.553,0,0,0-.044.056.635.635,0,0,0-.047.07.551.551,0,0,0-.033.064c-.012.025-.023.05-.033.076s-.013.045-.019.068a.7.7,0,0,0-.017.081.6.6,0,0,0-.006.069.732.732,0,0,0,0,.084c0,.023,0,.046.007.069a.642.642,0,0,0,.014.083c.005.023.014.046.021.068a.763.763,0,0,0,.03.078.681.681,0,0,0,.038.066.486.486,0,0,0,.028.051c0,.006.011.011.016.018s.009.038.015.046a10.058,10.058,0,0,0,7.907,3.845h41.325a.8.8,0,1,0,0-1.6" transform="translate(-76.338 -2.89)" fill="#040506"/>
        <path id="Path_1532" data-name="Path 1532" d="M154.682,6.266a.548.548,0,0,0-.156-1.086c-1.335.192-3.532,1.171-3.236,5.563,0,.032,0,.057.005.077a.549.549,0,0,0,.242.488.549.549,0,0,0,.761-.15.686.686,0,0,0,.086-.488c-.124-1.84.174-4.1,2.3-4.4" transform="translate(-70.201 -2.401)" fill="#040506"/>
        <path id="Path_1533" data-name="Path 1533" d="M158.668,27.341a4.556,4.556,0,0,1-3.847-1.27.8.8,0,1,0-1.245,1,5.944,5.944,0,0,0,4.524,1.919,4.088,4.088,0,0,0,.956-.1.8.8,0,0,0-.387-1.548" transform="translate(-71.194 -11.96)" fill="#040506"/>
        <path id="Path_1534" data-name="Path 1534" d="M177.717,7.948h2.511v7.807a1.042,1.042,0,0,0,1.02,1.071,1,1,0,0,0,.974-1.071V7.948h2.491a1.042,1.042,0,0,0,1.072-1,1,1,0,0,0-1.072-1h-7a1,1,0,0,0-1.072,1,1.023,1.023,0,0,0,1.072,1" transform="translate(-81.982 -2.763)" fill="#040506"/>
        <path id="Path_1535" data-name="Path 1535" d="M191.308,13.9a16.019,16.019,0,0,0,0,1.914A3.457,3.457,0,0,0,195,19.064a5.379,5.379,0,0,0,2.526-.536.946.946,0,0,0,.52-.857.921.921,0,0,0-1.347-.811,4.929,4.929,0,0,1-1.686.337c-1.026,0-1.809-.52-1.809-1.486v-.2h4.169c.75,0,1.016-.38,1.016-.977v-.337a3.316,3.316,0,0,0-3.486-3.552,3.415,3.415,0,0,0-3.593,3.261m3.614-1.511a1.393,1.393,0,0,1,1.531,1.549.149.149,0,0,1-.168.171H193.3a1.54,1.54,0,0,1,1.623-1.72" transform="translate(-88.773 -4.939)" fill="#040506"/>
        <path id="Path_1536" data-name="Path 1536" d="M207.4,19.018a1,1,0,0,0,1-1.056V13.017a3.5,3.5,0,0,1,1.5-.368,1.362,1.362,0,0,1,1.488,1.439v3.873a1.029,1.029,0,0,0,1,1.056,1,1,0,0,0,1-1.056V14c0-2.143-1.145-3.353-3.441-3.353a5.713,5.713,0,0,0-3.209.842.76.76,0,0,0-.331.75v5.726a1.029,1.029,0,0,0,1,1.056" transform="translate(-95.793 -4.94)" fill="#040506"/>
        <path id="Path_1537" data-name="Path 1537" d="M224.967,19.064c2.236,0,3.4-1.454,3.4-2.312a1,1,0,0,0-.995-1.056.86.86,0,0,0-.812.474,1.655,1.655,0,0,1-1.531.934,1.59,1.59,0,0,1-1.653-1.562,11.592,11.592,0,0,1,0-1.47,1.526,1.526,0,0,1,1.653-1.469,1.606,1.606,0,0,1,1.516.9.847.847,0,0,0,.811.459.994.994,0,0,0,1-1.041c0-.858-1.133-2.282-3.384-2.282a3.414,3.414,0,0,0-3.629,3.123,15.7,15.7,0,0,0,0,2.082,3.518,3.518,0,0,0,3.629,3.215" transform="translate(-102.708 -4.939)" fill="#040506"/>
        <path id="Path_1538" data-name="Path 1538" d="M239.339,19.064a5.384,5.384,0,0,0,2.526-.536.947.947,0,0,0,.52-.857.92.92,0,0,0-1.347-.811,4.493,4.493,0,0,1-1.6.337c-1.026,0-1.727-.521-1.727-1.486v-.2h4c.749,0,.981-.38.981-.977V14.2a3.3,3.3,0,0,0-3.469-3.552A3.416,3.416,0,0,0,235.63,13.9a16.14,16.14,0,0,0,.009,1.914,3.466,3.466,0,0,0,3.7,3.246m-.077-6.671a1.394,1.394,0,0,1,1.531,1.549.149.149,0,0,1-.168.171h-2.986a1.54,1.54,0,0,1,1.623-1.72" transform="translate(-109.346 -4.939)" fill="#040506"/>
        <path id="Path_1539" data-name="Path 1539" d="M251.689,16.7a1,1,0,0,0,1-1.056V6.716a1,1,0,1,0-1.994,0v8.926a1.029,1.029,0,0,0,1,1.056" transform="translate(-116.347 -2.619)" fill="#040506"/>
        <path id="Path_1540" data-name="Path 1540" d="M261.549,7.371l-.149-.946a.295.295,0,0,0-.581-.036l-.169.72-.164-.72a.291.291,0,0,0-.288-.232.294.294,0,0,0-.3.273l-.149.941a.193.193,0,0,0,.133.247.186.186,0,0,0,.236-.165l.1-.8.185.75c.041.139.123.217.242.217a.252.252,0,0,0,.242-.217l.185-.745.1.8a.187.187,0,0,0,.237.165.193.193,0,0,0,.133-.247" transform="translate(-120.548 -2.857)" fill="#040506"/>
        <path id="Path_1541" data-name="Path 1541" d="M257.544,6.561h.288v.885a.192.192,0,0,0,.2.19.187.187,0,0,0,.19-.19V6.561h.278a.182.182,0,0,0,.18-.18.18.18,0,0,0-.18-.185h-.951a.179.179,0,0,0-.179.185.181.181,0,0,0,.179.18" transform="translate(-119.444 -2.876)" fill="#040506"/>
        <path id="Path_1542" data-name="Path 1542" d="M130.072,101a5.616,5.616,0,0,0-.6,1.005q-1.879,3.525-3.754,7.052-1.291,2.419-2.6,4.83a4.228,4.228,0,0,1-.389.633.491.491,0,0,1-.85-.032c-.117-.163-.208-.348-.309-.524-2.221-3.828-4.458-7.647-6.559-11.542a6.877,6.877,0,0,0-.438-.682.258.258,0,0,0-.307-.072.2.2,0,0,0-.137.208c-.007.2-.009.407-.009.611v11.4a5.22,5.22,0,0,1-.009.542.549.549,0,0,1-.7.541.341.341,0,0,1-.315-.3c-.018-.2-.013-.406-.013-.609v-19.2c0-.2,0-.407,0-.611,0-.234.005-.47.268-.564a.747.747,0,0,1,.823.123,2.583,2.583,0,0,1,.456.668c.521.95,1.035,1.9,1.555,2.855q3.28,6,6.562,12c.141.257.285.512.442.76.252.4.37.4.607.02.083-.135.163-.27.238-.409.907-1.69,1.809-3.384,2.72-5.072q2.717-5.036,5.442-10.066c.108-.2.217-.4.334-.588a.549.549,0,0,1,.355-.295c.572-.093.779.01.879.549a2.571,2.571,0,0,1,.02.473q0,9.5,0,19c0,1.063-.23,1.112-1.119,1.246a3.894,3.894,0,0,1-1.877-.12c-.412-.143-.5-.252-.521-.681-.01-.2,0-.407,0-.61q0-5.735,0-11.469a1.864,1.864,0,0,0-.19-1.066" transform="translate(-52.481 -43.446)" fill="#040506"/>
        <path id="Path_1543" data-name="Path 1543" d="M26.28,104.4v-9.7a5.133,5.133,0,0,1,.021-.609c.035-.3.208-.429.522-.371a2.022,2.022,0,0,1,.508.171c.182.088.35.206.524.311q6.077,3.688,12.151,7.379c.489.3.584.1.582-.349-.011-2.194-.006-4.388,0-6.582a5.246,5.246,0,0,1,.02-.609.381.381,0,0,1,.374-.329.49.49,0,0,1,.562.274,1.016,1.016,0,0,1,.046.266c.009.136,0,.272,0,.407q0,9.669,0,19.339c0,.226-.013.452-.035.676a.355.355,0,0,1-.286.338.623.623,0,0,1-.577-.095.292.292,0,0,1-.091-.173c-.016-.157-.013-.316-.013-.474q0-3.632,0-7.262c0-.136,0-.271,0-.407a1.175,1.175,0,0,0-.551-1.029c-.168-.116-.34-.223-.513-.329q-5.638-3.436-11.342-6.76a3.932,3.932,0,0,0-.547-.266.256.256,0,0,0-.337.232c-.016.225-.014.451-.014.677v14.862a4.919,4.919,0,0,1-.008.541.553.553,0,0,1-.8.456.253.253,0,0,1-.16-.2,5.884,5.884,0,0,1-.031-.607q0-4.886,0-9.772" transform="translate(-12.197 -43.486)" fill="#040506"/>
        <path id="Path_1544" data-name="Path 1544" d="M70.242,104.59V95.43c0-.76.034-.752-.735-.749-1.334.005-2.669,0-4,0-.226,0-.453-.006-.678-.023a.352.352,0,0,1-.336-.352.523.523,0,0,1,.5-.6c.135-.012.271-.006.407-.006q6.481,0,12.962,0a1.9,1.9,0,0,1,.8.092.422.422,0,0,1,.3.4.469.469,0,0,1-.345.451,3.484,3.484,0,0,1-.54.032c-1.358,0-2.715.011-4.072.008-.738,0-.69.005-.69.718q0,9.025,0,18.049c0,.2,0,.408,0,.611a.8.8,0,0,1-.651.837,4.533,4.533,0,0,1-2.472-.054.607.607,0,0,1-.442-.617c0-.2-.005-.407-.005-.61Z" transform="translate(-29.929 -43.486)" fill="#040506"/>
        <path id="Path_1545" data-name="Path 1545" d="M98.586,104.377c0-3.1.016-6.194-.008-9.291-.009-1.156.4-1.251,1.257-1.363a4.241,4.241,0,0,1,1.615.1.875.875,0,0,1,.728.783,4.235,4.235,0,0,1,.031.54q0,9.223,0,18.448a2.869,2.869,0,0,1-.062.671.813.813,0,0,1-.619.646,1.9,1.9,0,0,1-.4.078c-.43.013-.86.005-1.289.016a2.227,2.227,0,0,1-.725-.158.7.7,0,0,1-.529-.705c0-.18,0-.362,0-.543Z" transform="translate(-45.75 -43.48)" fill="#040506"/>
        <path id="Path_1546" data-name="Path 1546" d="M237.973,104.333q0-4.577,0-9.153a6.9,6.9,0,0,1,.044-.743.625.625,0,0,1,.439-.553,3.8,3.8,0,0,1,2.711.078.657.657,0,0,1,.4.582,5.008,5.008,0,0,1,.017.609v11.934q0,3.186,0,6.373c0,.181.008.362-.008.541a.905.905,0,0,1-.765.906,5.029,5.029,0,0,1-2.211-.037.767.767,0,0,1-.624-.774c-.011-.2-.011-.406-.011-.611Z" transform="translate(-110.444 -43.474)" fill="#040506"/>
        <path id="Path_1547" data-name="Path 1547" d="M260.186,118.29h6.581c.159,0,.317,0,.476,0a.738.738,0,0,1,.738.487c.036.082.071.166.106.249l2.628,6.161c.018.041.04.08.058.122.347.8-.039,1-.622,1.074a5.263,5.263,0,0,1-2.087-.078,1.4,1.4,0,0,1-1.021-.889c-.672-1.7-1.36-3.391-2.043-5.085-.118-.293-.243-.583-.361-.876a.525.525,0,0,0-.524-.353l-.407,0h-6.786c-.09,0-.181,0-.27,0a.682.682,0,0,0-.736.47c-.215.522-.439,1.039-.66,1.558q-.977,2.3-1.957,4.608c-.043.1-.08.211-.133.31a1.028,1.028,0,0,1-.159.217.623.623,0,0,1-.689.112c-.184-.108-.181-.3-.177-.48a2.288,2.288,0,0,1,.247-.839l2.231-5.153c.054-.124.115-.245.163-.372.122-.316.061-.422-.267-.427-.5-.008-1,0-1.492-.005-.284-.006-.4-.14-.411-.423a.331.331,0,0,1,.315-.369c.179-.018.361-.011.541-.011h6.718Z" transform="translate(-117.019 -54.898)" fill="#040506"/>
        <path id="Path_1548" data-name="Path 1548" d="M206.58,123.543a4.417,4.417,0,0,0-.606-.044q-12.184,0-24.366,0a4.134,4.134,0,0,1-.541-.029.237.237,0,0,1-.222-.281c.055-.793-.04-1.581-.058-2.373a5.21,5.21,0,0,0-.081-.74,11.478,11.478,0,0,0-2.437-5.373,19.243,19.243,0,0,0-4.128-3.8c-2.052-1.406-4.175-2.7-6.354-3.9a49.889,49.889,0,0,1-4.914-3,12.208,12.208,0,0,1-2.408-2.181,8.732,8.732,0,0,1-2.122-5.452,6.657,6.657,0,0,1,2.234-5.323,9.324,9.324,0,0,1,1.056-.848,13.111,13.111,0,0,1,5.39-2.078c.763-.118,1.538-.036,2.291-.219a.482.482,0,0,1,.2.018,13.5,13.5,0,0,1,2.495.615,3.191,3.191,0,0,0,.855.2,1,1,0,0,0,1.277-.886.825.825,0,0,0-.628-1.145c-.086-.029-.176-.039-.264-.062a16.545,16.545,0,0,0-4.563-.538,18.324,18.324,0,0,0-4.625.615,16.357,16.357,0,0,0-8.118,5.04,11.184,11.184,0,0,0-2.011,3.2,12.777,12.777,0,0,0-.8,6.919,11.546,11.546,0,0,0,2.481,5.64,12.964,12.964,0,0,0,2.865,2.574c2.646,1.777,5.34,3.48,8.027,5.193,1.314.839,2.617,1.7,3.872,2.625a12.946,12.946,0,0,1,2.07,1.853,8.815,8.815,0,0,1,1.876,3.342c.1.342.065.383-.3.394-.2.005-.407,0-.61,0H108.466a4.576,4.576,0,0,0-.743.037.885.885,0,0,0-.752,1.031.914.914,0,0,0,.822.861,6.167,6.167,0,0,0,.88.033q18.732,0,37.466.005c.18,0,.361-.006.542,0,.238.01.307.084.324.338.009.113.006.226.006.339a8.709,8.709,0,0,0,.333,2.274,10.109,10.109,0,0,0,3.266,5.049,16.244,16.244,0,0,0,4.661,2.855,17.566,17.566,0,0,0,4.318,1.107,19.932,19.932,0,0,0,3.855.216c1.218-.079,2.436-.161,3.644-.353a18.354,18.354,0,0,0,8.732-3.767,12.852,12.852,0,0,0,4.678-7.346c.03-.132.049-.267.092-.394a.407.407,0,0,1,.4-.314c.2,0,.407-.005.611-.005l23.958,0c.227,0,.454,0,.68-.009a1.159,1.159,0,0,0,.831-.4.938.938,0,0,0-.483-1.509m-65.351,1.069q-10.957,0-21.914,0-5.088,0-10.177-.01c-.295,0-.587.018-.88.021a.909.909,0,0,1-.26-.039c-.028-.009-.046-.066-.06-.105s.005-.084.064-.089c.135-.011.268-.024.4-.024q7.326,0,14.655,0h38.265q6.072,0,12.145.005c.316,0,.631-.008.946,0a.122.122,0,0,1,.085.08.125.125,0,0,1-.1.149.747.747,0,0,1-.2.017H141.229Zm33.473,1.51a8.52,8.52,0,0,1-3.512,6.729,13.082,13.082,0,0,1-5.4,2.385,17.911,17.911,0,0,1-5.4.165,15.659,15.659,0,0,1-6.241-2.1,11.89,11.89,0,0,1-2.617-2.033,8.024,8.024,0,0,1-2.257-4.459,5.155,5.155,0,0,1-.123-1.264.848.848,0,0,1,.54-.076q7.258,0,14.517-.005,4.917,0,9.836,0c.654,0,.7-.051.662.655m31.574-1.631c-.019.035-.043.083-.076.093a.607.607,0,0,1-.2.029H184.3c-1.063,0-2.125.006-3.188.009a.254.254,0,0,1-.237-.092.146.146,0,0,1,0-.114,1.549,1.549,0,0,1,.328-.049c1.018,0,2.035,0,3.052,0h9.294v0q6.207,0,12.414,0a2.48,2.48,0,0,1,.266.026c.06.008.079.043.048.1" transform="translate(-49.641 -39.959)" fill="#d50c14"/>
        <path id="Path_1549" data-name="Path 1549" d="M128.452,146.189a.778.778,0,0,0-.8-.6c-.384-.024-.768-.012-1.152-.012H78.384v-.005h-49a3.111,3.111,0,0,0-.406.02.906.906,0,0,0-.832.908,1,1,0,0,0,.831,1.005,4.268,4.268,0,0,0,1.011.079q48.358,0,96.714,0a4.888,4.888,0,0,0,.944-.071,1.225,1.225,0,0,0,.488-.223.953.953,0,0,0,.319-1.1m-1.087.482c-.248.01-.5.012-.745.012H30.107c-.293,0-.586-.017-.88-.024-.065,0-.078-.026-.068-.082s.025-.083.081-.092a2.509,2.509,0,0,1,.266-.035c.2-.005.408,0,.611,0h96.445c.27,0,.541.011.812.026.032,0,.075.044.09.078.04.091-.039.117-.1.119" transform="translate(-13.062 -67.559)" fill="#040506"/>
        <path id="Path_1550" data-name="Path 1550" d="M179.245,114.127c-.13-.361-.273-.718-.423-1.069q-2.105-4.915-4.214-9.827-1.9-4.449-3.784-8.906a2.135,2.135,0,0,0-.346-.656.655.655,0,0,0-.86-.1,1.053,1.053,0,0,0-.391.456c-.095.2-.195.407-.283.614q-2.224,5.121-4.443,10.244c-.188.435-.374.871-.551,1.309a.569.569,0,0,1-.622.409c-.27-.018-.543,0-.814,0v0c-.181,0-.361,0-.543,0a4.443,4.443,0,0,0-.541.02.552.552,0,0,0-.423.606c.014.225.168.336.481.344.158,0,.317,0,.475,0,.317,0,.634,0,.95,0s.371.088.263.363c-.116.294-.242.583-.368.873q-1.031,2.355-2.065,4.711a2.573,2.573,0,0,0-.261.835.5.5,0,0,0,.68.515.537.537,0,0,0,.307-.255,6.052,6.052,0,0,0,.3-.607q1.176-2.774,2.346-5.548c.062-.146.125-.29.2-.43a.779.779,0,0,1,.7-.459c.114,0,.227,0,.339,0l6.788,0c.113,0,.226,0,.339,0a.558.558,0,0,1,.571.39c.139.333.272.669.407,1,.657,1.631,1.325,3.259,1.969,4.9a1.381,1.381,0,0,0,1.066.928,2.8,2.8,0,0,0,.6.1c.429,0,.86-.01,1.289,0a1.2,1.2,0,0,0,.692-.239.385.385,0,0,0,.184-.521m-7.187-7.548q-3.384,0-6.769,0a.986.986,0,0,1-.178-.03c-.064-.187.049-.322.108-.458q1.595-3.686,3.2-7.369a3.884,3.884,0,0,1,.2-.426c.109-.188.315-.171.423.031.062.12.114.245.166.368q1.488,3.587,2.974,7.172.065.155.125.313c.129.348.1.4-.255.4" transform="translate(-74.479 -43.372)" fill="#040506"/>
        <path id="Path_1551" data-name="Path 1551" d="M269.691,104.271c-2-4.194-4.1-8.333-6.194-12.48-.009-.019-.025-.044-.041-.049s-.043.01-.126.035c-2.146,4.167-4.319,8.369-6.466,12.586-.027.052,0,.129,0,.227h.613c1.063,0,2.125,0,3.19,0,2.259.006,4.52-.03,6.78.094a11.149,11.149,0,0,0,2.3-.094.37.37,0,0,0-.053-.32m-2.863-1.45a.126.126,0,0,1-.065.01q-2.946-.02-5.892-.046c-.271,0-.541-.02-.812-.034a.434.434,0,0,1-.127-.032.27.27,0,0,1-.056-.039c.183-.556,2.205-4.56,3.453-6.831.073.048.129.063.145.1,1.145,2.266,2.286,4.534,3.412,6.772-.038.068-.043.092-.059.1" transform="translate(-119.205 -42.577)" fill="#040506"/>
        <path id="Path_1552" data-name="Path 1552" d="M18.528,113.236V94.324a5.7,5.7,0,0,0-.018-.677,1.02,1.02,0,0,0-1.031-.963c-.294-.012-.588-.012-.881,0a.892.892,0,0,0-.932.8,4.744,4.744,0,0,0-.077.875q-.006,9.355,0,18.709c0,.293.039.585.066.878a.823.823,0,0,0,.661.758,2.72,2.72,0,0,0,1.468.008.936.936,0,0,0,.729-.872,5.377,5.377,0,0,0,.014-.61m-1.092-9.492V112.9c0,.2,0,.407-.011.609a.2.2,0,0,1-.215.21,2.452,2.452,0,0,1-.338,0,.19.19,0,0,1-.185-.168c-.02-.2-.029-.405-.029-.607q0-3.121,0-6.241,0-5.933,0-11.869c0-.2-.005-.407,0-.61.019-.429.11-.5.544-.454.128.014.213.077.219.21.009.2.012.406.012.609Z" transform="translate(-7.234 -43.01)" fill="#040506"/>
        <path id="Path_1553" data-name="Path 1553" d="M283.7,91.6a2.382,2.382,0,1,0,0,4.763,2.382,2.382,0,1,0,0-4.763m-.009,4.155a1.724,1.724,0,0,1-1.755-1.764,1.76,1.76,0,1,1,3.516.017,1.71,1.71,0,0,1-1.76,1.746" transform="translate(-130.534 -42.512)" fill="#040506"/>
        <path id="Path_1554" data-name="Path 1554" d="M285.879,95.316a.39.39,0,0,1,.027-.563.56.56,0,0,0-.228-.894,1.285,1.285,0,0,0-.45-.128,5.388,5.388,0,0,0-.811,0c-.29.022-.4.144-.4.434-.008.564,0,1.128,0,1.691a.8.8,0,0,0,.011.135.309.309,0,0,0,.365.216c.134-.024.268-.073.275-.243s0-.316.005-.473c.006-.137.1-.193.225-.193a.34.34,0,0,1,.37.231c.049.149.1.3.158.443a.308.308,0,0,0,.314.21.433.433,0,0,0,.316-.094,1.18,1.18,0,0,0-.172-.775m-.971-.515c-.177,0-.248-.087-.241-.313.005-.2.1-.288.291-.277.239.014.395.126.395.281,0,.18-.177.3-.445.309" transform="translate(-131.81 -43.495)" fill="#040506"/>
        <rect id="Rectangle_7006" data-name="Rectangle 7006" width="21.812" height="13.114" transform="translate(8.663 28.448)" fill="#d50c14"/>
        <path id="Path_1555" data-name="Path 1555" d="M69.211,66.38H64.8V58.589h4.407v1.076H66.077v2.121h2.936v1.066H66.077V65.3h3.133Z" transform="translate(-30.076 -27.191)" fill="#040506"/>
        <path id="Path_1556" data-name="Path 1556" d="M69.211,66.38H64.8V58.589h4.407v1.076H66.077v2.121h2.936v1.066H66.077V65.3h3.133Z" transform="translate(-30.076 -27.191)" fill="none" stroke="#040506" stroke-miterlimit="10" stroke-width="0.439"/>
        <path id="Path_1557" data-name="Path 1557" d="M82.506,62.41a3.883,3.883,0,0,1-1.071,2.95,4.3,4.3,0,0,1-3.085,1.02H76.17V58.589h2.409a3.986,3.986,0,0,1,2.894,1,3.745,3.745,0,0,1,1.034,2.819m-1.343.042q0-2.8-2.617-2.8h-1.1v5.654h.906q2.813,0,2.813-2.856" transform="translate(-35.351 -27.191)" fill="#040506"/>
        <path id="Path_1558" data-name="Path 1558" d="M82.506,62.41a3.883,3.883,0,0,1-1.071,2.95,4.3,4.3,0,0,1-3.085,1.02H76.17V58.589h2.409a3.986,3.986,0,0,1,2.894,1A3.745,3.745,0,0,1,82.506,62.41Zm-1.343.042q0-2.8-2.617-2.8h-1.1v5.654h.906Q81.163,65.309,81.163,62.452Z" transform="translate(-35.351 -27.191)" fill="none" stroke="#040506" stroke-miterlimit="10" stroke-width="0.439"/>
        <rect id="Rectangle_7007" data-name="Rectangle 7007" width="1.274" height="7.791" transform="translate(48.829 31.398)" fill="#040506"/>
        <rect id="Rectangle_7008" data-name="Rectangle 7008" width="1.274" height="7.791" transform="translate(48.829 31.398)" fill="none" stroke="#040506" stroke-miterlimit="10" stroke-width="0.439"/>
        <path id="Path_1559" data-name="Path 1559" d="M99.265,66.38H97.991v-6.7H95.7V58.589h5.857v1.092H99.265Z" transform="translate(-44.415 -27.191)" fill="#040506"/>
        <path id="Path_1560" data-name="Path 1560" d="M99.265,66.38H97.991v-6.7H95.7V58.589h5.857v1.092H99.265Z" transform="translate(-44.415 -27.191)" fill="none" stroke="#040506" stroke-miterlimit="10" stroke-width="0.439"/>
        <rect id="Rectangle_7009" data-name="Rectangle 7009" width="1.274" height="7.791" transform="translate(58.336 31.398)" fill="#040506"/>
        <rect id="Rectangle_7010" data-name="Rectangle 7010" width="1.274" height="7.791" transform="translate(58.336 31.398)" fill="none" stroke="#040506" stroke-miterlimit="10" stroke-width="0.439"/>
        <path id="Path_1561" data-name="Path 1561" d="M121.656,62.367a4.263,4.263,0,0,1-.951,2.958,4,4,0,0,1-5.4.008,4.288,4.288,0,0,1-.946-2.976,4.223,4.223,0,0,1,.951-2.963,3.5,3.5,0,0,1,2.715-1.034,3.435,3.435,0,0,1,2.686,1.05,4.26,4.26,0,0,1,.949,2.958m-5.947,0a3.492,3.492,0,0,0,.581,2.182,2.364,2.364,0,0,0,3.435.008,4.425,4.425,0,0,0,.005-4.364,2.025,2.025,0,0,0-1.708-.741,2.067,2.067,0,0,0-1.729.741,3.459,3.459,0,0,0-.584,2.174" transform="translate(-53.073 -27.085)" fill="#040506"/>
        <path id="Path_1562" data-name="Path 1562" d="M121.656,62.367a4.263,4.263,0,0,1-.951,2.958,4,4,0,0,1-5.4.008,4.288,4.288,0,0,1-.946-2.976,4.223,4.223,0,0,1,.951-2.963,3.5,3.5,0,0,1,2.715-1.034,3.435,3.435,0,0,1,2.686,1.05A4.26,4.26,0,0,1,121.656,62.367Zm-5.947,0a3.492,3.492,0,0,0,.581,2.182,2.364,2.364,0,0,0,3.435.008,4.425,4.425,0,0,0,.005-4.364,2.025,2.025,0,0,0-1.708-.741,2.067,2.067,0,0,0-1.729.741A3.459,3.459,0,0,0,115.709,62.367Z" transform="translate(-53.073 -27.085)" fill="none" stroke="#040506" stroke-miterlimit="10" stroke-width="0.439"/>
        <path id="Path_1563" data-name="Path 1563" d="M137.592,66.38H136.03L132.2,60.172h-.043l.027.347q.075.991.074,1.811v4.05H131.1V58.589h1.546l3.821,6.176h.032q-.01-.122-.042-.893t-.032-1.2V58.589h1.167Z" transform="translate(-60.844 -27.191)" fill="#040506"/>
        <path id="Path_1564" data-name="Path 1564" d="M137.592,66.38H136.03L132.2,60.172h-.043l.027.347q.075.991.074,1.811v4.05H131.1V58.589h1.546l3.821,6.176h.032q-.01-.122-.042-.893t-.032-1.2V58.589h1.167Z" transform="translate(-60.844 -27.191)" fill="none" stroke="#040506" stroke-miterlimit="10" stroke-width="0.439"/>
        <path id="Path_1565" data-name="Path 1565" d="M20.48,65.911l2.7-5.892H19.617v-.966h4.748v.755l-2.693,6.1Z" transform="translate(-9.104 -27.407)" fill="#fff"/>
        <path id="Path_1566" data-name="Path 1566" d="M32.621,65.911H31.491v-5.9H29.483v-.957h5.141v.957h-2Z" transform="translate(-13.683 -27.407)" fill="#fff"/>
        <path id="Path_1567" data-name="Path 1567" d="M46.438,65.911H45.312v-3.1H42.155v3.1H41.03V59.053h1.126v2.805h3.157V59.053h1.126Z" transform="translate(-19.042 -27.407)" fill="#fff"/>
        <path id="Path_1568" data-name="Path 1568" d="M211.2,23.07c3.831-.085,7.661-.17,11.491-.224l11.491-.187.4-.007.007.418c.121,7.282.158,14.563.241,21.846s.161,14.564.183,21.845l.084,21.845.019,10.923.008,5.462a13.85,13.85,0,0,1-1.139,5.69,14.2,14.2,0,0,1-8.374,7.676,14.457,14.457,0,0,1-2.832.666,19.526,19.526,0,0,1-2.846.127l-5.461-.026c-7.282-.045-14.564-.072-21.846-.173l-21.845-.261c-7.282-.15-14.564-.241-21.845-.448,7.282-.206,14.564-.3,21.845-.448l21.845-.26c7.282-.1,14.564-.127,21.846-.172l5.461-.027a17.907,17.907,0,0,0,2.6-.121,12.664,12.664,0,0,0,2.473-.589,12.359,12.359,0,0,0,7.259-6.689,11.949,11.949,0,0,0,.965-4.944l.008-5.462.019-10.923.084-21.845c.021-7.282.115-14.564.182-21.845.083-7.283.121-14.564.241-21.846l.41.411-11.491-.187c-3.831-.054-7.661-.139-11.491-.224" transform="translate(-69.124 -10.513)" fill="#040506"/>
        <path id="Path_1569" data-name="Path 1569" d="M16.1,117.861l-7.582.181-7.582.143-.317.006-.006-.33C.33,104.17.2,90.48.1,76.79L.012,56.254,0,35.719a13.623,13.623,0,0,1,4.108-9.883,14.1,14.1,0,0,1,9.9-4.005q10.281.039,20.54.158,20.535.2,41.071.7-20.536.508-41.071.7l-10.268.1-10.263.065a12.479,12.479,0,0,0-8.636,3.581,11.783,11.783,0,0,0-3.523,8.584L1.851,56.254,1.758,76.79c-.1,13.691-.226,27.381-.5,41.071l-.324-.324,7.582.143Z" transform="translate(0 -10.132)" fill="#040506"/>
        <path id="Path_1570" data-name="Path 1570" d="M34.374,183.362h-.592v1.285h-.4v-3.078h.994c.725,0,1.064.4,1.064.9,0,.468-.3.892-1.064.892m0-.331c.459,0,.654-.216.654-.561s-.2-.569-.654-.569h-.592v1.13Z" transform="translate(-15.492 -84.267)" fill="#040506"/>
        <path id="Path_1571" data-name="Path 1571" d="M39.072,185.221a1.25,1.25,0,1,1,1.241-1.254,1.2,1.2,0,0,1-1.241,1.254m0-.353a.822.822,0,0,0,.83-.9.813.813,0,0,0-.817-.9.9.9,0,0,0-.013,1.8" transform="translate(-17.574 -84.802)" fill="#040506"/>
        <path id="Path_1572" data-name="Path 1572" d="M42.881,182.8h.411l.556,2.032.6-2.032h.41l.588,2.036.547-2.036h.4l-.755,2.42h-.415l-.583-1.921-.583,1.921H43.64Z" transform="translate(-19.901 -84.837)" fill="#040506"/>
        <path id="Path_1573" data-name="Path 1573" d="M51.085,185.221a1.165,1.165,0,0,1-1.2-1.254,1.151,1.151,0,0,1,1.2-1.245,1.109,1.109,0,0,1,1.161,1.157,2.235,2.235,0,0,1-.013.243H50.3a.76.76,0,0,0,.786.759.665.665,0,0,0,.681-.446H52.2a1.088,1.088,0,0,1-1.113.786M50.3,183.8h1.528a.71.71,0,0,0-.764-.733.749.749,0,0,0-.764.733" transform="translate(-23.154 -84.802)" fill="#040506"/>
        <path id="Path_1574" data-name="Path 1574" d="M55.675,185.178h-.4v-2.42h.4v.393a.815.815,0,0,1,.781-.437v.415h-.105c-.385,0-.676.172-.676.733Z" transform="translate(-25.652 -84.798)" fill="#040506"/>
        <path id="Path_1575" data-name="Path 1575" d="M59.261,185.221a1.165,1.165,0,0,1-1.2-1.254,1.151,1.151,0,0,1,1.2-1.245,1.109,1.109,0,0,1,1.161,1.157,2.234,2.234,0,0,1-.013.243H58.475a.76.76,0,0,0,.786.759.664.664,0,0,0,.68-.446h.433a1.088,1.088,0,0,1-1.113.786M58.48,183.8h1.528a.71.71,0,0,0-.764-.733.749.749,0,0,0-.764.733" transform="translate(-26.948 -84.802)" fill="#040506"/>
        <path id="Path_1576" data-name="Path 1576" d="M64.323,182.023a1.056,1.056,0,0,1,.9.472v-1.28h.407v3.267h-.407v-.454a.992.992,0,0,1-.9.495,1.165,1.165,0,0,1-1.148-1.259,1.147,1.147,0,0,1,1.153-1.241m.075.349a.817.817,0,0,0-.817.892.822.822,0,1,0,.817-.892" transform="translate(-29.317 -84.103)" fill="#040506"/>
        <path id="Path_1577" data-name="Path 1577" d="M72.362,184.647H71.214v-3.078h1.1c.65,0,.976.354.976.781a.721.721,0,0,1-.539.712.768.768,0,0,1,.609.759c0,.464-.367.826-1,.826m-.08-2.746h-.667v1h.676c.375,0,.592-.186.592-.5s-.207-.5-.6-.5m.031,1.329h-.7v1.086h.711c.4,0,.636-.2.636-.534s-.256-.551-.649-.551" transform="translate(-33.051 -84.267)" fill="#040506"/>
        <path id="Path_1578" data-name="Path 1578" d="M77.683,182.8H78.1l-1.457,3.559h-.415l.477-1.166-.976-2.393h.446l.759,1.96Z" transform="translate(-35.145 -84.837)" fill="#040506"/>
      </g>
    </g>
  </g>
</svg>
